<svg xmlns="http://www.w3.org/2000/svg" version="1.1" width="365px" height="377px" style="shape-rendering:geometricPrecision; text-rendering:geometricPrecision; image-rendering:optimizeQuality; fill-rule:evenodd; clip-rule:evenodd" xmlns:xlink="http://www.w3.org/1999/xlink"><g><path style="opacity:0.082" fill="#c6efec" d="M 11.5,14.5 C 13.0269,14.427 14.0269,15.0937 14.5,16.5C 12.9731,16.573 11.9731,15.9063 11.5,14.5 Z"/></g><g><path style="opacity:1" fill="#296c7e" d="M 6.5,13.5 C 9.79897,19.4535 13.4656,25.1202 17.5,30.5C 17.719,31.675 17.3857,32.675 16.5,33.5C 15.1008,30.9463 13.1008,29.2796 10.5,28.5C 8.06488,24.2006 6.39821,19.534 5.5,14.5C 5.5,13.8333 5.83333,13.5 6.5,13.5 Z"/></g><g><path style="opacity:1" fill="#53afac" d="M 11.5,14.5 C 11.9731,15.9063 12.9731,16.573 14.5,16.5C 24.3231,23.9144 34.6564,30.5811 45.5,36.5C 45.1667,37.8333 44.8333,39.1667 44.5,40.5C 40.8352,43.6719 38.5019,43.0053 37.5,38.5C 34.9591,37.8968 32.6257,37.8968 30.5,38.5C 21.4255,30.927 13.5922,22.2603 7,12.5C 6.60123,12.7284 6.43456,13.0618 6.5,13.5C 5.83333,13.5 5.5,13.8333 5.5,14.5C 4.56552,13.4324 4.23219,12.099 4.5,10.5C 7.61449,10.5548 9.94783,11.8881 11.5,14.5 Z"/></g><g><path style="opacity:1" fill="#238288" d="M 10.5,28.5 C 13.1008,29.2796 15.1008,30.9463 16.5,33.5C 17.3857,32.675 17.719,31.675 17.5,30.5C 21.5,33.8333 25.1667,37.5 28.5,41.5C 28.0133,42.4734 27.5133,43.4734 27,44.5C 25.8869,43.2889 24.7202,43.2889 23.5,44.5C 22.5713,43.3112 22.238,41.9778 22.5,40.5C 20.4458,40.3653 18.7791,41.032 17.5,42.5C 14.4207,38.2985 12.0873,33.6318 10.5,28.5 Z"/></g><g><path style="opacity:1" fill="#75bcba" d="M 45.5,36.5 C 53.5348,40.8493 61.5348,45.1827 69.5,49.5C 68.1779,49.33 67.0113,49.6634 66,50.5C 59.5461,45.5241 52.3794,42.1908 44.5,40.5C 44.8333,39.1667 45.1667,37.8333 45.5,36.5 Z"/></g><g><path style="opacity:1" fill="#74d0cd" d="M 30.5,38.5 C 31.8098,40.1477 33.1431,41.8144 34.5,43.5C 42.538,49.5253 50.2046,56.0253 57.5,63C 59.6406,63.5725 61.6406,64.4058 63.5,65.5C 68.0127,70.9939 73.6794,74.9939 80.5,77.5C 81.3816,78.7598 82.3816,79.9264 83.5,81C 88.0308,82.7594 92.0308,85.2594 95.5,88.5C 84.2418,82.5662 73.2418,76.2329 62.5,69.5C 50.9003,60.5742 39.5669,51.2409 28.5,41.5C 25.1667,37.5 21.5,33.8333 17.5,30.5C 13.4656,25.1202 9.79897,19.4535 6.5,13.5C 6.43456,13.0618 6.60123,12.7284 7,12.5C 13.5922,22.2603 21.4255,30.927 30.5,38.5 Z"/></g><g><path style="opacity:1" fill="#89c5ca" d="M 69.5,49.5 C 76.6906,52.5968 83.6906,55.9301 90.5,59.5C 88.5,59.5 86.5,59.5 84.5,59.5C 80.4194,56.9555 76.0861,54.6222 71.5,52.5C 70.5748,51.6431 69.9081,50.6431 69.5,49.5 Z"/></g><g><path style="opacity:1" fill="#57bbb9" d="M 44.5,40.5 C 52.3794,42.1908 59.5461,45.5241 66,50.5C 67.0113,49.6634 68.1779,49.33 69.5,49.5C 69.9081,50.6431 70.5748,51.6431 71.5,52.5C 76.0861,54.6222 80.4194,56.9555 84.5,59.5C 82.2722,60.5927 79.9389,61.5927 77.5,62.5C 80.0182,64.1557 80.0182,65.4891 77.5,66.5C 77.0831,65.8761 76.4164,65.5427 75.5,65.5C 70.7953,68.4813 68.1286,67.148 67.5,61.5C 66.1667,61.5 64.8333,61.5 63.5,61.5C 63.5,62.8333 63.5,64.1667 63.5,65.5C 61.6406,64.4058 59.6406,63.5725 57.5,63C 50.2046,56.0253 42.538,49.5253 34.5,43.5C 33.1431,41.8144 31.8098,40.1477 30.5,38.5C 32.6257,37.8968 34.9591,37.8968 37.5,38.5C 38.5019,43.0053 40.8352,43.6719 44.5,40.5 Z"/></g><g><path style="opacity:1" fill="#1e9591" d="M 28.5,41.5 C 39.5669,51.2409 50.9003,60.5742 62.5,69.5C 58.6009,67.6144 54.9343,65.2811 51.5,62.5C 50.8333,62.8333 50.1667,63.1667 49.5,63.5C 47.9991,62.2485 46.3325,61.2485 44.5,60.5C 42.8988,61.1654 41.3988,61.4988 40,61.5C 38.6625,58.9979 36.8292,56.9979 34.5,55.5C 32.9936,54.2528 31.4936,54.2528 30,55.5C 29.0857,53.3359 27.919,51.3359 26.5,49.5C 25.5,49.8333 24.8333,50.5 24.5,51.5C 27.4396,55.722 30.1063,60.0553 32.5,64.5C 26.0196,58.2154 21.0196,50.882 17.5,42.5C 18.7791,41.032 20.4458,40.3653 22.5,40.5C 22.238,41.9778 22.5713,43.3112 23.5,44.5C 24.7202,43.2889 25.8869,43.2889 27,44.5C 27.5133,43.4734 28.0133,42.4734 28.5,41.5 Z"/></g><g><path style="opacity:0.722" fill="#acbdd3" d="M 197.5,63.5 C 193.958,63.1872 190.625,63.5206 187.5,64.5C 183.001,64.0647 182.668,63.0647 186.5,61.5C 190.331,62.0272 193.998,62.6939 197.5,63.5 Z"/></g><g><path style="opacity:1" fill="#88a7d8" d="M 187.5,64.5 C 190.625,63.5206 193.958,63.1872 197.5,63.5C 204.804,63.8811 211.804,65.2144 218.5,67.5C 213.597,67.6935 213.264,69.0269 217.5,71.5C 207.404,69.4757 197.404,67.1423 187.5,64.5 Z"/></g><g><path style="opacity:1" fill="#2cada6" d="M 62.5,69.5 C 73.2418,76.2329 84.2418,82.5662 95.5,88.5C 98.4835,91.3258 101.817,93.6591 105.5,95.5C 102.646,95.0761 99.9793,94.0761 97.5,92.5C 96.8333,92.8333 96.1667,93.1667 95.5,93.5C 93.1294,90.794 90.4628,88.4606 87.5,86.5C 85.5,86.8333 83.5,87.1667 81.5,87.5C 81.9839,86.2192 81.3173,85.2192 79.5,84.5C 79.0629,82.9256 78.0629,81.7589 76.5,81C 69.2557,78.913 62.4223,76.7463 56,74.5C 55.4806,75.5156 54.6473,76.1822 53.5,76.5C 50.4891,74.497 47.1558,73.497 43.5,73.5C 43.6495,72.448 43.4828,71.448 43,70.5C 40.0372,68.5394 37.3706,66.206 35,63.5C 34.3333,64.1667 34.3333,64.8333 35,65.5C 38.1445,68.4603 40.6445,71.7937 42.5,75.5C 38.4564,72.4575 35.1231,68.7908 32.5,64.5C 30.1063,60.0553 27.4396,55.722 24.5,51.5C 24.8333,50.5 25.5,49.8333 26.5,49.5C 27.919,51.3359 29.0857,53.3359 30,55.5C 31.4936,54.2528 32.9936,54.2528 34.5,55.5C 36.8292,56.9979 38.6625,58.9979 40,61.5C 41.3988,61.4988 42.8988,61.1654 44.5,60.5C 46.3325,61.2485 47.9991,62.2485 49.5,63.5C 50.1667,63.1667 50.8333,62.8333 51.5,62.5C 54.9343,65.2811 58.6009,67.6144 62.5,69.5 Z"/></g><g><path style="opacity:1" fill="#3abbae" d="M 79.5,84.5 C 76.2053,83.1755 74.872,84.5089 75.5,88.5C 73.901,88.2322 72.5676,88.5655 71.5,89.5C 68.8806,89.7683 66.3806,89.435 64,88.5C 63,89.1667 62,89.8333 61,90.5C 60.5838,88.4497 59.4171,87.1164 57.5,86.5C 55.6675,85.7515 54.0009,84.7515 52.5,83.5C 48.7929,81.3115 45.4595,78.6448 42.5,75.5C 40.6445,71.7937 38.1445,68.4603 35,65.5C 34.3333,64.8333 34.3333,64.1667 35,63.5C 37.3706,66.206 40.0372,68.5394 43,70.5C 43.4828,71.448 43.6495,72.448 43.5,73.5C 47.1558,73.497 50.4891,74.497 53.5,76.5C 54.6473,76.1822 55.4806,75.5156 56,74.5C 62.4223,76.7463 69.2557,78.913 76.5,81C 78.0629,81.7589 79.0629,82.9256 79.5,84.5 Z"/></g><g><path style="opacity:1" fill="#6dc3d0" d="M 90.5,59.5 C 101.391,63.4592 112.058,67.7925 122.5,72.5C 120.167,72.5 117.833,72.5 115.5,72.5C 115.5,73.5 115.5,74.5 115.5,75.5C 119.059,75.4081 122.392,76.2415 125.5,78C 125.167,78.3333 124.833,78.6667 124.5,79C 126.615,79.5573 128.615,80.3906 130.5,81.5C 131.675,80.1451 132.675,80.3117 133.5,82C 131.527,82.4955 129.527,82.6621 127.5,82.5C 127.215,84.288 127.548,85.9547 128.5,87.5C 129.293,87.0688 130.127,86.7355 131,86.5C 132.694,88.4292 134.861,89.4292 137.5,89.5C 137.84,92.1441 137.173,94.4775 135.5,96.5C 136.025,97.1924 136.692,97.6924 137.5,98C 135.5,98.3333 133.5,98.6667 131.5,99C 133.708,99.1909 135.708,99.6909 137.5,100.5C 135.227,100.399 133.061,100.733 131,101.5C 130.612,100.572 129.945,99.9054 129,99.5C 129.058,100.98 127.891,101.813 125.5,102C 126.056,102.383 126.389,102.883 126.5,103.5C 124.002,102.088 121.336,100.921 118.5,100C 119.833,99.3333 119.833,98.6667 118.5,98C 120.246,97.5291 121.913,96.8624 123.5,96C 122.141,94.7955 121.141,93.2955 120.5,91.5C 117.784,89.4749 115.284,89.4749 113,91.5C 110.943,89.7663 110.443,87.7663 111.5,85.5C 110.395,84.1076 109.061,82.941 107.5,82C 108.727,80.4126 108.394,79.0793 106.5,78C 107.905,76.7308 109.571,76.2308 111.5,76.5C 111.5,75.5 111.5,74.5 111.5,73.5C 107.503,75.5011 104.503,74.5011 102.5,70.5C 103.04,69.2519 103.707,68.0852 104.5,67C 101.469,66.5046 98.4686,66.6713 95.5,67.5C 94.8333,71.5 94.1667,71.5 93.5,67.5C 88.5325,67.1341 88.8658,66.6341 94.5,66C 92.2115,65.1779 89.8782,64.5112 87.5,64C 88.646,63.3551 89.646,62.5217 90.5,61.5C 91.7678,62.4279 93.1011,62.5946 94.5,62C 92.9336,61.3918 91.6002,60.5585 90.5,59.5 Z"/></g><g><path style="opacity:1" fill="#bef8f6" d="M 52.5,83.5 C 54.0009,84.7515 55.6675,85.7515 57.5,86.5C 57.5,86.8333 57.5,87.1667 57.5,87.5C 54.9369,86.9117 52.6036,85.9117 50.5,84.5C 51.4916,84.6716 52.1583,84.3382 52.5,83.5 Z"/></g><g><path style="opacity:1" fill="#68c7c6" d="M 77.5,66.5 C 77.0472,67.4584 76.3805,68.2917 75.5,69C 75.8333,69.3333 76.1667,69.6667 76.5,70C 82.3679,71.2412 88.3679,71.9079 94.5,72C 96.0139,73.439 96.3473,74.939 95.5,76.5C 96.7287,77.2811 98.062,77.7811 99.5,78C 97.3362,78.3704 95.3362,79.2038 93.5,80.5C 95.7092,81.063 97.2092,82.3964 98,84.5C 99.892,83.87 101.559,82.87 103,81.5C 103.5,83.3333 104.667,84.5 106.5,85C 106.043,85.414 105.709,85.914 105.5,86.5C 106.5,87.3333 107.5,88.1667 108.5,89C 107.795,90.5565 108.461,91.7232 110.5,92.5C 111.452,94.0453 111.785,95.712 111.5,97.5C 109.5,96.8333 107.5,96.1667 105.5,95.5C 101.817,93.6591 98.4835,91.3258 95.5,88.5C 92.0308,85.2594 88.0308,82.7594 83.5,81C 82.3816,79.9264 81.3816,78.7598 80.5,77.5C 73.6794,74.9939 68.0127,70.9939 63.5,65.5C 63.5,64.1667 63.5,62.8333 63.5,61.5C 64.8333,61.5 66.1667,61.5 67.5,61.5C 68.1286,67.148 70.7953,68.4813 75.5,65.5C 76.4164,65.5427 77.0831,65.8761 77.5,66.5 Z"/></g><g><path style="opacity:1" fill="#9abbdd" d="M 258.5,107.5 C 252.491,107.989 246.658,107.323 241,105.5C 239.279,106.895 237.279,107.561 235,107.5C 230.749,106.743 226.916,105.41 223.5,103.5C 226.835,104.339 230.168,104.839 233.5,105C 224.214,91.5483 211.881,82.0483 196.5,76.5C 197.5,76.1667 198.5,75.8333 199.5,75.5C 216.074,79.7899 229.741,88.6232 240.5,102C 246.17,105.394 252.17,107.227 258.5,107.5 Z"/></g><g><path style="opacity:1" fill="#95b4d8" d="M 250.5,87.5 C 252.745,87.5412 253.412,88.3745 252.5,90C 247.5,90.3333 242.5,90.6667 237.5,91C 238.737,91.2321 239.737,91.7321 240.5,92.5C 237.15,92.4944 234.15,91.4944 231.5,89.5C 236.647,88.4359 241.814,88.4359 247,89.5C 248.5,89.3333 250,89.1667 251.5,89C 250.944,88.6174 250.611,88.1174 250.5,87.5 Z"/></g><g><path style="opacity:1" fill="#799fdc" d="M 218.5,67.5 C 245.433,74.7901 268.433,88.4567 287.5,108.5C 287.047,109.458 286.381,110.292 285.5,111C 286.766,111.309 287.933,111.809 289,112.5C 289.498,115.482 289.665,118.482 289.5,121.5C 288.318,118.991 286.318,117.657 283.5,117.5C 283.414,116.504 283.748,115.671 284.5,115C 276.126,111.932 267.46,110.766 258.5,111.5C 257.737,110.732 256.737,110.232 255.5,110C 262.158,109.5 268.825,109.334 275.5,109.5C 275.912,107.027 274.912,105.694 272.5,105.5C 271.5,104.167 270.5,102.833 269.5,101.5C 268.089,99.086 266.089,97.4194 263.5,96.5C 255.837,94.5883 248.17,93.255 240.5,92.5C 239.737,91.7321 238.737,91.2321 237.5,91C 242.5,90.6667 247.5,90.3333 252.5,90C 253.412,88.3745 252.745,87.5412 250.5,87.5C 239.833,81.3322 228.833,75.9988 217.5,71.5C 213.264,69.0269 213.597,67.6935 218.5,67.5 Z"/></g><g><path style="opacity:1" fill="#72c2d6" d="M 122.5,72.5 C 130.776,74.9801 138.776,77.9801 146.5,81.5C 143.447,81.3185 140.447,81.1519 137.5,81C 136.289,82.1131 136.289,83.2798 137.5,84.5C 142.554,84.7904 147.22,86.1237 151.5,88.5C 152.711,89.7202 152.711,90.8869 151.5,92C 152.91,92.3678 153.91,93.2011 154.5,94.5C 152.957,98.9289 154.624,100.596 159.5,99.5C 159.157,101.483 159.824,102.817 161.5,103.5C 160.665,104.943 159.332,105.943 157.5,106.5C 160.344,108.704 162.344,111.037 163.5,113.5C 161.305,114.608 159.305,114.441 157.5,113C 157.833,112.667 158.167,112.333 158.5,112C 156.321,111.558 155.655,110.558 156.5,109C 154.833,108.667 153.167,108.333 151.5,108C 149.301,106.303 146.968,104.803 144.5,103.5C 143.571,102.311 143.238,100.978 143.5,99.5C 141.379,99.3253 139.379,99.6586 137.5,100.5C 135.708,99.6909 133.708,99.1909 131.5,99C 133.5,98.6667 135.5,98.3333 137.5,98C 136.692,97.6924 136.025,97.1924 135.5,96.5C 137.173,94.4775 137.84,92.1441 137.5,89.5C 134.861,89.4292 132.694,88.4292 131,86.5C 130.127,86.7355 129.293,87.0688 128.5,87.5C 127.548,85.9547 127.215,84.288 127.5,82.5C 129.527,82.6621 131.527,82.4955 133.5,82C 132.675,80.3117 131.675,80.1451 130.5,81.5C 128.615,80.3906 126.615,79.5573 124.5,79C 124.833,78.6667 125.167,78.3333 125.5,78C 122.392,76.2415 119.059,75.4081 115.5,75.5C 115.5,74.5 115.5,73.5 115.5,72.5C 117.833,72.5 120.167,72.5 122.5,72.5 Z"/></g><g><path style="opacity:0.98" fill="#a2c0e0" d="M 263.5,96.5 C 266.089,97.4194 268.089,99.086 269.5,101.5C 266.911,100.581 264.911,98.914 263.5,96.5 Z"/></g><g><path style="opacity:1" fill="#4bc6ac" d="M 50.5,84.5 C 52.6036,85.9117 54.9369,86.9117 57.5,87.5C 56.8742,91.3754 58.5408,93.2087 62.5,93C 63.1667,94 63.8333,95 64.5,96C 66.3126,95.9536 67.9793,96.1203 69.5,96.5C 67.0776,98.2855 67.0776,99.9522 69.5,101.5C 67.2612,102.666 67.2612,103.999 69.5,105.5C 69.5,105.833 69.5,106.167 69.5,106.5C 65.1104,105.809 60.7771,105.309 56.5,105C 57.1667,104.667 57.8333,104.333 58.5,104C 56.7756,103.552 56.109,102.718 56.5,101.5C 55.7492,102.376 55.2492,103.376 55,104.5C 54.2972,102.22 53.1306,100.22 51.5,98.5C 53.0396,97.4679 53.5396,96.1346 53,94.5C 49.7351,93.8268 46.9017,92.3268 44.5,90C 45.7414,88.5135 45.2414,87.6801 43,87.5C 41.2894,87.4393 39.956,88.1059 39,89.5C 37.1644,87.3956 34.9977,87.0623 32.5,88.5C 34.2003,91.0387 35.7003,93.7053 37,96.5C 37.3333,96.1667 37.6667,95.8333 38,95.5C 39.312,99.4573 41.1453,103.124 43.5,106.5C 35.7569,98.0342 29.7569,88.3675 25.5,77.5C 25.8333,76.8333 26.1667,76.1667 26.5,75.5C 34.5286,78.5084 42.5286,81.5084 50.5,84.5 Z"/></g><g><path style="opacity:1" fill="#4bc8ba" d="M 57.5,86.5 C 59.4171,87.1164 60.5838,88.4497 61,90.5C 62,89.8333 63,89.1667 64,88.5C 66.3806,89.435 68.8806,89.7683 71.5,89.5C 74.8499,89.335 78.1832,89.5017 81.5,90C 82.1667,91 82.8333,92 83.5,93C 85.3839,93.2163 87.0506,93.883 88.5,95C 87.9781,95.5613 87.6448,96.228 87.5,97C 91.2611,100.907 95.9277,102.907 101.5,103C 101.833,103.333 102.167,103.667 102.5,104C 99.8554,105.287 98.8554,107.453 99.5,110.5C 99.44,111.043 99.1067,111.376 98.5,111.5C 97.1502,110.05 95.4835,109.383 93.5,109.5C 91.5,109.5 89.5,109.5 87.5,109.5C 87.6399,107.876 86.9733,106.71 85.5,106C 80.1771,105.501 74.8437,105.334 69.5,105.5C 67.2612,103.999 67.2612,102.666 69.5,101.5C 67.0776,99.9522 67.0776,98.2855 69.5,96.5C 67.9793,96.1203 66.3126,95.9536 64.5,96C 63.8333,95 63.1667,94 62.5,93C 58.5408,93.2087 56.8742,91.3754 57.5,87.5C 57.5,87.1667 57.5,86.8333 57.5,86.5 Z"/></g><g><path style="opacity:1" fill="#76bddc" d="M 146.5,81.5 C 156.338,84.0931 165.671,87.7597 174.5,92.5C 174.897,94.6621 176.231,95.9954 178.5,96.5C 177.109,98.9358 177.609,99.6025 180,98.5C 185.767,100.135 190.934,102.969 195.5,107C 200.683,112.603 205.517,118.436 210,124.5C 211.122,126.407 211.955,128.407 212.5,130.5C 210.183,131.534 209.183,130.534 209.5,127.5C 206.715,127.067 204.381,125.734 202.5,123.5C 201.201,124.09 200.368,125.09 200,126.5C 199.492,124.096 198.325,123.429 196.5,124.5C 193.014,122.613 190.014,120.113 187.5,117C 185.167,115.833 182.833,114.667 180.5,113.5C 179.719,112.271 179.219,110.938 179,109.5C 178.311,110.357 177.478,111.023 176.5,111.5C 171.752,109.087 168.418,105.42 166.5,100.5C 165.06,101.952 163.394,102.952 161.5,103.5C 159.824,102.817 159.157,101.483 159.5,99.5C 154.624,100.596 152.957,98.9289 154.5,94.5C 153.91,93.2011 152.91,92.3678 151.5,92C 152.711,90.8869 152.711,89.7202 151.5,88.5C 147.22,86.1237 142.554,84.7904 137.5,84.5C 136.289,83.2798 136.289,82.1131 137.5,81C 140.447,81.1519 143.447,81.3185 146.5,81.5 Z"/></g><g><path style="opacity:1" fill="#48c4bf" d="M 79.5,84.5 C 81.3173,85.2192 81.9839,86.2192 81.5,87.5C 83.5,87.1667 85.5,86.8333 87.5,86.5C 90.4628,88.4606 93.1294,90.794 95.5,93.5C 96.1667,93.1667 96.8333,92.8333 97.5,92.5C 99.9793,94.0761 102.646,95.0761 105.5,95.5C 107.5,96.1667 109.5,96.8333 111.5,97.5C 114.304,99.4046 117.304,101.071 120.5,102.5C 117.97,103.776 115.303,103.776 112.5,102.5C 111.614,103.325 111.281,104.325 111.5,105.5C 113.869,105.149 116.203,104.982 118.5,105C 115.536,105.84 115.203,106.84 117.5,108C 115.109,108.691 115.109,109.691 117.5,111C 116.027,111.71 115.36,112.876 115.5,114.5C 111.74,113.997 107.74,112.997 103.5,111.5C 102.167,111.167 100.833,110.833 99.5,110.5C 98.8554,107.453 99.8554,105.287 102.5,104C 102.167,103.667 101.833,103.333 101.5,103C 95.9277,102.907 91.2611,100.907 87.5,97C 87.6448,96.228 87.9781,95.5613 88.5,95C 87.0506,93.883 85.3839,93.2163 83.5,93C 82.8333,92 82.1667,91 81.5,90C 78.1832,89.5017 74.8499,89.335 71.5,89.5C 72.5676,88.5655 73.901,88.2322 75.5,88.5C 74.872,84.5089 76.2053,83.1755 79.5,84.5 Z"/></g><g><path style="opacity:1" fill="#54cfae" d="M 69.5,106.5 C 69.5,107.5 69.5,108.5 69.5,109.5C 66.8127,109.336 64.146,109.503 61.5,110C 65.6662,111.002 68.3329,113.502 69.5,117.5C 70.5624,118.575 70.5624,119.575 69.5,120.5C 67.9579,119.253 66.4579,119.253 65,120.5C 62.8913,119.965 62.3913,118.965 63.5,117.5C 62.8333,116.167 61.8333,115.167 60.5,114.5C 59.5745,115.641 58.7412,115.641 58,114.5C 57.6667,116.167 57.3333,117.833 57,119.5C 56.0816,117.624 54.5816,116.624 52.5,116.5C 48.7657,113.769 45.7657,110.436 43.5,106.5C 41.1453,103.124 39.312,99.4573 38,95.5C 37.6667,95.8333 37.3333,96.1667 37,96.5C 35.7003,93.7053 34.2003,91.0387 32.5,88.5C 34.9977,87.0623 37.1644,87.3956 39,89.5C 39.956,88.1059 41.2894,87.4393 43,87.5C 45.2414,87.6801 45.7414,88.5135 44.5,90C 46.9017,92.3268 49.7351,93.8268 53,94.5C 53.5396,96.1346 53.0396,97.4679 51.5,98.5C 53.1306,100.22 54.2972,102.22 55,104.5C 55.2492,103.376 55.7492,102.376 56.5,101.5C 56.109,102.718 56.7756,103.552 58.5,104C 57.8333,104.333 57.1667,104.667 56.5,105C 60.7771,105.309 65.1104,105.809 69.5,106.5 Z"/></g><g><path style="opacity:1" fill="#7dc4dd" d="M 212.5,130.5 C 214.833,133.833 217.167,137.167 219.5,140.5C 219.539,142.359 218.706,143.692 217,144.5C 214.76,141.025 212.76,137.358 211,133.5C 209.092,136.072 209.259,138.572 211.5,141C 211.37,142.059 210.87,142.892 210,143.5C 209.781,142.062 209.281,140.729 208.5,139.5C 207.914,139.709 207.414,140.043 207,140.5C 205.685,138.684 204.185,137.017 202.5,135.5C 201.304,135.846 201.304,136.346 202.5,137C 198.846,138.297 196.179,137.297 194.5,134C 194.833,133.667 195.167,133.333 195.5,133C 194.207,132.51 192.873,132.343 191.5,132.5C 191.762,131.022 191.429,129.689 190.5,128.5C 187.716,127.608 185.05,126.442 182.5,125C 183.406,123.301 183.739,121.467 183.5,119.5C 181.046,119.679 178.879,119.013 177,117.5C 176.5,117.833 176,118.167 175.5,118.5C 176.833,119.5 176.833,120.5 175.5,121.5C 173.922,122.072 172.422,122.406 171,122.5C 170.626,121.584 170.126,120.75 169.5,120C 170.851,118.383 172.518,117.216 174.5,116.5C 171.248,113.439 167.581,112.439 163.5,113.5C 162.344,111.037 160.344,108.704 157.5,106.5C 159.332,105.943 160.665,104.943 161.5,103.5C 163.394,102.952 165.06,101.952 166.5,100.5C 168.418,105.42 171.752,109.087 176.5,111.5C 177.478,111.023 178.311,110.357 179,109.5C 179.219,110.938 179.719,112.271 180.5,113.5C 182.833,114.667 185.167,115.833 187.5,117C 190.014,120.113 193.014,122.613 196.5,124.5C 198.325,123.429 199.492,124.096 200,126.5C 200.368,125.09 201.201,124.09 202.5,123.5C 204.381,125.734 206.715,127.067 209.5,127.5C 209.183,130.534 210.183,131.534 212.5,130.5 Z"/></g><g><path style="opacity:1" fill="#83b7cf" d="M 174.5,92.5 C 190.493,98.9866 202.993,109.653 212,124.5C 215.113,129.729 217.947,135.062 220.5,140.5C 220.167,140.5 219.833,140.5 219.5,140.5C 217.167,137.167 214.833,133.833 212.5,130.5C 211.955,128.407 211.122,126.407 210,124.5C 205.517,118.436 200.683,112.603 195.5,107C 190.934,102.969 185.767,100.135 180,98.5C 177.609,99.6025 177.109,98.9358 178.5,96.5C 176.231,95.9954 174.897,94.6621 174.5,92.5 Z"/></g><g><path style="opacity:1" fill="#89b3db" d="M 223.5,103.5 C 226.916,105.41 230.749,106.743 235,107.5C 237.279,107.561 239.279,106.895 241,105.5C 246.658,107.323 252.491,107.989 258.5,107.5C 262.514,107.666 266.514,107.499 270.5,107C 271.416,106.722 272.082,106.222 272.5,105.5C 274.912,105.694 275.912,107.027 275.5,109.5C 268.825,109.334 262.158,109.5 255.5,110C 256.737,110.232 257.737,110.732 258.5,111.5C 257.127,111.343 255.793,111.51 254.5,112C 256.708,112.191 258.708,112.691 260.5,113.5C 244.857,113.893 229.857,111.06 215.5,105C 213.208,103.71 211.208,102.043 209.5,100C 214.509,99.6634 219.175,100.83 223.5,103.5 Z"/></g><g><path style="opacity:1" fill="#58caca" d="M 120.5,102.5 C 122.637,103.942 124.97,105.109 127.5,106C 129.311,108.516 131.644,110.516 134.5,112C 134.83,115.356 136.497,117.689 139.5,119C 138.062,119.219 136.729,119.719 135.5,120.5C 136.441,120.489 137.108,120.989 137.5,122C 136.571,123.077 135.904,124.244 135.5,125.5C 131.743,125.714 131.076,124.714 133.5,122.5C 130.968,121.881 128.635,120.881 126.5,119.5C 125.554,119.987 124.554,120.32 123.5,120.5C 121.294,117.917 118.627,115.917 115.5,114.5C 115.36,112.876 116.027,111.71 117.5,111C 115.109,109.691 115.109,108.691 117.5,108C 115.203,106.84 115.536,105.84 118.5,105C 116.203,104.982 113.869,105.149 111.5,105.5C 111.281,104.325 111.614,103.325 112.5,102.5C 115.303,103.776 117.97,103.776 120.5,102.5 Z"/></g><g><path style="opacity:1" fill="#6da0d1" d="M 258.5,111.5 C 267.46,110.766 276.126,111.932 284.5,115C 283.748,115.671 283.414,116.504 283.5,117.5C 276.107,114.861 268.441,113.528 260.5,113.5C 258.708,112.691 256.708,112.191 254.5,112C 255.793,111.51 257.127,111.343 258.5,111.5 Z"/></g><g><path style="opacity:1" fill="#5ed2bc" d="M 69.5,105.5 C 74.8437,105.334 80.1771,105.501 85.5,106C 86.9733,106.71 87.6399,107.876 87.5,109.5C 89.5,109.5 91.5,109.5 93.5,109.5C 93.6495,110.552 93.4828,111.552 93,112.5C 91.8173,111.269 90.6507,111.269 89.5,112.5C 90.6853,113.853 92.0186,115.02 93.5,116C 90.8981,117.14 88.2314,117.973 85.5,118.5C 86.1667,120.5 86.8333,122.5 87.5,124.5C 83.2998,124.06 79.9664,122.227 77.5,119C 74.7934,118.605 72.1267,118.105 69.5,117.5C 68.3329,113.502 65.6662,111.002 61.5,110C 64.146,109.503 66.8127,109.336 69.5,109.5C 69.5,108.5 69.5,107.5 69.5,106.5C 69.5,106.167 69.5,105.833 69.5,105.5 Z"/></g><g><path style="opacity:1" fill="#65c8ce" d="M 84.5,59.5 C 86.5,59.5 88.5,59.5 90.5,59.5C 91.6002,60.5585 92.9336,61.3918 94.5,62C 93.1011,62.5946 91.7678,62.4279 90.5,61.5C 89.646,62.5217 88.646,63.3551 87.5,64C 89.8782,64.5112 92.2115,65.1779 94.5,66C 88.8658,66.6341 88.5325,67.1341 93.5,67.5C 94.1667,71.5 94.8333,71.5 95.5,67.5C 98.4686,66.6713 101.469,66.5046 104.5,67C 103.707,68.0852 103.04,69.2519 102.5,70.5C 104.503,74.5011 107.503,75.5011 111.5,73.5C 111.5,74.5 111.5,75.5 111.5,76.5C 109.571,76.2308 107.905,76.7308 106.5,78C 108.394,79.0793 108.727,80.4126 107.5,82C 109.061,82.941 110.395,84.1076 111.5,85.5C 110.443,87.7663 110.943,89.7663 113,91.5C 115.284,89.4749 117.784,89.4749 120.5,91.5C 121.141,93.2955 122.141,94.7955 123.5,96C 121.913,96.8624 120.246,97.5291 118.5,98C 119.833,98.6667 119.833,99.3333 118.5,100C 121.336,100.921 124.002,102.088 126.5,103.5C 129.954,105.617 133.62,107.283 137.5,108.5C 137.281,109.675 137.614,110.675 138.5,111.5C 147.414,116.026 156.414,120.359 165.5,124.5C 166.853,125.524 167.52,126.857 167.5,128.5C 168.552,128.351 169.552,128.517 170.5,129C 170.167,129.333 169.833,129.667 169.5,130C 170.623,131.044 171.956,131.71 173.5,132C 171.354,133.358 169.354,133.858 167.5,133.5C 166.167,133.5 164.833,133.5 163.5,133.5C 163.67,132.178 163.337,131.011 162.5,130C 160.26,129.023 157.927,128.523 155.5,128.5C 153.782,127.776 151.948,127.109 150,126.5C 146.482,126.257 143.149,126.59 140,127.5C 138.67,126.418 137.17,125.751 135.5,125.5C 135.904,124.244 136.571,123.077 137.5,122C 137.108,120.989 136.441,120.489 135.5,120.5C 136.729,119.719 138.062,119.219 139.5,119C 136.497,117.689 134.83,115.356 134.5,112C 131.644,110.516 129.311,108.516 127.5,106C 124.97,105.109 122.637,103.942 120.5,102.5C 117.304,101.071 114.304,99.4046 111.5,97.5C 111.785,95.712 111.452,94.0453 110.5,92.5C 108.461,91.7232 107.795,90.5565 108.5,89C 107.5,88.1667 106.5,87.3333 105.5,86.5C 105.709,85.914 106.043,85.414 106.5,85C 104.667,84.5 103.5,83.3333 103,81.5C 101.559,82.87 99.892,83.87 98,84.5C 97.2092,82.3964 95.7092,81.063 93.5,80.5C 95.3362,79.2038 97.3362,78.3704 99.5,78C 98.062,77.7811 96.7287,77.2811 95.5,76.5C 96.3473,74.939 96.0139,73.439 94.5,72C 88.3679,71.9079 82.3679,71.2412 76.5,70C 76.1667,69.6667 75.8333,69.3333 75.5,69C 76.3805,68.2917 77.0472,67.4584 77.5,66.5C 80.0182,65.4891 80.0182,64.1557 77.5,62.5C 79.9389,61.5927 82.2722,60.5927 84.5,59.5 Z"/></g><g><path style="opacity:1" fill="#6dd3cf" d="M 103.5,111.5 C 107.74,112.997 111.74,113.997 115.5,114.5C 118.627,115.917 121.294,117.917 123.5,120.5C 124.554,120.32 125.554,119.987 126.5,119.5C 128.635,120.881 130.968,121.881 133.5,122.5C 131.076,124.714 131.743,125.714 135.5,125.5C 137.17,125.751 138.67,126.418 140,127.5C 143.149,126.59 146.482,126.257 150,126.5C 151.948,127.109 153.782,127.776 155.5,128.5C 154.503,128.47 153.836,128.97 153.5,130C 153.95,131.285 154.617,132.452 155.5,133.5C 154.975,134.192 154.308,134.692 153.5,135C 154.756,135.417 155.423,136.25 155.5,137.5C 154.234,138.09 152.901,138.59 151.5,139C 157.961,141.171 157.961,142.837 151.5,144C 153.782,145.084 154.116,146.584 152.5,148.5C 149.63,147.366 146.63,146.7 143.5,146.5C 143.5,145.5 143.5,144.5 143.5,143.5C 140.673,143.416 138.006,142.75 135.5,141.5C 134.411,139.883 132.744,139.05 130.5,139C 131.38,137.644 131.714,136.144 131.5,134.5C 130.167,134.5 128.833,134.5 127.5,134.5C 127.107,128.052 124.607,127.052 120,131.5C 119.517,130.552 119.351,129.552 119.5,128.5C 117.833,128.5 116.167,128.5 114.5,128.5C 114.5,127.5 114.5,126.5 114.5,125.5C 111.402,125.587 111.068,125.087 113.5,124C 112.23,123.1 111.23,121.934 110.5,120.5C 107.849,121.789 105.516,121.289 103.5,119C 107.5,118.333 107.5,117.667 103.5,117C 106.018,115.19 106.018,113.357 103.5,111.5 Z"/></g><g><path style="opacity:1" fill="#71d9bc" d="M 69.5,117.5 C 72.1267,118.105 74.7934,118.605 77.5,119C 79.9664,122.227 83.2998,124.06 87.5,124.5C 86.3774,128.802 88.0441,130.135 92.5,128.5C 94.9994,131.571 97.9994,133.904 101.5,135.5C 100.527,136.791 99.5272,136.791 98.5,135.5C 97.3044,135.846 97.3044,136.346 98.5,137C 95.2039,138.511 91.8706,139.677 88.5,140.5C 74.771,134.978 62.771,126.978 52.5,116.5C 54.5816,116.624 56.0816,117.624 57,119.5C 57.3333,117.833 57.6667,116.167 58,114.5C 58.7412,115.641 59.5745,115.641 60.5,114.5C 61.8333,115.167 62.8333,116.167 63.5,117.5C 62.3913,118.965 62.8913,119.965 65,120.5C 66.4579,119.253 67.9579,119.253 69.5,120.5C 70.5624,119.575 70.5624,118.575 69.5,117.5 Z"/></g><g><path style="opacity:1" fill="#72d9c9" d="M 93.5,109.5 C 95.4835,109.383 97.1502,110.05 98.5,111.5C 99.1067,111.376 99.44,111.043 99.5,110.5C 100.833,110.833 102.167,111.167 103.5,111.5C 106.018,113.357 106.018,115.19 103.5,117C 107.5,117.667 107.5,118.333 103.5,119C 105.516,121.289 107.849,121.789 110.5,120.5C 111.23,121.934 112.23,123.1 113.5,124C 111.068,125.087 111.402,125.587 114.5,125.5C 114.5,126.5 114.5,127.5 114.5,128.5C 116.167,128.5 117.833,128.5 119.5,128.5C 119.351,129.552 119.517,130.552 120,131.5C 124.607,127.052 127.107,128.052 127.5,134.5C 128.833,134.5 130.167,134.5 131.5,134.5C 131.714,136.144 131.38,137.644 130.5,139C 132.744,139.05 134.411,139.883 135.5,141.5C 138.042,144.479 140.709,147.479 143.5,150.5C 147.232,152.067 150.565,154.234 153.5,157C 152.741,160.797 154.408,163.297 158.5,164.5C 159.298,166.078 159.798,167.744 160,169.5C 160.333,169.167 160.667,168.833 161,168.5C 162.067,169.191 163.234,169.691 164.5,170C 167.884,175.37 172.217,179.87 177.5,183.5C 178.192,182.975 178.692,182.308 179,181.5C 184.156,186.183 189.656,190.183 195.5,193.5C 196.625,195 197.959,196.333 199.5,197.5C 190.274,195.795 180.94,194.795 171.5,194.5C 169.393,193.532 167.059,193.198 164.5,193.5C 165.545,190.615 167.545,188.448 170.5,187C 167.513,184.956 164.346,184.456 161,185.5C 159.535,183.085 157.368,182.085 154.5,182.5C 155.6,181.442 156.934,180.608 158.5,180C 155.549,179.91 152.549,179.077 149.5,177.5C 149.833,176.5 150.5,175.833 151.5,175.5C 152.451,176.326 153.451,176.492 154.5,176C 153.366,174.984 153.699,174.317 155.5,174C 154.833,173.667 154.167,173.333 153.5,173C 155.313,173.046 156.979,172.88 158.5,172.5C 153.285,169.3 149.618,164.967 147.5,159.5C 144.827,158.485 142.327,157.152 140,155.5C 139.167,155.667 138.333,155.833 137.5,156C 138.451,156.718 138.617,157.551 138,158.5C 136.671,157.506 135.338,156.506 134,155.5C 131.025,157.484 127.858,157.484 124.5,155.5C 128.378,154.115 128.378,152.949 124.5,152C 125.728,151.221 126.728,150.221 127.5,149C 123.984,146.147 120.484,143.314 117,140.5C 114.863,142.125 113.197,141.792 112,139.5C 110.423,142.199 108.257,142.866 105.5,141.5C 104.752,139.584 104.752,137.584 105.5,135.5C 104.167,135.5 102.833,135.5 101.5,135.5C 97.9994,133.904 94.9994,131.571 92.5,128.5C 88.0441,130.135 86.3774,128.802 87.5,124.5C 86.8333,122.5 86.1667,120.5 85.5,118.5C 88.2314,117.973 90.8981,117.14 93.5,116C 92.0186,115.02 90.6853,113.853 89.5,112.5C 90.6507,111.269 91.8173,111.269 93,112.5C 93.4828,111.552 93.6495,110.552 93.5,109.5 Z"/></g><g><path style="opacity:1" fill="#6b9bc4" d="M 283.5,117.5 C 286.318,117.657 288.318,118.991 289.5,121.5C 291.432,124.366 293.099,127.366 294.5,130.5C 289.046,133.067 284.046,136.4 279.5,140.5C 278.5,141.167 277.5,141.833 276.5,142.5C 276.5,141.833 276.5,141.167 276.5,140.5C 281.201,136.472 286.201,132.805 291.5,129.5C 289.2,125.21 286.533,121.21 283.5,117.5 Z"/></g><g><path style="opacity:1" fill="#66a5dc" d="M 294.5,130.5 C 294.489,132.017 293.823,133.184 292.5,134C 294.715,135.044 297.048,135.71 299.5,136C 299.018,137.008 298.852,138.175 299,139.5C 293.31,142.638 294.144,143.972 301.5,143.5C 302.004,139.665 303.004,139.665 304.5,143.5C 305.478,143.023 306.311,142.357 307,141.5C 306.855,138.486 306.355,135.486 305.5,132.5C 308.258,135.678 310.258,139.345 311.5,143.5C 311.662,145.527 311.495,147.527 311,149.5C 310.667,149.167 310.333,148.833 310,148.5C 308.623,150.592 306.79,152.258 304.5,153.5C 303.416,152.335 302.583,151.002 302,149.5C 301.667,149.833 301.333,150.167 301,150.5C 297.362,148.253 294.196,145.42 291.5,142C 291.833,141.667 292.167,141.333 292.5,141C 288.717,138.858 285.051,139.025 281.5,141.5C 280.817,141.137 280.15,140.804 279.5,140.5C 284.046,136.4 289.046,133.067 294.5,130.5 Z"/></g><g><path style="opacity:1" fill="#65a0dc" d="M 287.5,108.5 C 294.647,115.646 300.647,123.646 305.5,132.5C 306.355,135.486 306.855,138.486 307,141.5C 306.311,142.357 305.478,143.023 304.5,143.5C 303.004,139.665 302.004,139.665 301.5,143.5C 294.144,143.972 293.31,142.638 299,139.5C 298.852,138.175 299.018,137.008 299.5,136C 297.048,135.71 294.715,135.044 292.5,134C 293.823,133.184 294.489,132.017 294.5,130.5C 293.099,127.366 291.432,124.366 289.5,121.5C 289.665,118.482 289.498,115.482 289,112.5C 287.933,111.809 286.766,111.309 285.5,111C 286.381,110.292 287.047,109.458 287.5,108.5 Z"/></g><g><path style="opacity:1" fill="#81ddc9" d="M 101.5,135.5 C 102.833,135.5 104.167,135.5 105.5,135.5C 104.752,137.584 104.752,139.584 105.5,141.5C 108.257,142.866 110.423,142.199 112,139.5C 113.197,141.792 114.863,142.125 117,140.5C 120.484,143.314 123.984,146.147 127.5,149C 126.728,150.221 125.728,151.221 124.5,152C 128.378,152.949 128.378,154.115 124.5,155.5C 127.858,157.484 131.025,157.484 134,155.5C 135.338,156.506 136.671,157.506 138,158.5C 138.617,157.551 138.451,156.718 137.5,156C 138.333,155.833 139.167,155.667 140,155.5C 142.327,157.152 144.827,158.485 147.5,159.5C 149.618,164.967 153.285,169.3 158.5,172.5C 156.979,172.88 155.313,173.046 153.5,173C 154.167,173.333 154.833,173.667 155.5,174C 153.699,174.317 153.366,174.984 154.5,176C 153.451,176.492 152.451,176.326 151.5,175.5C 150.5,175.833 149.833,176.5 149.5,177.5C 152.549,179.077 155.549,179.91 158.5,180C 156.934,180.608 155.6,181.442 154.5,182.5C 152.194,182.007 149.861,181.674 147.5,181.5C 147.111,177.275 144.778,174.775 140.5,174C 141.833,173.333 141.833,172.667 140.5,172C 136.128,171.579 131.795,170.912 127.5,170C 138.014,169.58 138.014,168.58 127.5,167C 127.833,166.667 128.167,166.333 128.5,166C 125.859,165.677 123.525,164.677 121.5,163C 122.167,162 122.833,161 123.5,160C 118.607,159.813 115.94,157.647 115.5,153.5C 114.226,155.85 112.893,155.683 111.5,153C 113.991,152.374 113.991,151.541 111.5,150.5C 109.453,149.096 107.786,149.429 106.5,151.5C 107.167,152.167 107.833,152.833 108.5,153.5C 108,153.833 107.5,154.167 107,154.5C 105.351,153.214 104.185,151.547 103.5,149.5C 100.634,148.792 97.8003,148.125 95,147.5C 94.2613,148.574 93.2613,149.241 92,149.5C 90.503,148.523 89.003,147.523 87.5,146.5C 86.8333,146.833 86.1667,147.167 85.5,147.5C 86.1925,148.518 86.8592,149.518 87.5,150.5C 84.5444,149.545 82.5444,147.545 81.5,144.5C 85.1946,143.833 88.8613,144.167 92.5,145.5C 95.9166,147.067 99.5832,147.567 103.5,147C 100.236,145.53 96.9027,144.363 93.5,143.5C 91.5659,142.89 89.8993,141.89 88.5,140.5C 91.8706,139.677 95.2039,138.511 98.5,137C 97.3044,136.346 97.3044,135.846 98.5,135.5C 99.5272,136.791 100.527,136.791 101.5,135.5 Z"/></g><g><path style="opacity:1" fill="#76cbd7" d="M 137.5,100.5 C 139.379,99.6586 141.379,99.3253 143.5,99.5C 143.238,100.978 143.571,102.311 144.5,103.5C 146.968,104.803 149.301,106.303 151.5,108C 153.167,108.333 154.833,108.667 156.5,109C 155.655,110.558 156.321,111.558 158.5,112C 158.167,112.333 157.833,112.667 157.5,113C 159.305,114.441 161.305,114.608 163.5,113.5C 164.97,116.217 165.97,118.884 166.5,121.5C 173.865,126.384 180.532,131.384 186.5,136.5C 195.018,140.897 202.018,146.897 207.5,154.5C 207.213,156.121 206.213,157.121 204.5,157.5C 203.289,156.726 203.289,155.893 204.5,155C 201.692,154.981 199.359,153.981 197.5,152C 198.5,151.667 199.5,151.333 200.5,151C 197.748,150.788 195.248,149.955 193,148.5C 190.929,149.667 189.429,149.001 188.5,146.5C 187.833,147.5 187.167,148.5 186.5,149.5C 185.157,140.969 180.324,137.303 172,138.5C 169.2,137.875 166.366,137.208 163.5,136.5C 165.332,135.943 166.665,134.943 167.5,133.5C 169.354,133.858 171.354,133.358 173.5,132C 171.956,131.71 170.623,131.044 169.5,130C 169.833,129.667 170.167,129.333 170.5,129C 169.552,128.517 168.552,128.351 167.5,128.5C 167.52,126.857 166.853,125.524 165.5,124.5C 156.414,120.359 147.414,116.026 138.5,111.5C 137.614,110.675 137.281,109.675 137.5,108.5C 133.62,107.283 129.954,105.617 126.5,103.5C 126.389,102.883 126.056,102.383 125.5,102C 127.891,101.813 129.058,100.98 129,99.5C 129.945,99.9054 130.612,100.572 131,101.5C 133.061,100.733 135.227,100.399 137.5,100.5 Z"/></g><g><path style="opacity:1" fill="#81cada" d="M 219.5,140.5 C 219.833,140.5 220.167,140.5 220.5,140.5C 222.25,141.659 223.25,143.326 223.5,145.5C 222.903,145.735 222.57,146.235 222.5,147C 224.925,150.783 225.925,154.95 225.5,159.5C 226.675,159.281 227.675,159.614 228.5,160.5C 227.503,163.155 225.836,165.155 223.5,166.5C 220.871,165.871 219.204,164.205 218.5,161.5C 214.827,159.025 211.16,156.692 207.5,154.5C 202.018,146.897 195.018,140.897 186.5,136.5C 180.532,131.384 173.865,126.384 166.5,121.5C 165.97,118.884 164.97,116.217 163.5,113.5C 167.581,112.439 171.248,113.439 174.5,116.5C 172.518,117.216 170.851,118.383 169.5,120C 170.126,120.75 170.626,121.584 171,122.5C 172.422,122.406 173.922,122.072 175.5,121.5C 176.833,120.5 176.833,119.5 175.5,118.5C 176,118.167 176.5,117.833 177,117.5C 178.879,119.013 181.046,119.679 183.5,119.5C 183.739,121.467 183.406,123.301 182.5,125C 185.05,126.442 187.716,127.608 190.5,128.5C 191.429,129.689 191.762,131.022 191.5,132.5C 192.873,132.343 194.207,132.51 195.5,133C 195.167,133.333 194.833,133.667 194.5,134C 196.179,137.297 198.846,138.297 202.5,137C 201.304,136.346 201.304,135.846 202.5,135.5C 204.185,137.017 205.685,138.684 207,140.5C 207.414,140.043 207.914,139.709 208.5,139.5C 209.281,140.729 209.781,142.062 210,143.5C 210.87,142.892 211.37,142.059 211.5,141C 209.259,138.572 209.092,136.072 211,133.5C 212.76,137.358 214.76,141.025 217,144.5C 218.706,143.692 219.539,142.359 219.5,140.5 Z"/></g><g><path style="opacity:1" fill="#caf8f1" d="M 93.5,143.5 C 96.9027,144.363 100.236,145.53 103.5,147C 99.5832,147.567 95.9166,147.067 92.5,145.5C 95.925,145.633 96.2583,144.967 93.5,143.5 Z"/></g><g><path style="opacity:1" fill="#6ab3d4" d="M 276.5,140.5 C 276.5,141.167 276.5,141.833 276.5,142.5C 276.062,142.435 275.728,142.601 275.5,143C 277.038,144.932 278.205,147.099 279,149.5C 280.333,148.833 281.667,148.167 283,147.5C 285.897,149.949 289.231,151.615 293,152.5C 293.667,151.833 294.333,151.167 295,150.5C 296.155,151.338 297.322,152.338 298.5,153.5C 298.893,155.284 299.559,156.95 300.5,158.5C 299.9,159.9 298.9,160.9 297.5,161.5C 295.167,163.498 292.5,164.832 289.5,165.5C 289.785,167.288 289.452,168.955 288.5,170.5C 284.195,167.01 279.529,164.01 274.5,161.5C 273.304,161.846 273.304,162.346 274.5,163C 271.028,163.023 269.362,161.189 269.5,157.5C 268.5,157.5 267.5,157.5 266.5,157.5C 267.642,153.068 269.975,149.235 273.5,146C 272.906,145.536 272.239,145.369 271.5,145.5C 272.833,143.5 274.5,141.833 276.5,140.5 Z"/></g><g><path style="opacity:1" fill="#67abd9" d="M 311.5,143.5 C 317.15,153.27 321.15,163.77 323.5,175C 323.392,176.681 322.725,177.848 321.5,178.5C 313.485,173.307 307.319,166.307 303,157.5C 301.693,155.808 300.193,154.475 298.5,153.5C 297.322,152.338 296.155,151.338 295,150.5C 294.333,151.167 293.667,151.833 293,152.5C 289.231,151.615 285.897,149.949 283,147.5C 281.667,148.167 280.333,148.833 279,149.5C 278.205,147.099 277.038,144.932 275.5,143C 275.728,142.601 276.062,142.435 276.5,142.5C 277.5,141.833 278.5,141.167 279.5,140.5C 280.15,140.804 280.817,141.137 281.5,141.5C 285.051,139.025 288.717,138.858 292.5,141C 292.167,141.333 291.833,141.667 291.5,142C 294.196,145.42 297.362,148.253 301,150.5C 301.333,150.167 301.667,149.833 302,149.5C 302.583,151.002 303.416,152.335 304.5,153.5C 306.79,152.258 308.623,150.592 310,148.5C 310.333,148.833 310.667,149.167 311,149.5C 311.495,147.527 311.662,145.527 311.5,143.5 Z"/></g><g><path style="opacity:1" fill="#83d8d8" d="M 155.5,137.5 C 157.5,137.5 159.5,137.5 161.5,137.5C 161.227,139.451 161.893,140.951 163.5,142C 161.998,142.583 160.665,143.416 159.5,144.5C 160.025,145.192 160.692,145.692 161.5,146C 161.167,146.333 160.833,146.667 160.5,147C 162.163,147.265 163.663,146.765 165,145.5C 166.568,147.237 168.568,148.237 171,148.5C 173.437,147.346 175.937,146.846 178.5,147C 179.376,149.376 181.042,150.876 183.5,151.5C 182.975,152.192 182.308,152.692 181.5,153C 185.424,153.25 188.758,154.75 191.5,157.5C 190.975,158.192 190.308,158.692 189.5,159C 190.774,160.221 192.274,161.054 194,161.5C 196.066,160.323 198.066,159.323 200,158.5C 200.5,159.667 201.333,160.5 202.5,161C 201.5,161.333 200.5,161.667 199.5,162C 200.973,162.71 201.64,163.876 201.5,165.5C 205.921,167.209 210.254,169.209 214.5,171.5C 215.281,172.729 215.781,174.062 216,175.5C 216.333,174.833 216.667,174.167 217,173.5C 219.164,175.48 220.664,177.813 221.5,180.5C 219.966,181.203 218.299,181.036 216.5,180C 215.687,178.197 214.52,176.697 213,175.5C 210.611,176.256 208.445,175.589 206.5,173.5C 205.386,174.723 205.219,176.056 206,177.5C 210.093,181.344 212.926,186.011 214.5,191.5C 214.167,191.5 213.833,191.5 213.5,191.5C 207.327,179.161 197.994,169.994 185.5,164C 180.927,161.546 176.261,159.379 171.5,157.5C 168.32,155.652 165.154,153.652 162,151.5C 158.654,150.935 155.487,149.935 152.5,148.5C 154.116,146.584 153.782,145.084 151.5,144C 157.961,142.837 157.961,141.171 151.5,139C 152.901,138.59 154.234,138.09 155.5,137.5 Z"/></g><g><path style="opacity:1" fill="#80d0d5" d="M 155.5,128.5 C 157.927,128.523 160.26,129.023 162.5,130C 163.337,131.011 163.67,132.178 163.5,133.5C 164.833,133.5 166.167,133.5 167.5,133.5C 166.665,134.943 165.332,135.943 163.5,136.5C 166.366,137.208 169.2,137.875 172,138.5C 180.324,137.303 185.157,140.969 186.5,149.5C 187.167,148.5 187.833,147.5 188.5,146.5C 189.429,149.001 190.929,149.667 193,148.5C 195.248,149.955 197.748,150.788 200.5,151C 199.5,151.333 198.5,151.667 197.5,152C 199.359,153.981 201.692,154.981 204.5,155C 203.289,155.893 203.289,156.726 204.5,157.5C 206.213,157.121 207.213,156.121 207.5,154.5C 211.16,156.692 214.827,159.025 218.5,161.5C 219.204,164.205 220.871,165.871 223.5,166.5C 225.146,168.812 227.146,170.812 229.5,172.5C 232.772,169.851 235.105,170.684 236.5,175C 238.88,174.478 241.213,174.645 243.5,175.5C 244.72,177.282 245.386,179.282 245.5,181.5C 247.451,181.227 248.951,181.893 250,183.5C 251.617,182.464 251.784,181.297 250.5,180C 251.448,179.517 252.448,179.351 253.5,179.5C 252.392,177.305 252.559,175.305 254,173.5C 255.128,175.345 255.628,177.345 255.5,179.5C 258.493,179.881 261.159,181.047 263.5,183C 258.869,184.161 258.703,186.327 263,189.5C 263.333,188.833 263.667,188.167 264,187.5C 265.954,190.244 268.454,192.244 271.5,193.5C 272.289,193.783 272.956,194.283 273.5,195C 271.893,196.049 271.227,197.549 271.5,199.5C 266.821,199.334 262.155,199.501 257.5,200C 258.696,200.654 258.696,201.154 257.5,201.5C 256.817,201.137 256.15,200.804 255.5,200.5C 255.5,200.167 255.5,199.833 255.5,199.5C 254.731,196.829 254.398,194.329 254.5,192C 251.595,193.313 248.595,193.813 245.5,193.5C 244.352,191.851 243.019,190.351 241.5,189C 240.551,188.383 239.718,188.549 239,189.5C 238.508,188.451 238.674,187.451 239.5,186.5C 236.628,185.217 233.795,185.217 231,186.5C 228.911,184.497 226.411,183.33 223.5,183C 222.934,182.005 222.267,181.172 221.5,180.5C 220.664,177.813 219.164,175.48 217,173.5C 216.667,174.167 216.333,174.833 216,175.5C 215.781,174.062 215.281,172.729 214.5,171.5C 210.254,169.209 205.921,167.209 201.5,165.5C 201.64,163.876 200.973,162.71 199.5,162C 200.5,161.667 201.5,161.333 202.5,161C 201.333,160.5 200.5,159.667 200,158.5C 198.066,159.323 196.066,160.323 194,161.5C 192.274,161.054 190.774,160.221 189.5,159C 190.308,158.692 190.975,158.192 191.5,157.5C 188.758,154.75 185.424,153.25 181.5,153C 182.308,152.692 182.975,152.192 183.5,151.5C 181.042,150.876 179.376,149.376 178.5,147C 175.937,146.846 173.437,147.346 171,148.5C 168.568,148.237 166.568,147.237 165,145.5C 163.663,146.765 162.163,147.265 160.5,147C 160.833,146.667 161.167,146.333 161.5,146C 160.692,145.692 160.025,145.192 159.5,144.5C 160.665,143.416 161.998,142.583 163.5,142C 161.893,140.951 161.227,139.451 161.5,137.5C 159.5,137.5 157.5,137.5 155.5,137.5C 155.423,136.25 154.756,135.417 153.5,135C 154.308,134.692 154.975,134.192 155.5,133.5C 154.617,132.452 153.95,131.285 153.5,130C 153.836,128.97 154.503,128.47 155.5,128.5 Z"/></g><g><path style="opacity:1" fill="#429fc4" d="M 298.5,153.5 C 300.193,154.475 301.693,155.808 303,157.5C 307.319,166.307 313.485,173.307 321.5,178.5C 318.762,178.149 316.096,177.482 313.5,176.5C 311.471,170.971 307.637,167.304 302,165.5C 300.775,163.118 300.275,160.785 300.5,158.5C 299.559,156.95 298.893,155.284 298.5,153.5 Z"/></g><g><path style="opacity:1" fill="#72bdd1" d="M 271.5,145.5 C 272.239,145.369 272.906,145.536 273.5,146C 269.975,149.235 267.642,153.068 266.5,157.5C 267.5,157.5 268.5,157.5 269.5,157.5C 269.362,161.189 271.028,163.023 274.5,163C 273.304,162.346 273.304,161.846 274.5,161.5C 279.529,164.01 284.195,167.01 288.5,170.5C 289.452,168.955 289.785,167.288 289.5,165.5C 292.5,164.832 295.167,163.498 297.5,161.5C 298.635,162.474 299.635,163.641 300.5,165C 299.91,167.416 299.91,169.583 300.5,171.5C 298.372,169.597 296.039,167.931 293.5,166.5C 293.167,167 292.833,167.5 292.5,168C 294.424,171.603 295.424,175.436 295.5,179.5C 293.905,181.966 292.905,185.966 292.5,191.5C 291.885,187.155 290.385,183.155 288,179.5C 287.781,180.938 287.281,182.271 286.5,183.5C 284.179,178.213 282.012,178.213 280,183.5C 279.505,181.01 278.005,179.51 275.5,179C 275.685,176.182 274.518,173.682 272,171.5C 270.215,172.24 268.382,172.907 266.5,173.5C 265.449,172.115 264.116,171.115 262.5,170.5C 261.614,171.325 261.281,172.325 261.5,173.5C 259.857,173.48 258.524,174.147 257.5,175.5C 255.889,174.68 255.222,173.346 255.5,171.5C 253.517,171.843 252.183,171.176 251.5,169.5C 252.721,168.972 253.887,168.305 255,167.5C 257.41,164.603 259.577,161.603 261.5,158.5C 264.109,153.617 267.443,149.284 271.5,145.5 Z"/></g><g><path style="opacity:1" fill="#88ccd4" d="M 223.5,145.5 C 226.721,151.601 230.221,157.601 234,163.5C 238.37,167.77 243.537,169.27 249.5,168C 253.95,165.381 257.95,162.214 261.5,158.5C 259.577,161.603 257.41,164.603 255,167.5C 253.887,168.305 252.721,168.972 251.5,169.5C 249.091,171.918 246.424,173.918 243.5,175.5C 241.213,174.645 238.88,174.478 236.5,175C 235.105,170.684 232.772,169.851 229.5,172.5C 227.146,170.812 225.146,168.812 223.5,166.5C 225.836,165.155 227.503,163.155 228.5,160.5C 227.675,159.614 226.675,159.281 225.5,159.5C 225.925,154.95 224.925,150.783 222.5,147C 222.57,146.235 222.903,145.735 223.5,145.5 Z"/></g><g><path style="opacity:1" fill="#45a6c0" d="M 300.5,158.5 C 300.275,160.785 300.775,163.118 302,165.5C 307.637,167.304 311.471,170.971 313.5,176.5C 316.096,177.482 318.762,178.149 321.5,178.5C 313.209,180.403 306.209,178.07 300.5,171.5C 299.91,169.583 299.91,167.416 300.5,165C 299.635,163.641 298.635,162.474 297.5,161.5C 298.9,160.9 299.9,159.9 300.5,158.5 Z"/></g><g><path style="opacity:1" fill="#61d4cb" d="M 135.5,141.5 C 138.006,142.75 140.673,143.416 143.5,143.5C 143.5,144.5 143.5,145.5 143.5,146.5C 146.63,146.7 149.63,147.366 152.5,148.5C 155.487,149.935 158.654,150.935 162,151.5C 165.154,153.652 168.32,155.652 171.5,157.5C 170.761,157.369 170.094,157.536 169.5,158C 175.942,160.97 181.275,164.47 185.5,168.5C 186.263,171.401 186.263,174.568 185.5,178C 187.198,182.863 190.198,186.697 194.5,189.5C 195.429,190.689 195.762,192.022 195.5,193.5C 189.656,190.183 184.156,186.183 179,181.5C 178.692,182.308 178.192,182.975 177.5,183.5C 172.217,179.87 167.884,175.37 164.5,170C 163.234,169.691 162.067,169.191 161,168.5C 160.667,168.833 160.333,169.167 160,169.5C 159.798,167.744 159.298,166.078 158.5,164.5C 154.408,163.297 152.741,160.797 153.5,157C 150.565,154.234 147.232,152.067 143.5,150.5C 140.709,147.479 138.042,144.479 135.5,141.5 Z"/></g><g><path style="opacity:1" fill="#75c6cf" d="M 251.5,169.5 C 252.183,171.176 253.517,171.843 255.5,171.5C 255.222,173.346 255.889,174.68 257.5,175.5C 258.524,174.147 259.857,173.48 261.5,173.5C 261.281,172.325 261.614,171.325 262.5,170.5C 264.116,171.115 265.449,172.115 266.5,173.5C 268.382,172.907 270.215,172.24 272,171.5C 274.518,173.682 275.685,176.182 275.5,179C 278.005,179.51 279.505,181.01 280,183.5C 282.012,178.213 284.179,178.213 286.5,183.5C 287.281,182.271 287.781,180.938 288,179.5C 290.385,183.155 291.885,187.155 292.5,191.5C 292.905,185.966 293.905,181.966 295.5,179.5C 296.309,181.292 296.809,183.292 297,185.5C 297.5,192.492 297.666,199.492 297.5,206.5C 296.732,207.263 296.232,208.263 296,209.5C 294.951,207.893 293.451,207.227 291.5,207.5C 291.915,203.625 291.415,199.958 290,196.5C 289.085,197.328 288.419,198.328 288,199.5C 286.333,197.5 284.667,195.5 283,193.5C 282.51,194.793 282.343,196.127 282.5,197.5C 281.5,197.5 280.5,197.5 279.5,197.5C 280.276,191.738 278.442,190.405 274,193.5C 273.781,192.062 273.281,190.729 272.5,189.5C 272.595,190.691 272.262,192.025 271.5,193.5C 268.454,192.244 265.954,190.244 264,187.5C 263.667,188.167 263.333,188.833 263,189.5C 258.703,186.327 258.869,184.161 263.5,183C 261.159,181.047 258.493,179.881 255.5,179.5C 255.628,177.345 255.128,175.345 254,173.5C 252.559,175.305 252.392,177.305 253.5,179.5C 252.448,179.351 251.448,179.517 250.5,180C 251.784,181.297 251.617,182.464 250,183.5C 248.951,181.893 247.451,181.227 245.5,181.5C 245.386,179.282 244.72,177.282 243.5,175.5C 246.424,173.918 249.091,171.918 251.5,169.5 Z"/></g><g><path style="opacity:1" fill="#85ddc3" d="M 154.5,182.5 C 157.368,182.085 159.535,183.085 161,185.5C 164.346,184.456 167.513,184.956 170.5,187C 167.545,188.448 165.545,190.615 164.5,193.5C 167.059,193.198 169.393,193.532 171.5,194.5C 161.56,195.777 160.226,193.277 167.5,187C 157.145,187.999 146.812,187.666 136.5,186C 129.916,184.624 124.082,181.791 119,177.5C 118.517,176.552 118.351,175.552 118.5,174.5C 122.835,174.083 127.168,173.583 131.5,173C 117.439,169.803 104.439,164.137 92.5,156C 90.6266,154.296 88.9599,152.463 87.5,150.5C 86.8592,149.518 86.1925,148.518 85.5,147.5C 86.1667,147.167 86.8333,146.833 87.5,146.5C 89.003,147.523 90.503,148.523 92,149.5C 93.2613,149.241 94.2613,148.574 95,147.5C 97.8003,148.125 100.634,148.792 103.5,149.5C 104.185,151.547 105.351,153.214 107,154.5C 107.5,154.167 108,153.833 108.5,153.5C 107.833,152.833 107.167,152.167 106.5,151.5C 107.786,149.429 109.453,149.096 111.5,150.5C 113.991,151.541 113.991,152.374 111.5,153C 112.893,155.683 114.226,155.85 115.5,153.5C 115.94,157.647 118.607,159.813 123.5,160C 122.833,161 122.167,162 121.5,163C 123.525,164.677 125.859,165.677 128.5,166C 128.167,166.333 127.833,166.667 127.5,167C 138.014,168.58 138.014,169.58 127.5,170C 131.795,170.912 136.128,171.579 140.5,172C 141.833,172.667 141.833,173.333 140.5,174C 144.778,174.775 147.111,177.275 147.5,181.5C 149.861,181.674 152.194,182.007 154.5,182.5 Z"/></g><g><path style="opacity:1" fill="#4fcac3" d="M 185.5,168.5 C 190.399,170.897 194.566,174.23 198,178.5C 198.333,178.167 198.667,177.833 199,177.5C 201.333,179.833 203.667,182.167 206,184.5C 207.194,189.416 208.861,194.416 211,199.5C 212.016,200.634 212.683,200.301 213,198.5C 213.21,200.058 213.71,201.391 214.5,202.5C 214.039,208.419 211.706,213.419 207.5,217.5C 207.217,218.289 206.717,218.956 206,219.5C 205.805,218.181 205.972,216.847 206.5,215.5C 209.19,207.546 206.856,201.546 199.5,197.5C 197.959,196.333 196.625,195 195.5,193.5C 195.762,192.022 195.429,190.689 194.5,189.5C 190.198,186.697 187.198,182.863 185.5,178C 186.263,174.568 186.263,171.401 185.5,168.5 Z"/></g><g><path style="opacity:1" fill="#89d7d1" d="M 221.5,180.5 C 222.267,181.172 222.934,182.005 223.5,183C 226.411,183.33 228.911,184.497 231,186.5C 233.795,185.217 236.628,185.217 239.5,186.5C 238.674,187.451 238.508,188.451 239,189.5C 239.718,188.549 240.551,188.383 241.5,189C 243.019,190.351 244.352,191.851 245.5,193.5C 248.595,193.813 251.595,193.313 254.5,192C 254.398,194.329 254.731,196.829 255.5,199.5C 252.723,200.892 249.057,201.726 244.5,202C 247.152,204.406 246.652,206.239 243,207.5C 238.771,205.904 238.938,204.071 243.5,202C 240.251,202.74 236.918,203.073 233.5,203C 232.426,202.261 231.759,201.261 231.5,200C 232.615,198.765 232.615,197.598 231.5,196.5C 229.257,195.526 226.924,195.192 224.5,195.5C 224.657,194.127 224.49,192.793 224,191.5C 222.47,193.226 221.47,195.226 221,197.5C 218.609,195.338 218.109,192.838 219.5,190C 218.681,188.681 217.681,187.515 216.5,186.5C 215.83,188.291 215.163,189.958 214.5,191.5C 212.926,186.011 210.093,181.344 206,177.5C 205.219,176.056 205.386,174.723 206.5,173.5C 208.445,175.589 210.611,176.256 213,175.5C 214.52,176.697 215.687,178.197 216.5,180C 218.299,181.036 219.966,181.203 221.5,180.5 Z"/></g><g><path style="opacity:1" fill="#34b8b7" d="M 171.5,157.5 C 176.261,159.379 180.927,161.546 185.5,164C 197.994,169.994 207.327,179.161 213.5,191.5C 214.038,193.117 214.371,194.784 214.5,196.5C 214.5,198.5 214.5,200.5 214.5,202.5C 213.71,201.391 213.21,200.058 213,198.5C 212.683,200.301 212.016,200.634 211,199.5C 208.861,194.416 207.194,189.416 206,184.5C 203.667,182.167 201.333,179.833 199,177.5C 198.667,177.833 198.333,178.167 198,178.5C 194.566,174.23 190.399,170.897 185.5,168.5C 181.275,164.47 175.942,160.97 169.5,158C 170.094,157.536 170.761,157.369 171.5,157.5 Z"/></g><g><path style="opacity:1" fill="#79ccca" d="M 297.5,206.5 C 296.795,209.244 296.795,211.911 297.5,214.5C 299.071,213.691 300.738,213.357 302.5,213.5C 301.5,214.167 300.5,214.833 299.5,215.5C 295.241,215.898 293.408,213.898 294,209.5C 293.667,209.833 293.333,210.167 293,210.5C 292.932,214.039 293.765,217.372 295.5,220.5C 294.167,220.5 292.833,220.5 291.5,220.5C 290.799,218.092 289.799,215.758 288.5,213.5C 286.65,214.242 285.984,215.242 286.5,216.5C 284.227,215.625 283.227,213.958 283.5,211.5C 281.473,211.662 279.473,211.495 277.5,211C 278.308,210.692 278.975,210.192 279.5,209.5C 276.352,207.206 273.018,206.54 269.5,207.5C 269.5,208.5 269.5,209.5 269.5,210.5C 268.778,210.082 268.278,209.416 268,208.5C 267.009,209.939 265.676,210.939 264,211.5C 261.973,207.001 259.14,203.335 255.5,200.5C 256.15,200.804 256.817,201.137 257.5,201.5C 258.696,201.154 258.696,200.654 257.5,200C 262.155,199.501 266.821,199.334 271.5,199.5C 271.227,197.549 271.893,196.049 273.5,195C 272.956,194.283 272.289,193.783 271.5,193.5C 272.262,192.025 272.595,190.691 272.5,189.5C 273.281,190.729 273.781,192.062 274,193.5C 278.442,190.405 280.276,191.738 279.5,197.5C 280.5,197.5 281.5,197.5 282.5,197.5C 282.343,196.127 282.51,194.793 283,193.5C 284.667,195.5 286.333,197.5 288,199.5C 288.419,198.328 289.085,197.328 290,196.5C 291.415,199.958 291.915,203.625 291.5,207.5C 293.451,207.227 294.951,207.893 296,209.5C 296.232,208.263 296.732,207.263 297.5,206.5 Z"/></g><g><path style="opacity:1" fill="#87d9cd" d="M 255.5,199.5 C 255.5,199.833 255.5,200.167 255.5,200.5C 259.14,203.335 261.973,207.001 264,211.5C 265.676,210.939 267.009,209.939 268,208.5C 268.278,209.416 268.778,210.082 269.5,210.5C 268.824,212.859 267.991,215.192 267,217.5C 264.898,219.095 263.398,221.095 262.5,223.5C 262.167,223.5 261.833,223.5 261.5,223.5C 258.447,222.546 255.614,222.546 253,223.5C 251.681,221.513 249.848,220.346 247.5,220C 245.401,218.318 244.068,216.652 243.5,215C 244.167,214 244.833,213 245.5,212C 243.333,211.167 241.833,209.667 241,207.5C 239.812,208.563 239.312,209.897 239.5,211.5C 236.167,211.5 232.833,211.5 229.5,211.5C 229.5,212.833 229.5,214.167 229.5,215.5C 226.348,216.041 223.848,215.041 222,212.5C 220.06,208.057 219.06,203.39 219,198.5C 218,199.5 217,200.5 216,201.5C 215.802,199.618 215.302,197.952 214.5,196.5C 214.371,194.784 214.038,193.117 213.5,191.5C 213.833,191.5 214.167,191.5 214.5,191.5C 215.163,189.958 215.83,188.291 216.5,186.5C 217.681,187.515 218.681,188.681 219.5,190C 218.109,192.838 218.609,195.338 221,197.5C 221.47,195.226 222.47,193.226 224,191.5C 224.49,192.793 224.657,194.127 224.5,195.5C 226.924,195.192 229.257,195.526 231.5,196.5C 232.615,197.598 232.615,198.765 231.5,200C 231.759,201.261 232.426,202.261 233.5,203C 236.918,203.073 240.251,202.74 243.5,202C 238.938,204.071 238.771,205.904 243,207.5C 246.652,206.239 247.152,204.406 244.5,202C 249.057,201.726 252.723,200.892 255.5,199.5 Z"/></g><g><path style="opacity:1" fill="#8ae0ca" d="M 214.5,196.5 C 215.302,197.952 215.802,199.618 216,201.5C 217,200.5 218,199.5 219,198.5C 219.06,203.39 220.06,208.057 222,212.5C 223.848,215.041 226.348,216.041 229.5,215.5C 229.5,214.167 229.5,212.833 229.5,211.5C 232.833,211.5 236.167,211.5 239.5,211.5C 239.312,209.897 239.812,208.563 241,207.5C 241.833,209.667 243.333,211.167 245.5,212C 244.833,213 244.167,214 243.5,215C 244.068,216.652 245.401,218.318 247.5,220C 249.848,220.346 251.681,221.513 253,223.5C 255.614,222.546 258.447,222.546 261.5,223.5C 255.307,231.933 246.973,236.766 236.5,238C 240.041,235.135 241.708,231.635 241.5,227.5C 240.717,229.288 239.384,230.288 237.5,230.5C 232.823,232.187 228.156,233.853 223.5,235.5C 223.649,234.448 223.483,233.448 223,232.5C 222.667,232.833 222.333,233.167 222,233.5C 220.215,232.76 218.382,232.093 216.5,231.5C 216.167,230.833 215.833,230.167 215.5,229.5C 216.547,227.944 217.214,226.277 217.5,224.5C 215.571,224.769 213.905,224.269 212.5,223C 215.239,218.175 214.739,217.675 211,221.5C 210.502,219.456 209.335,218.122 207.5,217.5C 211.706,213.419 214.039,208.419 214.5,202.5C 214.5,200.5 214.5,198.5 214.5,196.5 Z"/></g><g><path style="opacity:1" fill="#2fa4b1" d="M 327.5,220.5 C 324.949,221.949 322.615,221.615 320.5,219.5C 321.313,218.186 322.313,217.019 323.5,216C 320.589,213.792 317.256,212.458 313.5,212C 314.737,211.768 315.737,211.268 316.5,210.5C 319.846,209.926 323.179,209.26 326.5,208.5C 327.491,212.445 327.824,216.445 327.5,220.5 Z"/></g><g><path style="opacity:1" fill="#95e7c9" d="M 206.5,215.5 C 205.972,216.847 205.805,218.181 206,219.5C 206.717,218.956 207.217,218.289 207.5,217.5C 209.335,218.122 210.502,219.456 211,221.5C 214.739,217.675 215.239,218.175 212.5,223C 213.905,224.269 215.571,224.769 217.5,224.5C 217.214,226.277 216.547,227.944 215.5,229.5C 215.833,230.167 216.167,230.833 216.5,231.5C 218.382,232.093 220.215,232.76 222,233.5C 222.333,233.167 222.667,232.833 223,232.5C 223.483,233.448 223.649,234.448 223.5,235.5C 228.156,233.853 232.823,232.187 237.5,230.5C 236.306,231.272 235.306,232.272 234.5,233.5C 228.018,236.242 221.685,239.242 215.5,242.5C 204.627,245.46 194.294,249.794 184.5,255.5C 183.07,255.421 181.736,255.754 180.5,256.5C 180.167,255.833 179.833,255.167 179.5,254.5C 180.868,251.648 182.534,248.982 184.5,246.5C 185.675,247.855 186.675,247.688 187.5,246C 191.888,245.976 195.888,244.809 199.5,242.5C 196.679,241.029 194.179,241.363 192,243.5C 189.111,240.294 186.611,240.294 184.5,243.5C 182.894,240.129 180.228,238.796 176.5,239.5C 173.549,240.09 170.715,240.09 168,239.5C 163.677,242.428 159.844,241.761 156.5,237.5C 154.858,241.121 152.858,244.454 150.5,247.5C 150.167,247.5 149.833,247.5 149.5,247.5C 151.352,240.795 154.519,234.795 159,229.5C 158.549,225.888 158.049,222.221 157.5,218.5C 162.348,218.672 167.015,219.672 171.5,221.5C 173.958,223.713 176.958,224.879 180.5,225C 187.499,225.228 194.499,225.061 201.5,224.5C 201.433,223.041 201.766,221.708 202.5,220.5C 203.604,218.611 204.937,216.945 206.5,215.5 Z"/></g><g><path style="opacity:0.878" fill="#b2e6d6" d="M 202.5,220.5 C 201.766,221.708 201.433,223.041 201.5,224.5C 194.499,225.061 187.499,225.228 180.5,225C 176.958,224.879 173.958,223.713 171.5,221.5C 182.049,224.484 192.382,224.151 202.5,220.5 Z"/></g><g><path style="opacity:1" fill="#6ed0c2" d="M 299.5,215.5 C 299.5,216.833 299.5,218.167 299.5,219.5C 300.833,219.5 302.167,219.5 303.5,219.5C 303.5,221.5 303.5,223.5 303.5,225.5C 304.833,225.5 306.167,225.5 307.5,225.5C 307.5,226.5 307.5,227.5 307.5,228.5C 301.079,233.538 293.745,236.705 285.5,238C 282.669,240.001 280.003,242.167 277.5,244.5C 277.5,242.833 277.5,241.167 277.5,239.5C 280.804,238.672 283.804,237.172 286.5,235C 280.195,232.655 276.195,234.821 274.5,241.5C 271.98,240.768 269.646,239.602 267.5,238C 270.452,236.455 273.119,234.621 275.5,232.5C 273.604,231.534 271.604,231.201 269.5,231.5C 269.502,229.169 268.669,227.169 267,225.5C 266.667,226.167 266.333,226.833 266,227.5C 265.502,225.456 264.335,224.122 262.5,223.5C 263.398,221.095 264.898,219.095 267,217.5C 267.991,215.192 268.824,212.859 269.5,210.5C 269.5,209.5 269.5,208.5 269.5,207.5C 273.018,206.54 276.352,207.206 279.5,209.5C 278.975,210.192 278.308,210.692 277.5,211C 279.473,211.495 281.473,211.662 283.5,211.5C 283.227,213.958 284.227,215.625 286.5,216.5C 285.984,215.242 286.65,214.242 288.5,213.5C 289.799,215.758 290.799,218.092 291.5,220.5C 292.833,220.5 294.167,220.5 295.5,220.5C 293.765,217.372 292.932,214.039 293,210.5C 293.333,210.167 293.667,209.833 294,209.5C 293.408,213.898 295.241,215.898 299.5,215.5 Z"/></g><g><path style="opacity:0.122" fill="#d2f8f1" d="M 312.5,226.5 C 313.209,225.596 314.209,225.263 315.5,225.5C 315.5,228.167 315.5,230.833 315.5,233.5C 315.083,230.841 314.083,228.508 312.5,226.5 Z"/></g><g><path style="opacity:1" fill="#48bcb8" d="M 316.5,210.5 C 315.737,211.268 314.737,211.768 313.5,212C 317.256,212.458 320.589,213.792 323.5,216C 322.313,217.019 321.313,218.186 320.5,219.5C 322.615,221.615 324.949,221.949 327.5,220.5C 327.624,226.069 326.957,231.402 325.5,236.5C 323.952,236.821 323.285,237.821 323.5,239.5C 322.5,239.5 321.5,239.5 320.5,239.5C 320.5,238.167 320.5,236.833 320.5,235.5C 319.5,235.5 318.5,235.5 317.5,235.5C 316.833,240.833 316.167,240.833 315.5,235.5C 315.5,234.833 315.5,234.167 315.5,233.5C 315.5,230.833 315.5,228.167 315.5,225.5C 314.209,225.263 313.209,225.596 312.5,226.5C 310.95,227.441 309.284,228.107 307.5,228.5C 307.5,227.5 307.5,226.5 307.5,225.5C 306.167,225.5 304.833,225.5 303.5,225.5C 303.5,223.5 303.5,221.5 303.5,219.5C 302.167,219.5 300.833,219.5 299.5,219.5C 299.5,218.167 299.5,216.833 299.5,215.5C 300.5,214.833 301.5,214.167 302.5,213.5C 306.942,212.01 311.609,211.01 316.5,210.5 Z"/></g><g><path style="opacity:1" fill="#68d5bd" d="M 261.5,223.5 C 261.833,223.5 262.167,223.5 262.5,223.5C 264.335,224.122 265.502,225.456 266,227.5C 266.333,226.833 266.667,226.167 267,225.5C 268.669,227.169 269.502,229.169 269.5,231.5C 271.604,231.201 273.604,231.534 275.5,232.5C 273.119,234.621 270.452,236.455 267.5,238C 269.646,239.602 271.98,240.768 274.5,241.5C 276.195,234.821 280.195,232.655 286.5,235C 283.804,237.172 280.804,238.672 277.5,239.5C 277.5,241.167 277.5,242.833 277.5,244.5C 262.658,256.12 245.658,262.454 226.5,263.5C 229.558,261.868 232.891,260.701 236.5,260C 234.699,259.683 234.366,259.016 235.5,258C 239.841,257.907 244.174,257.907 248.5,258C 252.226,256.981 255.893,255.647 259.5,254C 255.835,251.833 251.835,251 247.5,251.5C 246.833,248.167 246.167,244.833 245.5,241.5C 243.738,241.357 242.071,241.691 240.5,242.5C 239.396,241.369 239.729,240.535 241.5,240C 238.377,239.794 235.377,239.127 232.5,238C 235.362,237.07 237.695,235.403 239.5,233C 237.803,232.616 236.137,232.782 234.5,233.5C 235.306,232.272 236.306,231.272 237.5,230.5C 239.384,230.288 240.717,229.288 241.5,227.5C 241.708,231.635 240.041,235.135 236.5,238C 246.973,236.766 255.307,231.933 261.5,223.5 Z"/></g><g><path style="opacity:1" fill="#5cd7b9" d="M 226.5,263.5 C 225.833,263.5 225.167,263.5 224.5,263.5C 222.5,263.5 220.5,263.5 218.5,263.5C 219.952,262.698 221.618,262.198 223.5,262C 216.922,261.115 216.922,259.948 223.5,258.5C 218.314,257.992 213.314,258.992 208.5,261.5C 207.289,260.726 207.289,259.893 208.5,259C 213.536,257.599 218.536,256.099 223.5,254.5C 220.337,253.676 218.67,251.676 218.5,248.5C 221.596,249.093 223.929,248.093 225.5,245.5C 222.146,244.485 218.812,243.485 215.5,242.5C 221.685,239.242 228.018,236.242 234.5,233.5C 236.137,232.782 237.803,232.616 239.5,233C 237.695,235.403 235.362,237.07 232.5,238C 235.377,239.127 238.377,239.794 241.5,240C 239.729,240.535 239.396,241.369 240.5,242.5C 242.071,241.691 243.738,241.357 245.5,241.5C 246.167,244.833 246.833,248.167 247.5,251.5C 251.835,251 255.835,251.833 259.5,254C 255.893,255.647 252.226,256.981 248.5,258C 244.174,257.907 239.841,257.907 235.5,258C 234.366,259.016 234.699,259.683 236.5,260C 232.891,260.701 229.558,261.868 226.5,263.5 Z"/></g><g><path style="opacity:1" fill="#53d5b4" d="M 215.5,242.5 C 218.812,243.485 222.146,244.485 225.5,245.5C 223.929,248.093 221.596,249.093 218.5,248.5C 218.67,251.676 220.337,253.676 223.5,254.5C 218.536,256.099 213.536,257.599 208.5,259C 207.289,259.893 207.289,260.726 208.5,261.5C 213.314,258.992 218.314,257.992 223.5,258.5C 216.922,259.948 216.922,261.115 223.5,262C 221.618,262.198 219.952,262.698 218.5,263.5C 212.223,263.845 206.557,265.512 201.5,268.5C 199.473,268.338 197.473,268.505 195.5,269C 190.671,271.419 185.671,273.253 180.5,274.5C 180.5,275.5 180.5,276.5 180.5,277.5C 179.71,278.401 178.71,279.068 177.5,279.5C 177.167,279.5 176.833,279.5 176.5,279.5C 175.036,277.37 173.036,276.037 170.5,275.5C 170.5,276.5 170.5,277.5 170.5,278.5C 168.227,279.432 166.061,279.765 164,279.5C 161.853,280.596 161.353,282.096 162.5,284C 162,284.167 161.5,284.333 161,284.5C 159.053,282.896 157.22,281.896 155.5,281.5C 156.651,279.227 157.651,276.894 158.5,274.5C 159.141,275.993 160.141,276.993 161.5,277.5C 167.875,268.791 175.542,261.458 184.5,255.5C 194.294,249.794 204.627,245.46 215.5,242.5 Z"/></g><g><path style="opacity:1" fill="#93e8c2" d="M 184.5,255.5 C 175.542,261.458 167.875,268.791 161.5,277.5C 160.659,272.675 160.326,268.008 160.5,263.5C 160.721,262.265 161.388,261.265 162.5,260.5C 160.659,259.77 158.825,259.103 157,258.5C 156.105,256.196 155.271,253.862 154.5,251.5C 153.476,252.853 152.143,253.52 150.5,253.5C 150.5,251.5 150.5,249.5 150.5,247.5C 152.858,244.454 154.858,241.121 156.5,237.5C 159.844,241.761 163.677,242.428 168,239.5C 170.715,240.09 173.549,240.09 176.5,239.5C 180.228,238.796 182.894,240.129 184.5,243.5C 186.611,240.294 189.111,240.294 192,243.5C 194.179,241.363 196.679,241.029 199.5,242.5C 195.888,244.809 191.888,245.976 187.5,246C 186.675,247.688 185.675,247.855 184.5,246.5C 182.534,248.982 180.868,251.648 179.5,254.5C 179.833,255.167 180.167,255.833 180.5,256.5C 181.736,255.754 183.07,255.421 184.5,255.5 Z"/></g><g><path style="opacity:1" fill="#5dc5b1" d="M 315.5,235.5 C 316.167,240.833 316.833,240.833 317.5,235.5C 318.5,235.5 319.5,235.5 320.5,235.5C 320.5,236.833 320.5,238.167 320.5,239.5C 321.5,239.5 322.5,239.5 323.5,239.5C 323.285,237.821 323.952,236.821 325.5,236.5C 323.574,252.111 318.741,266.778 311,280.5C 309.062,281.86 307.396,281.527 306,279.5C 303.556,274.092 302.89,268.426 304,262.5C 307.385,258.783 310.385,254.783 313,250.5C 313.998,245.396 314.831,240.396 315.5,235.5 Z"/></g><g><path style="opacity:1" fill="#88d6c2" d="M 218.5,263.5 C 220.5,263.5 222.5,263.5 224.5,263.5C 216.971,265.274 209.305,266.941 201.5,268.5C 206.557,265.512 212.223,263.845 218.5,263.5 Z"/></g><g><path style="opacity:1" fill="#95e2bb" d="M 149.5,247.5 C 149.833,247.5 150.167,247.5 150.5,247.5C 150.5,249.5 150.5,251.5 150.5,253.5C 152.143,253.52 153.476,252.853 154.5,251.5C 155.271,253.862 156.105,256.196 157,258.5C 158.825,259.103 160.659,259.77 162.5,260.5C 161.388,261.265 160.721,262.265 160.5,263.5C 154.87,278.104 147.204,291.437 137.5,303.5C 137.936,300.636 137.103,298.303 135,296.5C 134.092,298.439 132.592,299.439 130.5,299.5C 132.58,297.427 134.246,295.093 135.5,292.5C 137.076,289.074 138.909,285.74 141,282.5C 144,270.836 146.833,259.169 149.5,247.5 Z"/></g><g><path style="opacity:1" fill="#7bd6bd" d="M 201.5,268.5 C 194.495,271.286 187.495,274.286 180.5,277.5C 180.5,276.5 180.5,275.5 180.5,274.5C 185.671,273.253 190.671,271.419 195.5,269C 197.473,268.505 199.473,268.338 201.5,268.5 Z"/></g><g><path style="opacity:1" fill="#89d8c3" d="M 176.5,279.5 C 176.833,279.5 177.167,279.5 177.5,279.5C 174.434,281.89 171.1,283.89 167.5,285.5C 168.915,283.49 170.582,281.657 172.5,280C 173.793,279.51 175.127,279.343 176.5,279.5 Z"/></g><g><path style="opacity:1" fill="#6bcdb0" d="M 167.5,285.5 C 157.892,293.771 148.559,302.438 139.5,311.5C 140.708,308.306 141.708,304.973 142.5,301.5C 145.974,303.664 146.308,302.831 143.5,299C 143.833,298.5 144.167,298 144.5,297.5C 145.519,298.687 146.686,299.687 148,300.5C 148.617,299.551 148.451,298.718 147.5,298C 149.029,296.05 150.196,293.883 151,291.5C 151.333,291.833 151.667,292.167 152,292.5C 157.383,290.557 162.55,288.224 167.5,285.5 Z"/></g><g><path style="opacity:1" fill="#4ec7a1" d="M 160.5,263.5 C 160.326,268.008 160.659,272.675 161.5,277.5C 160.141,276.993 159.141,275.993 158.5,274.5C 157.651,276.894 156.651,279.227 155.5,281.5C 157.22,281.896 159.053,282.896 161,284.5C 161.5,284.333 162,284.167 162.5,284C 161.353,282.096 161.853,280.596 164,279.5C 166.061,279.765 168.227,279.432 170.5,278.5C 170.5,277.5 170.5,276.5 170.5,275.5C 173.036,276.037 175.036,277.37 176.5,279.5C 175.127,279.343 173.793,279.51 172.5,280C 170.582,281.657 168.915,283.49 167.5,285.5C 162.55,288.224 157.383,290.557 152,292.5C 151.667,292.167 151.333,291.833 151,291.5C 150.196,293.883 149.029,296.05 147.5,298C 148.451,298.718 148.617,299.551 148,300.5C 146.686,299.687 145.519,298.687 144.5,297.5C 144.167,298 143.833,298.5 143.5,299C 146.308,302.831 145.974,303.664 142.5,301.5C 141.708,304.973 140.708,308.306 139.5,311.5C 135.83,316.842 132.164,322.175 128.5,327.5C 126.376,328.031 124.876,329.365 124,331.5C 123.51,330.207 123.343,328.873 123.5,327.5C 128.119,319.53 132.785,311.53 137.5,303.5C 147.204,291.437 154.87,278.104 160.5,263.5 Z"/></g><g><path style="opacity:1" fill="#95d3b0" d="M 135.5,292.5 C 134.246,295.093 132.58,297.427 130.5,299.5C 125.909,302.378 121.409,305.378 117,308.5C 117.14,313.948 115.973,318.948 113.5,323.5C 113.945,317.438 114.778,311.438 116,305.5C 123.441,302.533 129.941,298.199 135.5,292.5 Z"/></g><g><path style="opacity:1" fill="#7bcfa4" d="M 137.5,303.5 C 132.785,311.53 128.119,319.53 123.5,327.5C 119.028,334.685 115.194,342.352 112,350.5C 112.259,346.69 112.759,342.857 113.5,339C 113.492,337.293 113.158,335.793 112.5,334.5C 112.833,331.167 113.167,327.833 113.5,324.5C 113.5,324.167 113.5,323.833 113.5,323.5C 115.973,318.948 117.14,313.948 117,308.5C 121.409,305.378 125.909,302.378 130.5,299.5C 132.592,299.439 134.092,298.439 135,296.5C 137.103,298.303 137.936,300.636 137.5,303.5 Z"/></g><g><path style="opacity:1" fill="#7abc99" d="M 113.5,324.5 C 113.167,327.833 112.833,331.167 112.5,334.5C 112.123,336.258 111.456,337.925 110.5,339.5C 103.535,343.565 100.702,349.565 102,357.5C 104.264,360.307 106.264,363.307 108,366.5C 109.986,362.289 111.819,357.955 113.5,353.5C 114.183,353.137 114.85,352.804 115.5,352.5C 113.957,357.257 112.124,361.924 110,366.5C 109.275,367.059 108.442,367.392 107.5,367.5C 100.826,363.006 98.3264,356.673 100,348.5C 102.615,344.217 105.615,340.217 109,336.5C 110.63,332.429 112.13,328.429 113.5,324.5 Z"/></g><g><path style="opacity:1" fill="#68c093" d="M 123.5,327.5 C 123.343,328.873 123.51,330.207 124,331.5C 124.876,329.365 126.376,328.031 128.5,327.5C 123.893,335.715 119.559,344.049 115.5,352.5C 114.85,352.804 114.183,353.137 113.5,353.5C 111.819,357.955 109.986,362.289 108,366.5C 106.264,363.307 104.264,360.307 102,357.5C 100.702,349.565 103.535,343.565 110.5,339.5C 111.456,337.925 112.123,336.258 112.5,334.5C 113.158,335.793 113.492,337.293 113.5,339C 112.759,342.857 112.259,346.69 112,350.5C 115.194,342.352 119.028,334.685 123.5,327.5 Z"/></g></svg>