<?xml version="1.0" encoding="UTF-8"?>
<!DOCTYPE svg PUBLIC "-//W3C//DTD SVG 1.1//EN" "http://www.w3.org/Graphics/SVG/1.1/DTD/svg11.dtd">
<svg xmlns="http://www.w3.org/2000/svg" version="1.1" width="365px" height="377px" style="shape-rendering:geometricPrecision; text-rendering:geometricPrecision; image-rendering:optimizeQuality; fill-rule:evenodd; clip-rule:evenodd" xmlns:xlink="http://www.w3.org/1999/xlink">
<g><path style="opacity:1" fill="#1d6a78" d="M 5.5,10.5 C 9.96776,19.6369 15.6344,27.9703 22.5,35.5C 22.5654,35.9382 22.3988,36.2716 22,36.5C 21,35.5 20,34.5 19,33.5C 18.2588,34.6405 17.4255,34.6405 16.5,33.5C 13.8032,30.0578 11.1366,26.7244 8.5,23.5C 6.8012,20.0796 5.46787,16.4129 4.5,12.5C 4.54272,11.5836 4.87605,10.9169 5.5,10.5 Z"/></g>
<g><path style="opacity:1" fill="#268388" d="M 8.5,23.5 C 11.1366,26.7244 13.8032,30.0578 16.5,33.5C 17.4255,34.6405 18.2588,34.6405 19,33.5C 20,34.5 21,35.5 22,36.5C 22.3988,36.2716 22.5654,35.9382 22.5,35.5C 27.5,39.8333 32.1667,44.5 36.5,49.5C 33.2765,46.7677 29.6098,44.7677 25.5,43.5C 24.914,43.7093 24.414,44.0426 24,44.5C 21.697,37.511 19.5303,37.1776 17.5,43.5C 13.9707,37.1054 10.9707,30.4387 8.5,23.5 Z"/></g>
<g><path style="opacity:1" fill="#7acecc" d="M 5.5,10.5 C 9.04947,11.7232 12.0495,13.7232 14.5,16.5C 13.1526,15.9717 11.8193,15.805 10.5,16C 12.246,19.42 14.4126,22.5867 17,25.5C 27.0119,36.0752 37.5119,46.0752 48.5,55.5C 48.5,56.1667 48.5,56.8333 48.5,57.5C 44.228,55.2256 40.228,52.5589 36.5,49.5C 32.1667,44.5 27.5,39.8333 22.5,35.5C 15.6344,27.9703 9.96776,19.6369 5.5,10.5 Z"/></g>
<g><path style="opacity:1" fill="#53b3ae" d="M 14.5,16.5 C 24.8612,24.0107 35.5278,31.0107 46.5,37.5C 47.8146,39.1347 47.8146,40.8014 46.5,42.5C 46.9186,43.6721 47.5853,44.6721 48.5,45.5C 48.3131,44.1832 48.9798,42.8499 50.5,41.5C 52.5385,42.2768 53.2052,43.4435 52.5,45C 55.8834,43.9812 58.2168,45.3146 59.5,49C 57.4127,49.7922 55.5793,50.9588 54,52.5C 53.6667,52.1667 53.3333,51.8333 53,51.5C 52.2607,53.2205 51.4274,54.8872 50.5,56.5C 49.8165,56.1373 49.1499,55.8039 48.5,55.5C 37.5119,46.0752 27.0119,36.0752 17,25.5C 14.4126,22.5867 12.246,19.42 10.5,16C 11.8193,15.805 13.1526,15.9717 14.5,16.5 Z"/></g>
<g><path style="opacity:1" fill="#299693" d="M 36.5,49.5 C 40.228,52.5589 44.228,55.2256 48.5,57.5C 49.5,59.1667 50.8333,60.5 52.5,61.5C 51.4732,62.8478 50.1398,63.3478 48.5,63C 43.327,58.8255 38.1603,54.6588 33,50.5C 30.6921,51.6411 28.8587,53.3078 27.5,55.5C 29.0889,59.2589 31.7556,61.7589 35.5,63C 34.8333,63.3333 34.1667,63.6667 33.5,64C 36.2527,65.5164 37.9194,67.3497 38.5,69.5C 38.5,70.1667 38.5,70.8333 38.5,71.5C 30.0518,63.2785 23.0518,53.9452 17.5,43.5C 19.5303,37.1776 21.697,37.511 24,44.5C 24.414,44.0426 24.914,43.7093 25.5,43.5C 29.6098,44.7677 33.2765,46.7677 36.5,49.5 Z"/></g>
<g><path style="opacity:1" fill="#25a9a1" d="M 52.5,61.5 C 59.9921,67.0798 67.6588,72.4131 75.5,77.5C 72.0922,78.7562 68.5922,78.7562 65,77.5C 63.0403,76.7082 61.5403,75.3749 60.5,73.5C 59.3044,73.8457 59.3044,74.3457 60.5,75C 57.741,75.9774 55.741,75.144 54.5,72.5C 53.895,73.5874 54.2283,74.754 55.5,76C 52.0128,76.7573 49.3461,75.5906 47.5,72.5C 46.8076,73.0253 46.3076,73.6919 46,74.5C 43.5641,72.5327 41.0641,70.866 38.5,69.5C 37.9194,67.3497 36.2527,65.5164 33.5,64C 34.1667,63.6667 34.8333,63.3333 35.5,63C 31.7556,61.7589 29.0889,59.2589 27.5,55.5C 28.8587,53.3078 30.6921,51.6411 33,50.5C 38.1603,54.6588 43.327,58.8255 48.5,63C 50.1398,63.3478 51.4732,62.8478 52.5,61.5 Z"/></g>
<g><path style="opacity:1" fill="#5fbcbb" d="M 46.5,37.5 C 54.9983,41.5819 63.3316,45.9153 71.5,50.5C 70.5244,51.8149 69.5244,53.1482 68.5,54.5C 68.6236,55.1067 68.9569,55.44 69.5,55.5C 68.2003,56.601 67.7003,57.9343 68,59.5C 69.4095,60.7875 70.9095,61.9542 72.5,63C 72.1667,63.3333 71.8333,63.6667 71.5,64C 75.0205,64.9319 74.8538,66.0986 71,67.5C 67.8017,67.3039 65.8017,65.6372 65,62.5C 60.2175,64.5285 56.3842,63.3619 53.5,59C 51.8455,58.3923 50.1789,57.8923 48.5,57.5C 48.5,56.8333 48.5,56.1667 48.5,55.5C 49.1499,55.8039 49.8165,56.1373 50.5,56.5C 51.4274,54.8872 52.2607,53.2205 53,51.5C 53.3333,51.8333 53.6667,52.1667 54,52.5C 55.5793,50.9588 57.4127,49.7922 59.5,49C 58.2168,45.3146 55.8834,43.9812 52.5,45C 53.2052,43.4435 52.5385,42.2768 50.5,41.5C 48.9798,42.8499 48.3131,44.1832 48.5,45.5C 47.5853,44.6721 46.9186,43.6721 46.5,42.5C 47.8146,40.8014 47.8146,39.1347 46.5,37.5 Z"/></g>
<g><path style="opacity:1" fill="#65bfc5" d="M 71.5,50.5 C 86.9015,57.2054 102.235,63.8721 117.5,70.5C 113.85,70.6416 110.35,69.9749 107,68.5C 96.1982,72.1707 96.0315,74.504 106.5,75.5C 106.296,74.4706 106.796,73.4706 108,72.5C 108.667,73.8333 109.333,73.8333 110,72.5C 111.365,73.5929 111.699,74.9262 111,76.5C 110.667,76.1667 110.333,75.8333 110,75.5C 108.177,76.3117 106.344,77.3117 104.5,78.5C 102.295,78.1482 100.462,77.1482 99,75.5C 97.8552,75.6191 96.6885,75.9524 95.5,76.5C 95.5858,75.5041 95.2524,74.6708 94.5,74C 92.8659,73.5065 91.1992,73.3398 89.5,73.5C 89.5875,70.4017 89.0875,70.0684 88,72.5C 87.6667,71.8333 87.3333,71.1667 87,70.5C 84.2368,73.288 81.9034,72.9547 80,69.5C 78.1268,72.0125 76.2935,71.8458 74.5,69C 75.2529,67.513 76.0862,67.3463 77,68.5C 77.3357,66.9255 78.1691,65.5922 79.5,64.5C 78.0921,63.7568 76.7588,62.9234 75.5,62C 78.6514,62.0123 81.3181,61.0123 83.5,59C 82.3284,58.6466 81.1618,58.8132 80,59.5C 76.4699,58.0486 72.9699,56.7153 69.5,55.5C 68.9569,55.44 68.6236,55.1067 68.5,54.5C 69.5244,53.1482 70.5244,51.8149 71.5,50.5 Z"/></g>
<g><path style="opacity:1" fill="#85aad7" d="M 227.5,70.5 C 225.473,70.3379 223.473,70.5045 221.5,71C 224.208,72.0695 226.875,73.2361 229.5,74.5C 230.298,74.9569 230.631,75.6236 230.5,76.5C 214.936,71.5269 199.27,67.0269 183.5,63C 184.263,62.0565 185.263,61.5565 186.5,61.5C 194.195,62.449 201.861,63.6157 209.5,65C 215.88,65.9629 221.88,67.7962 227.5,70.5 Z"/></g>
<g><path style="opacity:1" fill="#64c7c3" d="M 69.5,55.5 C 72.9699,56.7153 76.4699,58.0486 80,59.5C 81.1618,58.8132 82.3284,58.6466 83.5,59C 81.3181,61.0123 78.6514,62.0123 75.5,62C 76.7588,62.9234 78.0921,63.7568 79.5,64.5C 78.1691,65.5922 77.3357,66.9255 77,68.5C 76.0862,67.3463 75.2529,67.513 74.5,69C 76.2935,71.8458 78.1268,72.0125 80,69.5C 81.9034,72.9547 84.2368,73.288 87,70.5C 87.3333,71.1667 87.6667,71.8333 88,72.5C 89.0875,70.0684 89.5875,70.4017 89.5,73.5C 91.1992,73.3398 92.8659,73.5065 94.5,74C 95.2524,74.6708 95.5858,75.5041 95.5,76.5C 95.6495,77.552 95.4828,78.552 95,79.5C 94.6667,79.1667 94.3333,78.8333 94,78.5C 93.2904,79.9733 92.1238,80.6399 90.5,80.5C 90.4208,81.9305 90.7542,83.2638 91.5,84.5C 93.188,85.5213 94.5213,86.8546 95.5,88.5C 88.5393,85.3533 81.8727,81.6866 75.5,77.5C 67.6588,72.4131 59.9921,67.0798 52.5,61.5C 50.8333,60.5 49.5,59.1667 48.5,57.5C 50.1789,57.8923 51.8455,58.3923 53.5,59C 56.3842,63.3619 60.2175,64.5285 65,62.5C 65.8017,65.6372 67.8017,67.3039 71,67.5C 74.8538,66.0986 75.0205,64.9319 71.5,64C 71.8333,63.6667 72.1667,63.3333 72.5,63C 70.9095,61.9542 69.4095,60.7875 68,59.5C 67.7003,57.9343 68.2003,56.601 69.5,55.5 Z"/></g>
<g><path style="opacity:1" fill="#38b9af" d="M 38.5,69.5 C 41.0641,70.866 43.5641,72.5327 46,74.5C 46.3076,73.6919 46.8076,73.0253 47.5,72.5C 49.3461,75.5906 52.0128,76.7573 55.5,76C 54.2283,74.754 53.895,73.5874 54.5,72.5C 55.741,75.144 57.741,75.9774 60.5,75C 59.3044,74.3457 59.3044,73.8457 60.5,73.5C 61.5403,75.3749 63.0403,76.7082 65,77.5C 68.5922,78.7562 72.0922,78.7562 75.5,77.5C 81.8727,81.6866 88.5393,85.3533 95.5,88.5C 98.5955,91.1948 101.929,93.5281 105.5,95.5C 103.326,95.0798 101.326,95.0798 99.5,95.5C 94.8577,93.2047 90.8577,90.2047 87.5,86.5C 86.1667,87.8333 84.8333,87.8333 83.5,86.5C 82.0815,87.0047 81.4148,88.0047 81.5,89.5C 81.189,90.4778 80.5223,91.1445 79.5,91.5C 79.1744,89.3456 78.0077,88.0123 76,87.5C 73,88.1667 70,88.8333 67,89.5C 65.513,88.7471 65.3463,87.9138 66.5,87C 65.2161,86.3162 64.0495,86.4829 63,87.5C 62.3162,86.2161 62.4829,85.0495 63.5,84C 60.594,82.6815 57.594,82.3482 54.5,83C 56.3187,83.7403 57.6521,84.9069 58.5,86.5C 56.2163,86.0248 54.2163,85.0248 52.5,83.5C 46.9448,80.617 42.2781,76.617 38.5,71.5C 38.5,70.8333 38.5,70.1667 38.5,69.5 Z"/></g>
<g><path style="opacity:1" fill="#6dbdd3" d="M 117.5,70.5 C 126.729,73.4623 135.729,76.7957 144.5,80.5C 142.167,80.5 139.833,80.5 137.5,80.5C 137.5,82.1667 137.5,83.8333 137.5,85.5C 140.898,85.1796 144.232,85.513 147.5,86.5C 146.282,86.109 145.448,86.7756 145,88.5C 144.667,88.1667 144.333,87.8333 144,87.5C 143.235,89.0657 143.402,90.3991 144.5,91.5C 143.878,92.6266 143.045,93.6266 142,94.5C 142.148,93.175 141.982,92.0084 141.5,91C 140.584,90.6258 139.75,90.1258 139,89.5C 137.601,89.5012 136.101,89.8346 134.5,90.5C 133.757,89.0921 132.923,87.7588 132,86.5C 130.183,87.9709 128.017,88.9709 125.5,89.5C 122.539,88.8169 122.205,87.9836 124.5,87C 123.167,85.6667 123.167,84.3333 124.5,83C 123.833,82.6667 123.167,82.3333 122.5,82C 123.672,81.5814 124.672,80.9147 125.5,80C 123.167,79.6667 120.833,79.3333 118.5,79C 119.517,77.9505 119.684,76.7839 119,75.5C 118.586,75.9574 118.086,76.2907 117.5,76.5C 116.5,75.1667 115.5,73.8333 114.5,72.5C 115.602,71.8243 116.602,71.1577 117.5,70.5 Z"/></g>
<g><path style="opacity:0.996" fill="#98bcda" d="M 224.5,87.5 C 223.325,87.281 222.325,87.6143 221.5,88.5C 223.605,90.5916 225.272,92.9249 226.5,95.5C 217.814,87.1534 207.814,80.8201 196.5,76.5C 199.535,75.3352 202.535,75.5019 205.5,77C 212.508,79.4989 218.841,82.9989 224.5,87.5 Z"/></g>
<g><path style="opacity:1" fill="#76b9d4" d="M 144.5,80.5 C 162.433,85.7498 179.1,93.5831 194.5,104C 199.82,108.474 204.154,113.641 207.5,119.5C 207.167,119.5 206.833,119.5 206.5,119.5C 205.571,118.064 204.405,116.731 203,115.5C 202.667,115.833 202.333,116.167 202,116.5C 200.701,112.192 198.201,108.692 194.5,106C 192.192,104.133 189.525,103.133 186.5,103C 186.833,102.667 187.167,102.333 187.5,102C 180.618,96.7159 172.618,92.5492 163.5,89.5C 162.396,90.6313 162.729,91.4646 164.5,92C 163.473,92.5133 162.473,93.0133 161.5,93.5C 158.518,93.8956 155.851,93.2289 153.5,91.5C 153.709,90.914 154.043,90.414 154.5,90C 151.177,89.068 148.177,89.568 145.5,91.5C 145.167,91.5 144.833,91.5 144.5,91.5C 143.402,90.3991 143.235,89.0657 144,87.5C 144.333,87.8333 144.667,88.1667 145,88.5C 145.448,86.7756 146.282,86.109 147.5,86.5C 144.232,85.513 140.898,85.1796 137.5,85.5C 137.5,83.8333 137.5,82.1667 137.5,80.5C 139.833,80.5 142.167,80.5 144.5,80.5 Z"/></g>
<g><path style="opacity:1" fill="#7ca4da" d="M 227.5,70.5 C 238.809,73.6558 249.143,78.6558 258.5,85.5C 256.774,85.1854 255.107,85.0187 253.5,85C 256.487,88.2075 255.82,90.0408 251.5,90.5C 251.5,90.1667 251.5,89.8333 251.5,89.5C 250.284,87.5491 248.618,86.0491 246.5,85C 240.947,82.3924 235.613,79.5591 230.5,76.5C 230.631,75.6236 230.298,74.9569 229.5,74.5C 226.875,73.2361 224.208,72.0695 221.5,71C 223.473,70.5045 225.473,70.3379 227.5,70.5 Z"/></g>
<g><path style="opacity:0.996" fill="#ace8e2" d="M 44.5,82.5 C 46.6792,83.0592 48.8458,83.7259 51,84.5C 51.7648,84.4301 52.2648,84.0967 52.5,83.5C 54.2163,85.0248 56.2163,86.0248 58.5,86.5C 58.5,87.1667 58.5,87.8333 58.5,88.5C 54.8661,86.2975 50.8661,84.9642 46.5,84.5C 45.2867,84.2528 44.62,83.5862 44.5,82.5 Z"/></g>
<g><path style="opacity:1" fill="#48c5a9" d="M 44.5,82.5 C 44.62,83.5862 45.2867,84.2528 46.5,84.5C 50.8661,84.9642 54.8661,86.2975 58.5,88.5C 58.5858,89.4959 58.2524,90.3292 57.5,91C 59.3289,91.2735 60.8289,92.1068 62,93.5C 62.3333,92.8333 62.6667,92.1667 63,91.5C 63.49,92.7932 63.6567,94.1266 63.5,95.5C 61.8561,95.2865 60.3561,95.6198 59,96.5C 57.3333,95.5 55.6667,94.5 54,93.5C 53.3333,94.8333 53.3333,96.1667 54,97.5C 56.6629,96.3239 59.3295,96.9906 62,99.5C 62.3333,98.8333 62.6667,98.1667 63,97.5C 63.6667,98.8333 64.3333,98.8333 65,97.5C 65.7504,98.1258 66.5838,98.6258 67.5,99C 66.3463,99.9138 66.513,100.747 68,101.5C 71.8504,97.7971 72.3504,98.4638 69.5,103.5C 69.8627,104.183 70.1961,104.85 70.5,105.5C 69.0502,107.986 67.8835,107.653 67,104.5C 65.1918,104.888 63.5252,104.888 62,104.5C 61.6667,105.167 61.3333,105.833 61,106.5C 58.0919,103.46 55.0919,102.46 52,103.5C 49.9596,99.554 47.9596,99.554 46,103.5C 45.2276,102.151 44.0609,101.318 42.5,101C 42.8333,100.667 43.1667,100.333 43.5,100C 42.552,99.5172 41.552,99.3505 40.5,99.5C 41.1989,101.995 42.1989,104.328 43.5,106.5C 35.7569,98.0342 29.7569,88.3675 25.5,77.5C 25.8333,76.8333 26.1667,76.1667 26.5,75.5C 32.6862,77.4492 38.6862,79.7825 44.5,82.5 Z"/></g>
<g><path style="opacity:0.996" fill="#8db2d5" d="M 251.5,89.5 C 251.5,89.8333 251.5,90.1667 251.5,90.5C 248.15,90.335 244.817,90.5017 241.5,91C 243.833,92.043 246.166,92.8763 248.5,93.5C 242.384,93.8872 236.718,92.5539 231.5,89.5C 238.141,88.7075 244.808,88.7075 251.5,89.5 Z"/></g>
<g><path style="opacity:0.753" fill="#b8dbea" d="M 229.5,91.5 C 232.833,94.1667 235.833,97.1667 238.5,100.5C 234.5,98.5 231.5,95.5 229.5,91.5 Z"/></g>
<g><path style="opacity:0.996" fill="#87aed5" d="M 269.5,101.5 C 266.337,99.1888 263.003,97.0222 259.5,95C 256.635,94.8171 253.969,94.3171 251.5,93.5C 255.225,93.4051 258.891,93.2384 262.5,93C 264.167,94.3333 265.833,95.6667 267.5,97C 267.167,97.3333 266.833,97.6667 266.5,98C 267.71,99.0391 268.71,100.206 269.5,101.5 Z"/></g>
<g><path style="opacity:1" fill="#4bc9b9" d="M 81.5,89.5 C 82.8456,92.1743 84.8456,93.1743 87.5,92.5C 88.3081,92.8076 88.9747,93.3076 89.5,94C 88.3333,94.5 87.5,95.3333 87,96.5C 81.5854,94.9029 80.5854,96.2362 84,100.5C 84.3333,99.8333 84.6667,99.1667 85,98.5C 86.0118,100.864 87.3451,102.198 89,102.5C 89.9147,101.672 90.5814,100.672 91,99.5C 91.6667,100.833 92.6667,101.833 94,102.5C 95.5827,102.507 97.2494,102.174 99,101.5C 99.6172,102.449 99.4506,103.282 98.5,104C 99.1667,104.333 99.8333,104.667 100.5,105C 99.6198,106.356 99.2865,107.856 99.5,109.5C 98.7211,111.927 97.5545,111.927 96,109.5C 95.6827,111.301 95.016,111.634 94,110.5C 93.6667,111.5 93.3333,112.5 93,113.5C 91.54,111.578 89.8733,110.911 88,111.5C 87.3164,113.479 87.8164,115.146 89.5,116.5C 89.0302,117.463 88.3635,117.463 87.5,116.5C 84.915,114.748 81.915,112.748 78.5,110.5C 76.9299,110.694 75.4299,110.694 74,110.5C 73.9115,108.887 74.7448,107.72 76.5,107C 75.5294,105.796 74.5294,105.296 73.5,105.5C 75.2759,104.685 75.9426,103.518 75.5,102C 73.4755,102.18 72.1422,103.346 71.5,105.5C 71.1667,105.5 70.8333,105.5 70.5,105.5C 70.1961,104.85 69.8627,104.183 69.5,103.5C 72.3504,98.4638 71.8504,97.7971 68,101.5C 66.513,100.747 66.3463,99.9138 67.5,99C 66.5838,98.6258 65.7504,98.1258 65,97.5C 64.3333,98.8333 63.6667,98.8333 63,97.5C 62.6667,98.1667 62.3333,98.8333 62,99.5C 59.3295,96.9906 56.6629,96.3239 54,97.5C 53.3333,96.1667 53.3333,94.8333 54,93.5C 55.6667,94.5 57.3333,95.5 59,96.5C 60.3561,95.6198 61.8561,95.2865 63.5,95.5C 63.6567,94.1266 63.49,92.7932 63,91.5C 62.6667,92.1667 62.3333,92.8333 62,93.5C 60.8289,92.1068 59.3289,91.2735 57.5,91C 58.2524,90.3292 58.5858,89.4959 58.5,88.5C 58.5,87.8333 58.5,87.1667 58.5,86.5C 57.6521,84.9069 56.3187,83.7403 54.5,83C 57.594,82.3482 60.594,82.6815 63.5,84C 62.4829,85.0495 62.3162,86.2161 63,87.5C 64.0495,86.4829 65.2161,86.3162 66.5,87C 65.3463,87.9138 65.513,88.7471 67,89.5C 70,88.8333 73,88.1667 76,87.5C 78.0077,88.0123 79.1744,89.3456 79.5,91.5C 80.5223,91.1445 81.189,90.4778 81.5,89.5 Z"/></g>
<g><path style="opacity:1" fill="#55d1b1" d="M 70.5,105.5 C 70.8333,105.5 71.1667,105.5 71.5,105.5C 71.5,107.5 71.5,109.5 71.5,111.5C 62.2015,112.97 61.5349,115.304 69.5,118.5C 69.5654,118.938 69.3988,119.272 69,119.5C 67,118.833 65,118.167 63,117.5C 62.6667,118.167 62.3333,118.833 62,119.5C 61.3162,118.216 61.4829,117.049 62.5,116C 61.9747,115.308 61.3081,114.808 60.5,114.5C 60.7948,115.826 60.2948,117.159 59,118.5C 54.3986,115.521 50.2319,112.021 46.5,108C 45.552,107.517 44.552,107.351 43.5,107.5C 43.5,107.167 43.5,106.833 43.5,106.5C 42.1989,104.328 41.1989,101.995 40.5,99.5C 41.552,99.3505 42.552,99.5172 43.5,100C 43.1667,100.333 42.8333,100.667 42.5,101C 44.0609,101.318 45.2276,102.151 46,103.5C 47.9596,99.554 49.9596,99.554 52,103.5C 55.0919,102.46 58.0919,103.46 61,106.5C 61.3333,105.833 61.6667,105.167 62,104.5C 63.5252,104.888 65.1918,104.888 67,104.5C 67.8835,107.653 69.0502,107.986 70.5,105.5 Z"/></g>
<g><path style="opacity:1" fill="#75c7d4" d="M 117.5,70.5 C 116.602,71.1577 115.602,71.8243 114.5,72.5C 115.5,73.8333 116.5,75.1667 117.5,76.5C 118.086,76.2907 118.586,75.9574 119,75.5C 119.684,76.7839 119.517,77.9505 118.5,79C 120.833,79.3333 123.167,79.6667 125.5,80C 124.672,80.9147 123.672,81.5814 122.5,82C 123.167,82.3333 123.833,82.6667 124.5,83C 123.167,84.3333 123.167,85.6667 124.5,87C 122.205,87.9836 122.539,88.8169 125.5,89.5C 128.017,88.9709 130.183,87.9709 132,86.5C 132.923,87.7588 133.757,89.0921 134.5,90.5C 136.101,89.8346 137.601,89.5012 139,89.5C 139.75,90.1258 140.584,90.6258 141.5,91C 141.982,92.0084 142.148,93.175 142,94.5C 143.045,93.6266 143.878,92.6266 144.5,91.5C 144.833,91.5 145.167,91.5 145.5,91.5C 147.022,94.0288 148.689,96.5288 150.5,99C 149.663,100.011 149.33,101.178 149.5,102.5C 147.801,102.34 146.134,102.506 144.5,103C 146.78,103.212 148.78,104.045 150.5,105.5C 151.494,101.519 152.494,101.519 153.5,105.5C 151.019,106.86 151.352,107.86 154.5,108.5C 155.086,108.291 155.586,107.957 156,107.5C 157.667,108.733 159.167,110.067 160.5,111.5C 162.658,113.093 164.658,114.926 166.5,117C 165.833,118.333 164.833,119.333 163.5,120C 166.14,120.896 168.307,122.396 170,124.5C 170.333,123.833 170.667,123.167 171,122.5C 171.465,123.931 172.299,125.097 173.5,126C 172.906,126.464 172.239,126.631 171.5,126.5C 170.883,126.611 170.383,126.944 170,127.5C 167.617,124.727 164.783,122.561 161.5,121C 156.399,118.556 151.066,116.723 145.5,115.5C 144.222,114.251 143.222,112.751 142.5,111C 141.551,110.383 140.718,110.549 140,111.5C 136.8,108.579 133.466,105.913 130,103.5C 127.353,104.464 124.853,103.964 122.5,102C 122.957,101.586 123.291,101.086 123.5,100.5C 122.833,100.167 122.167,99.8333 121.5,99.5C 122.311,98.7836 122.978,97.9503 123.5,97C 122.362,94.8626 120.862,93.0293 119,91.5C 117.984,92.6341 117.317,92.3008 117,90.5C 116.072,93.0352 114.238,94.0352 111.5,93.5C 111.771,91.1789 111.104,89.1789 109.5,87.5C 110.167,86.8333 110.833,86.1667 111.5,85.5C 109.808,83.6414 108.308,81.6414 107,79.5C 105.993,81.7416 105.159,81.4082 104.5,78.5C 106.344,77.3117 108.177,76.3117 110,75.5C 110.333,75.8333 110.667,76.1667 111,76.5C 111.699,74.9262 111.365,73.5929 110,72.5C 109.333,73.8333 108.667,73.8333 108,72.5C 106.796,73.4706 106.296,74.4706 106.5,75.5C 96.0315,74.504 96.1982,72.1707 107,68.5C 110.35,69.9749 113.85,70.6416 117.5,70.5 Z"/></g>
<g><path style="opacity:1" fill="#4ec7c3" d="M 105.5,95.5 C 114.328,99.4149 122.995,103.582 131.5,108C 132.337,109.011 132.67,110.178 132.5,111.5C 130.799,111.966 129.299,111.966 128,111.5C 127.768,112.737 127.268,113.737 126.5,114.5C 125.596,115.209 125.263,116.209 125.5,117.5C 123.738,117.643 122.071,117.309 120.5,116.5C 119.808,117.025 119.308,117.692 119,118.5C 118.145,115.885 116.812,113.552 115,111.5C 114.667,112.167 114.333,112.833 114,113.5C 113.059,111.939 111.892,110.605 110.5,109.5C 108.416,112.868 105.749,113.201 102.5,110.5C 102,109.5 101.5,108.5 101,107.5C 100.722,108.416 100.222,109.082 99.5,109.5C 99.2865,107.856 99.6198,106.356 100.5,105C 99.8333,104.667 99.1667,104.333 98.5,104C 99.4506,103.282 99.6172,102.449 99,101.5C 97.2494,102.174 95.5827,102.507 94,102.5C 92.6667,101.833 91.6667,100.833 91,99.5C 90.5814,100.672 89.9147,101.672 89,102.5C 87.3451,102.198 86.0118,100.864 85,98.5C 84.6667,99.1667 84.3333,99.8333 84,100.5C 80.5854,96.2362 81.5854,94.9029 87,96.5C 87.5,95.3333 88.3333,94.5 89.5,94C 88.9747,93.3076 88.3081,92.8076 87.5,92.5C 84.8456,93.1743 82.8456,92.1743 81.5,89.5C 81.4148,88.0047 82.0815,87.0047 83.5,86.5C 84.8333,87.8333 86.1667,87.8333 87.5,86.5C 90.8577,90.2047 94.8577,93.2047 99.5,95.5C 101.326,95.0798 103.326,95.0798 105.5,95.5 Z"/></g>
<g><path style="opacity:1" fill="#7bc3dc" d="M 161.5,93.5 C 161.389,94.1174 161.056,94.6174 160.5,95C 163.4,95.9432 165.733,97.6099 167.5,100C 166.833,100.333 166.167,100.667 165.5,101C 167.473,101.495 169.473,101.662 171.5,101.5C 171.67,102.822 171.337,103.989 170.5,105C 171.5,105.667 172.5,105.667 173.5,105C 172.304,104.346 172.304,103.846 173.5,103.5C 175.323,104.747 177.323,105.414 179.5,105.5C 179.5,106.5 179.5,107.5 179.5,108.5C 182.099,108.549 184.266,109.549 186,111.5C 186.648,107.853 185.148,105.353 181.5,104C 182,103.833 182.5,103.667 183,103.5C 186.05,105.377 188.883,107.377 191.5,109.5C 190.265,111.773 190.598,113.606 192.5,115C 191.833,117.333 191.167,119.667 190.5,122C 191.715,124.096 192.549,123.929 193,121.5C 193.333,122.5 193.667,123.5 194,124.5C 196.845,123.742 199.179,124.742 201,127.5C 200.923,126.262 201.089,125.262 201.5,124.5C 202.228,126.193 203.228,127.693 204.5,129C 203.833,129.333 203.167,129.667 202.5,130C 203.821,130.78 205.321,131.28 207,131.5C 207.5,131.333 208,131.167 208.5,131C 207.289,130.107 207.289,129.274 208.5,128.5C 210.064,131.136 211.397,130.969 212.5,128C 211.167,127.667 209.833,127.333 208.5,127C 209.022,126.439 209.355,125.772 209.5,125C 208.259,123.269 207.259,121.436 206.5,119.5C 206.833,119.5 207.167,119.5 207.5,119.5C 210.579,122.257 212.912,125.59 214.5,129.5C 213.147,131.515 213.647,133.182 216,134.5C 216.667,135.833 216.667,137.167 216,138.5C 215.259,139.641 214.425,139.641 213.5,138.5C 211.292,133.154 209.959,133.487 209.5,139.5C 207.897,139.688 206.563,139.188 205.5,138C 206.38,136.644 206.714,135.144 206.5,133.5C 203.294,134.152 199.96,133.985 196.5,133C 195.482,130.826 194.316,128.326 193,125.5C 192.667,125.167 192.333,124.833 192,124.5C 191.576,126.615 190.409,127.448 188.5,127C 187.5,126.167 186.5,125.333 185.5,124.5C 185.709,123.914 186.043,123.414 186.5,123C 184.68,122.021 183.513,120.521 183,118.5C 182.667,118.833 182.333,119.167 182,119.5C 181.492,117.096 180.325,116.429 178.5,117.5C 176.936,114.864 175.603,115.031 174.5,118C 175.694,120.658 174.694,121.824 171.5,121.5C 171.649,120.448 171.483,119.448 171,118.5C 169.853,119.458 168.853,119.125 168,117.5C 167.163,115.649 166.329,113.816 165.5,112C 163.701,110.964 162.034,110.797 160.5,111.5C 159.167,110.067 157.667,108.733 156,107.5C 155.586,107.957 155.086,108.291 154.5,108.5C 151.352,107.86 151.019,106.86 153.5,105.5C 152.494,101.519 151.494,101.519 150.5,105.5C 148.78,104.045 146.78,103.212 144.5,103C 146.134,102.506 147.801,102.34 149.5,102.5C 149.33,101.178 149.663,100.011 150.5,99C 148.689,96.5288 147.022,94.0288 145.5,91.5C 148.177,89.568 151.177,89.068 154.5,90C 154.043,90.414 153.709,90.914 153.5,91.5C 155.851,93.2289 158.518,93.8956 161.5,93.5 Z"/></g>
<g><path style="opacity:0.961" fill="#a6cbdf" d="M 272.5,104.5 C 274.466,105.255 274.8,106.421 273.5,108C 269.848,108.499 266.182,108.665 262.5,108.5C 258.818,108.665 255.152,108.499 251.5,108C 249.256,107.95 247.589,107.117 246.5,105.5C 254.438,106.993 262.438,107.493 270.5,107C 271.756,106.583 272.423,105.75 272.5,104.5 Z"/></g>
<g><path style="opacity:1" fill="#76bcdd" d="M 206.5,119.5 C 207.259,121.436 208.259,123.269 209.5,125C 209.355,125.772 209.022,126.439 208.5,127C 209.833,127.333 211.167,127.667 212.5,128C 211.397,130.969 210.064,131.136 208.5,128.5C 207.289,129.274 207.289,130.107 208.5,131C 208,131.167 207.5,131.333 207,131.5C 205.321,131.28 203.821,130.78 202.5,130C 203.167,129.667 203.833,129.333 204.5,129C 203.228,127.693 202.228,126.193 201.5,124.5C 201.089,125.262 200.923,126.262 201,127.5C 199.179,124.742 196.845,123.742 194,124.5C 193.667,123.5 193.333,122.5 193,121.5C 192.549,123.929 191.715,124.096 190.5,122C 191.167,119.667 191.833,117.333 192.5,115C 190.598,113.606 190.265,111.773 191.5,109.5C 188.883,107.377 186.05,105.377 183,103.5C 182.5,103.667 182,103.833 181.5,104C 185.148,105.353 186.648,107.853 186,111.5C 184.266,109.549 182.099,108.549 179.5,108.5C 179.5,107.5 179.5,106.5 179.5,105.5C 177.323,105.414 175.323,104.747 173.5,103.5C 172.304,103.846 172.304,104.346 173.5,105C 172.5,105.667 171.5,105.667 170.5,105C 171.337,103.989 171.67,102.822 171.5,101.5C 169.473,101.662 167.473,101.495 165.5,101C 166.167,100.667 166.833,100.333 167.5,100C 165.733,97.6099 163.4,95.9432 160.5,95C 161.056,94.6174 161.389,94.1174 161.5,93.5C 162.473,93.0133 163.473,92.5133 164.5,92C 162.729,91.4646 162.396,90.6313 163.5,89.5C 172.618,92.5492 180.618,96.7159 187.5,102C 187.167,102.333 186.833,102.667 186.5,103C 189.525,103.133 192.192,104.133 194.5,106C 198.201,108.692 200.701,112.192 202,116.5C 202.333,116.167 202.667,115.833 203,115.5C 204.405,116.731 205.571,118.064 206.5,119.5 Z"/></g>
<g><path style="opacity:0.996" fill="#8ab2d9" d="M 224.5,87.5 C 226.167,88.8333 227.833,90.1667 229.5,91.5C 231.5,95.5 234.5,98.5 238.5,100.5C 241.203,102.181 243.869,103.847 246.5,105.5C 247.589,107.117 249.256,107.95 251.5,108C 255.152,108.499 258.818,108.665 262.5,108.5C 265.305,109.319 268.305,109.819 271.5,110C 271.167,110.333 270.833,110.667 270.5,111C 265.851,110.614 260.851,110.948 255.5,112C 259.688,112.176 263.688,112.676 267.5,113.5C 250.293,114.348 233.626,111.848 217.5,106C 214.476,104.487 211.809,102.487 209.5,100C 210.5,99.8333 211.5,99.6667 212.5,99.5C 219.261,102.44 226.261,104.273 233.5,105C 231.524,101.537 229.19,98.3702 226.5,95.5C 225.272,92.9249 223.605,90.5916 221.5,88.5C 222.325,87.6143 223.325,87.281 224.5,87.5 Z"/></g>
<g><path style="opacity:0.992" fill="#9ec4db" d="M 267.5,113.5 C 270.833,113.5 274.167,113.5 277.5,113.5C 278.167,114.167 278.833,114.833 279.5,115.5C 275.336,115.044 271.336,114.378 267.5,113.5 Z"/></g>
<g><path style="opacity:1" fill="#709fdb" d="M 258.5,85.5 C 275.335,94.6658 289.002,107.332 299.5,123.5C 300.169,127.73 298.502,129.563 294.5,129C 291.412,124.157 288.079,119.491 284.5,115C 282.323,113.798 279.989,113.298 277.5,113.5C 274.167,113.5 270.833,113.5 267.5,113.5C 263.688,112.676 259.688,112.176 255.5,112C 260.851,110.948 265.851,110.614 270.5,111C 270.833,110.667 271.167,110.333 271.5,110C 268.305,109.819 265.305,109.319 262.5,108.5C 266.182,108.665 269.848,108.499 273.5,108C 274.8,106.421 274.466,105.255 272.5,104.5C 271.167,103.833 270.167,102.833 269.5,101.5C 268.71,100.206 267.71,99.0391 266.5,98C 266.833,97.6667 267.167,97.3333 267.5,97C 265.833,95.6667 264.167,94.3333 262.5,93C 258.891,93.2384 255.225,93.4051 251.5,93.5C 250.5,93.5 249.5,93.5 248.5,93.5C 246.166,92.8763 243.833,92.043 241.5,91C 244.817,90.5017 248.15,90.335 251.5,90.5C 255.82,90.0408 256.487,88.2075 253.5,85C 255.107,85.0187 256.774,85.1854 258.5,85.5 Z"/></g>
<g><path style="opacity:1" fill="#66cbcf" d="M 104.5,78.5 C 105.159,81.4082 105.993,81.7416 107,79.5C 108.308,81.6414 109.808,83.6414 111.5,85.5C 110.833,86.1667 110.167,86.8333 109.5,87.5C 111.104,89.1789 111.771,91.1789 111.5,93.5C 114.238,94.0352 116.072,93.0352 117,90.5C 117.317,92.3008 117.984,92.6341 119,91.5C 120.862,93.0293 122.362,94.8626 123.5,97C 122.978,97.9503 122.311,98.7836 121.5,99.5C 122.167,99.8333 122.833,100.167 123.5,100.5C 123.291,101.086 122.957,101.586 122.5,102C 124.853,103.964 127.353,104.464 130,103.5C 133.466,105.913 136.8,108.579 140,111.5C 140.718,110.549 141.551,110.383 142.5,111C 143.222,112.751 144.222,114.251 145.5,115.5C 148.43,117.396 151.43,119.229 154.5,121C 160.531,122.293 166.031,125.459 171,130.5C 171.273,132.101 171.773,133.601 172.5,135C 169.103,134.073 166.103,134.906 163.5,137.5C 162.211,138.501 160.878,138.334 159.5,137C 160.28,135.927 160.113,134.76 159,133.5C 158.026,135.878 157.359,135.544 157,132.5C 156.667,133.167 156.333,133.833 156,134.5C 155.5,133.333 154.667,132.5 153.5,132C 155.405,131.174 155.739,130.007 154.5,128.5C 152.941,127.926 151.441,127.26 150,126.5C 146.506,126.434 143.173,126.767 140,127.5C 139,125.833 138,124.167 137,122.5C 136.667,123.167 136.333,123.833 136,124.5C 135.385,122.884 134.385,121.551 133,120.5C 131.708,121.791 130.542,121.791 129.5,120.5C 129.506,119.583 128.506,119.083 126.5,119C 127.728,117.51 127.728,116.01 126.5,114.5C 127.268,113.737 127.768,112.737 128,111.5C 129.299,111.966 130.799,111.966 132.5,111.5C 132.67,110.178 132.337,109.011 131.5,108C 122.995,103.582 114.328,99.4149 105.5,95.5C 101.929,93.5281 98.5955,91.1948 95.5,88.5C 94.5213,86.8546 93.188,85.5213 91.5,84.5C 90.7542,83.2638 90.4208,81.9305 90.5,80.5C 92.1238,80.6399 93.2904,79.9733 94,78.5C 94.3333,78.8333 94.6667,79.1667 95,79.5C 95.4828,78.552 95.6495,77.552 95.5,76.5C 96.6885,75.9524 97.8552,75.6191 99,75.5C 100.462,77.1482 102.295,78.1482 104.5,78.5 Z"/></g>
<g><path style="opacity:1" fill="#80c8db" d="M 214.5,129.5 C 218.003,134.502 221.003,139.835 223.5,145.5C 223.586,146.496 223.252,147.329 222.5,148C 225.654,150.775 226.154,153.942 224,157.5C 223.308,156.975 222.808,156.308 222.5,155.5C 223.002,154.284 223.335,153.117 223.5,152C 222.167,151.667 220.833,151.333 219.5,151C 221.929,150.549 222.096,149.715 220,148.5C 219.667,148.833 219.333,149.167 219,149.5C 218.138,147.913 217.471,146.246 217,144.5C 215.334,145.34 215.167,144.84 216.5,143C 215.953,142.075 215.287,141.242 214.5,140.5C 213.167,141.833 211.833,143.167 210.5,144.5C 209.552,141.285 208.219,140.952 206.5,143.5C 203.435,141.593 200.268,139.926 197,138.5C 196.085,139.328 195.419,140.328 195,141.5C 191.492,139.413 188.158,137.08 185,134.5C 184.617,135.056 184.117,135.389 183.5,135.5C 183.063,133.926 182.063,132.759 180.5,132C 177.096,130.672 174.096,128.838 171.5,126.5C 172.239,126.631 172.906,126.464 173.5,126C 172.299,125.097 171.465,123.931 171,122.5C 170.667,123.167 170.333,123.833 170,124.5C 168.307,122.396 166.14,120.896 163.5,120C 164.833,119.333 165.833,118.333 166.5,117C 164.658,114.926 162.658,113.093 160.5,111.5C 162.034,110.797 163.701,110.964 165.5,112C 166.329,113.816 167.163,115.649 168,117.5C 168.853,119.125 169.853,119.458 171,118.5C 171.483,119.448 171.649,120.448 171.5,121.5C 174.694,121.824 175.694,120.658 174.5,118C 175.603,115.031 176.936,114.864 178.5,117.5C 180.325,116.429 181.492,117.096 182,119.5C 182.333,119.167 182.667,118.833 183,118.5C 183.513,120.521 184.68,122.021 186.5,123C 186.043,123.414 185.709,123.914 185.5,124.5C 186.5,125.333 187.5,126.167 188.5,127C 190.409,127.448 191.576,126.615 192,124.5C 192.333,124.833 192.667,125.167 193,125.5C 194.316,128.326 195.482,130.826 196.5,133C 199.96,133.985 203.294,134.152 206.5,133.5C 206.714,135.144 206.38,136.644 205.5,138C 206.563,139.188 207.897,139.688 209.5,139.5C 209.959,133.487 211.292,133.154 213.5,138.5C 214.425,139.641 215.259,139.641 216,138.5C 216.667,137.167 216.667,135.833 216,134.5C 213.647,133.182 213.147,131.515 214.5,129.5 Z"/></g>
<g><path style="opacity:1" fill="#64d5bd" d="M 87.5,116.5 C 87.3433,117.873 87.51,119.207 88,120.5C 88.3333,119.833 88.6667,119.167 89,118.5C 89.8619,120.721 91.0285,121.888 92.5,122C 91.9238,123.714 90.7571,124.881 89,125.5C 87.692,124.849 86.8586,125.515 86.5,127.5C 85.1266,127.657 83.7932,127.49 82.5,127C 80.766,125.266 78.766,123.932 76.5,123C 76.8333,122.667 77.1667,122.333 77.5,122C 76.3333,121.5 75.5,120.667 75,119.5C 74.6667,120.167 74.3333,120.833 74,121.5C 73.3333,120.167 72.6667,120.167 72,121.5C 71.6232,120.058 70.7899,119.058 69.5,118.5C 61.5349,115.304 62.2015,112.97 71.5,111.5C 71.5,109.5 71.5,107.5 71.5,105.5C 72.1422,103.346 73.4755,102.18 75.5,102C 75.9426,103.518 75.2759,104.685 73.5,105.5C 74.5294,105.296 75.5294,105.796 76.5,107C 74.7448,107.72 73.9115,108.887 74,110.5C 75.4299,110.694 76.9299,110.694 78.5,110.5C 81.915,112.748 84.915,114.748 87.5,116.5 Z"/></g>
<g><path style="opacity:1" fill="#69d5c8" d="M 126.5,114.5 C 127.728,116.01 127.728,117.51 126.5,119C 128.506,119.083 129.506,119.583 129.5,120.5C 127.084,123.102 124.584,123.102 122,120.5C 121.333,121.833 120.333,122.833 119,123.5C 118,123.167 117,122.833 116,122.5C 115.5,123 115,123.5 114.5,124C 116.437,127.033 118.937,128.533 122,128.5C 122.333,127.833 122.667,127.167 123,126.5C 127.05,129.076 129.883,132.076 131.5,135.5C 126.855,134.669 125.855,135.836 128.5,139C 129.448,139.483 130.448,139.649 131.5,139.5C 131.413,142.598 131.913,142.932 133,140.5C 133.273,142.329 134.107,143.829 135.5,145C 132.474,144.436 129.474,143.436 126.5,142C 127.258,140.636 126.758,139.469 125,138.5C 123.378,139.099 121.878,139.766 120.5,140.5C 118.33,139.232 116.163,139.232 114,140.5C 111.266,139.638 111.099,138.805 113.5,138C 111.011,136.549 108.678,136.382 106.5,137.5C 105.749,136.624 105.249,135.624 105,134.5C 102.579,137.116 101.079,137.116 100.5,134.5C 99.2613,134.942 98.2613,135.609 97.5,136.5C 96.6906,135.531 95.6906,134.698 94.5,134C 95.2627,130.132 94.096,129.632 91,132.5C 89.9563,131.377 89.2896,130.044 89,128.5C 87.841,129.566 87.0076,129.233 86.5,127.5C 86.8586,125.515 87.692,124.849 89,125.5C 90.7571,124.881 91.9238,123.714 92.5,122C 91.0285,121.888 89.8619,120.721 89,118.5C 88.6667,119.167 88.3333,119.833 88,120.5C 87.51,119.207 87.3433,117.873 87.5,116.5C 88.3635,117.463 89.0302,117.463 89.5,116.5C 87.8164,115.146 87.3164,113.479 88,111.5C 89.8733,110.911 91.54,111.578 93,113.5C 93.3333,112.5 93.6667,111.5 94,110.5C 95.016,111.634 95.6827,111.301 96,109.5C 97.5545,111.927 98.7211,111.927 99.5,109.5C 100.222,109.082 100.722,108.416 101,107.5C 101.5,108.5 102,109.5 102.5,110.5C 105.749,113.201 108.416,112.868 110.5,109.5C 111.892,110.605 113.059,111.939 114,113.5C 114.333,112.833 114.667,112.167 115,111.5C 116.812,113.552 118.145,115.885 119,118.5C 119.308,117.692 119.808,117.025 120.5,116.5C 122.071,117.309 123.738,117.643 125.5,117.5C 125.263,116.209 125.596,115.209 126.5,114.5 Z"/></g>
<g><path style="opacity:1" fill="#71d9bc" d="M 43.5,107.5 C 44.552,107.351 45.552,107.517 46.5,108C 50.2319,112.021 54.3986,115.521 59,118.5C 60.2948,117.159 60.7948,115.826 60.5,114.5C 61.3081,114.808 61.9747,115.308 62.5,116C 61.4829,117.049 61.3162,118.216 62,119.5C 62.3333,118.833 62.6667,118.167 63,117.5C 65,118.167 67,118.833 69,119.5C 69.3988,119.272 69.5654,118.938 69.5,118.5C 70.7899,119.058 71.6232,120.058 72,121.5C 72.6667,120.167 73.3333,120.167 74,121.5C 74.3333,120.833 74.6667,120.167 75,119.5C 75.5,120.667 76.3333,121.5 77.5,122C 77.1667,122.333 76.8333,122.667 76.5,123C 78.766,123.932 80.766,125.266 82.5,127C 83.7932,127.49 85.1266,127.657 86.5,127.5C 87.0076,129.233 87.841,129.566 89,128.5C 89.2896,130.044 89.9563,131.377 91,132.5C 94.096,129.632 95.2627,130.132 94.5,134C 95.6906,134.698 96.6906,135.531 97.5,136.5C 97.0825,137.222 96.4158,137.722 95.5,138C 96.8927,140.683 98.2261,140.85 99.5,138.5C 99.8333,138.833 100.167,139.167 100.5,139.5C 99.4688,140.7 98.6355,142.034 98,143.5C 95.5644,142.645 93.0644,141.979 90.5,141.5C 72.0323,134.031 56.3656,122.698 43.5,107.5 Z"/></g>
<g><path style="opacity:1" fill="#669fd6" d="M 277.5,113.5 C 279.989,113.298 282.323,113.798 284.5,115C 288.079,119.491 291.412,124.157 294.5,129C 298.502,129.563 300.169,127.73 299.5,123.5C 307.903,134.301 314.236,146.301 318.5,159.5C 318.5,160.5 318.5,161.5 318.5,162.5C 317.26,159.976 316.093,157.309 315,154.5C 314.581,155.672 313.915,156.672 313,157.5C 311.343,154.911 311.009,152.244 312,149.5C 310.434,150.061 309.101,149.394 308,147.5C 307.667,147.833 307.333,148.167 307,148.5C 307.305,146.557 307.305,144.557 307,142.5C 306.001,146.237 304.668,146.237 303,142.5C 302.667,143.5 302.333,144.5 302,145.5C 300.604,143.473 298.938,143.14 297,144.5C 294.195,143.527 293.695,141.86 295.5,139.5C 295.444,138.263 294.944,137.263 294,136.5C 289.515,137.886 285.015,139.22 280.5,140.5C 280.167,139.833 279.833,139.167 279.5,138.5C 283.112,135.022 287.112,132.022 291.5,129.5C 288.871,123.522 284.871,118.855 279.5,115.5C 278.833,114.833 278.167,114.167 277.5,113.5 Z"/></g>
<g><path style="opacity:1" fill="#66a9db" d="M 318.5,162.5 C 318.297,164.39 318.963,165.89 320.5,167C 317.833,167.667 317.833,168.333 320.5,169C 319.167,169.667 317.833,169.667 316.5,169C 315.167,168.333 315.167,167.667 316.5,167C 314.333,165.167 312.167,163.333 310,161.5C 309.683,163.301 309.016,163.634 308,162.5C 306.092,159.785 304.759,156.785 304,153.5C 303.667,153.833 303.333,154.167 303,154.5C 299.388,152.553 296.055,150.22 293,147.5C 292.641,150.544 291.974,150.878 291,148.5C 290.667,148.833 290.333,149.167 290,149.5C 289.517,148.552 289.351,147.552 289.5,146.5C 285.551,146.307 285.551,145.807 289.5,145C 288.5,144.667 287.5,144.333 286.5,144C 286.833,143.667 287.167,143.333 287.5,143C 284.47,140.394 281.304,140.561 278,143.5C 277.804,141.846 278.637,140.846 280.5,140.5C 285.015,139.22 289.515,137.886 294,136.5C 294.944,137.263 295.444,138.263 295.5,139.5C 293.695,141.86 294.195,143.527 297,144.5C 298.938,143.14 300.604,143.473 302,145.5C 302.333,144.5 302.667,143.5 303,142.5C 304.668,146.237 306.001,146.237 307,142.5C 307.305,144.557 307.305,146.557 307,148.5C 307.333,148.167 307.667,147.833 308,147.5C 309.101,149.394 310.434,150.061 312,149.5C 311.009,152.244 311.343,154.911 313,157.5C 313.915,156.672 314.581,155.672 315,154.5C 316.093,157.309 317.26,159.976 318.5,162.5 Z"/></g>
<g><path style="opacity:1" fill="#74d4d3" d="M 129.5,120.5 C 130.542,121.791 131.708,121.791 133,120.5C 134.385,121.551 135.385,122.884 136,124.5C 136.333,123.833 136.667,123.167 137,122.5C 138,124.167 139,125.833 140,127.5C 143.173,126.767 146.506,126.434 150,126.5C 151.441,127.26 152.941,127.926 154.5,128.5C 155.739,130.007 155.405,131.174 153.5,132C 154.667,132.5 155.5,133.333 156,134.5C 156.333,133.833 156.667,133.167 157,132.5C 157.359,135.544 158.026,135.878 159,133.5C 160.113,134.76 160.28,135.927 159.5,137C 160.878,138.334 162.211,138.501 163.5,137.5C 164.952,138.302 166.618,138.802 168.5,139C 166.866,139.494 165.199,139.66 163.5,139.5C 163.343,140.873 163.51,142.207 164,143.5C 165.667,143.5 167.333,143.5 169,143.5C 170.039,144.244 170.539,145.244 170.5,146.5C 168.854,146.542 167.188,146.542 165.5,146.5C 164.186,147.313 163.019,148.313 162,149.5C 159.434,147.216 158.934,147.883 160.5,151.5C 156.725,150.445 153.058,149.112 149.5,147.5C 145.138,145.823 140.804,143.823 136.5,141.5C 136.306,139.737 136.306,137.903 136.5,136C 135.953,135.075 135.287,134.242 134.5,133.5C 133.494,133.938 133.494,134.604 134.5,135.5C 133.386,136.776 132.386,136.776 131.5,135.5C 129.883,132.076 127.05,129.076 123,126.5C 122.667,127.167 122.333,127.833 122,128.5C 118.937,128.533 116.437,127.033 114.5,124C 115,123.5 115.5,123 116,122.5C 117,122.833 118,123.167 119,123.5C 120.333,122.833 121.333,121.833 122,120.5C 124.584,123.102 127.084,123.102 129.5,120.5 Z"/></g>
<g><path style="opacity:1" fill="#80cad8" d="M 223.5,145.5 C 225.341,147.849 226.674,150.515 227.5,153.5C 228.291,156.417 228.291,159.25 227.5,162C 230.059,164.439 232.392,167.105 234.5,170C 232.711,170.914 230.877,171.747 229,172.5C 226.367,171.911 225.2,170.244 225.5,167.5C 229.133,167.557 229.3,166.557 226,164.5C 225.586,164.957 225.086,165.291 224.5,165.5C 220.932,164.014 218.099,161.68 216,158.5C 214.883,158.665 213.716,158.998 212.5,159.5C 211.147,158.315 209.98,156.981 209,155.5C 208.617,156.056 208.117,156.389 207.5,156.5C 200.048,149.071 192.048,142.071 183.5,135.5C 184.117,135.389 184.617,135.056 185,134.5C 188.158,137.08 191.492,139.413 195,141.5C 195.419,140.328 196.085,139.328 197,138.5C 200.268,139.926 203.435,141.593 206.5,143.5C 208.219,140.952 209.552,141.285 210.5,144.5C 211.833,143.167 213.167,141.833 214.5,140.5C 215.287,141.242 215.953,142.075 216.5,143C 215.167,144.84 215.334,145.34 217,144.5C 217.471,146.246 218.138,147.913 219,149.5C 219.333,149.167 219.667,148.833 220,148.5C 222.096,149.715 221.929,150.549 219.5,151C 220.833,151.333 222.167,151.667 223.5,152C 223.335,153.117 223.002,154.284 222.5,155.5C 222.808,156.308 223.308,156.975 224,157.5C 226.154,153.942 225.654,150.775 222.5,148C 223.252,147.329 223.586,146.496 223.5,145.5 Z"/></g>
<g><path style="opacity:1" fill="#75ced6" d="M 145.5,115.5 C 151.066,116.723 156.399,118.556 161.5,121C 164.783,122.561 167.617,124.727 170,127.5C 170.383,126.944 170.883,126.611 171.5,126.5C 174.096,128.838 177.096,130.672 180.5,132C 182.063,132.759 183.063,133.926 183.5,135.5C 192.048,142.071 200.048,149.071 207.5,156.5C 205.735,157.461 203.735,157.795 201.5,157.5C 201.217,156.711 200.717,156.044 200,155.5C 199.167,157 198,158.167 196.5,159C 197.821,160.545 197.488,161.711 195.5,162.5C 194.328,162.081 193.328,161.415 192.5,160.5C 193.641,159.575 193.641,158.741 192.5,158C 193.167,157.667 193.833,157.333 194.5,157C 192.462,155.764 191.295,153.931 191,151.5C 190,151.833 189,152.167 188,152.5C 185.246,150.891 182.413,149.558 179.5,148.5C 179.421,147.07 179.754,145.736 180.5,144.5C 180.192,143.692 179.692,143.025 179,142.5C 176.697,142.742 174.697,144.075 173,146.5C 172.23,145.402 171.397,145.402 170.5,146.5C 170.539,145.244 170.039,144.244 169,143.5C 167.333,143.5 165.667,143.5 164,143.5C 163.51,142.207 163.343,140.873 163.5,139.5C 165.199,139.66 166.866,139.494 168.5,139C 166.618,138.802 164.952,138.302 163.5,137.5C 166.103,134.906 169.103,134.073 172.5,135C 171.773,133.601 171.273,132.101 171,130.5C 166.031,125.459 160.531,122.293 154.5,121C 151.43,119.229 148.43,117.396 145.5,115.5 Z"/></g>
<g><path style="opacity:1" fill="#61add2" d="M 279.5,138.5 C 279.833,139.167 280.167,139.833 280.5,140.5C 278.637,140.846 277.804,141.846 278,143.5C 281.304,140.561 284.47,140.394 287.5,143C 287.167,143.333 286.833,143.667 286.5,144C 287.5,144.333 288.5,144.667 289.5,145C 285.551,145.807 285.551,146.307 289.5,146.5C 289.351,147.552 289.517,148.552 290,149.5C 290.333,149.167 290.667,148.833 291,148.5C 291.974,150.878 292.641,150.544 293,147.5C 296.055,150.22 299.388,152.553 303,154.5C 303.333,154.167 303.667,153.833 304,153.5C 304.759,156.785 306.092,159.785 308,162.5C 309.016,163.634 309.683,163.301 310,161.5C 312.167,163.333 314.333,165.167 316.5,167C 315.167,167.667 315.167,168.333 316.5,169C 317.833,169.667 319.167,169.667 320.5,169C 317.833,168.333 317.833,167.667 320.5,167C 318.963,165.89 318.297,164.39 318.5,162.5C 318.5,161.5 318.5,160.5 318.5,159.5C 321.965,165.518 323.299,171.851 322.5,178.5C 318.565,175.857 314.565,173.19 310.5,170.5C 309.328,170.919 308.328,171.585 307.5,172.5C 308.506,173.396 308.506,174.062 307.5,174.5C 305.827,172.914 303.827,172.247 301.5,172.5C 300.5,172.167 299.833,171.5 299.5,170.5C 299.461,167.679 298.795,165.012 297.5,162.5C 297.251,163.582 297.085,164.915 297,166.5C 294.456,163.935 292.623,160.935 291.5,157.5C 290.886,161.077 289.553,161.077 287.5,157.5C 287.167,157.667 286.833,157.833 286.5,158C 287.089,161.346 286.422,161.346 284.5,158C 284.833,157.667 285.167,157.333 285.5,157C 283.43,156.052 281.93,154.552 281,152.5C 280.667,153.167 280.333,153.833 280,154.5C 279.667,152.833 279.333,151.167 279,149.5C 278.667,150.167 278.333,150.833 278,151.5C 277.727,149.671 276.893,148.171 275.5,147C 276.308,146.692 276.975,146.192 277.5,145.5C 276.833,145.167 276.167,144.833 275.5,144.5C 276.246,143.264 276.579,141.93 276.5,140.5C 277.29,139.599 278.29,138.932 279.5,138.5 Z"/></g>
<g><path style="opacity:1" fill="#80ddcb" d="M 120.5,140.5 C 122.688,143.101 125.188,146.101 128,149.5C 128.333,149.167 128.667,148.833 129,148.5C 132.917,151.211 136.583,153.544 140,155.5C 140.333,155.167 140.667,154.833 141,154.5C 142.685,156.017 144.185,157.684 145.5,159.5C 146.086,159.291 146.586,158.957 147,158.5C 148.273,160.714 149.273,163.047 150,165.5C 150.333,165.167 150.667,164.833 151,164.5C 152,166.167 153,167.833 154,169.5C 154.333,169.167 154.667,168.833 155,168.5C 157.491,170.972 160.324,172.472 163.5,173C 159.272,168.289 159.939,167.456 165.5,170.5C 166.612,171.265 167.279,172.265 167.5,173.5C 167.351,174.552 167.517,175.552 168,176.5C 169.666,175.66 169.833,176.16 168.5,178C 171.109,180.644 174.109,182.811 177.5,184.5C 176.833,184.833 176.167,185.167 175.5,185.5C 177.224,186.033 178.891,187.199 180.5,189C 180.043,189.414 179.709,189.914 179.5,190.5C 180.723,191.614 182.056,191.781 183.5,191C 182.366,189.984 182.699,189.317 184.5,189C 183.5,188.667 182.5,188.333 181.5,188C 182.766,187.691 183.933,187.191 185,186.5C 185.36,188.608 186.027,190.608 187,192.5C 188.612,189.921 190.112,189.921 191.5,192.5C 188.893,193.318 186.226,193.818 183.5,194C 186.365,194.183 189.031,194.683 191.5,195.5C 182.157,195.244 172.824,194.744 163.5,194C 162.289,192.887 162.289,191.72 163.5,190.5C 164.981,189.52 166.315,188.353 167.5,187C 166.906,186.536 166.239,186.369 165.5,186.5C 163.284,184.806 160.784,183.473 158,182.5C 155.324,183.594 152.491,183.761 149.5,183C 152.543,180.054 151.876,178.888 147.5,179.5C 147.892,176.278 147.392,173.278 146,170.5C 141.237,172.392 141.404,173.892 146.5,175C 144.866,175.494 143.199,175.66 141.5,175.5C 141.649,174.448 141.483,173.448 141,172.5C 135.302,173.987 129.469,174.654 123.5,174.5C 125.969,173.683 128.635,173.183 131.5,173C 130.944,172.617 130.611,172.117 130.5,171.5C 134.188,171.219 137.855,170.719 141.5,170C 139.699,169.683 139.366,169.016 140.5,168C 137.123,167.75 134.457,166.25 132.5,163.5C 132.646,164.976 131.813,166.309 130,167.5C 128.274,166.352 128.441,165.185 130.5,164C 129.234,163.691 128.067,163.191 127,162.5C 124.701,164.532 122.201,165.199 119.5,164.5C 121.167,163.167 122.833,161.833 124.5,160.5C 122.614,156.04 119.78,152.374 116,149.5C 112.649,151.593 109.149,153.26 105.5,154.5C 105.286,152.856 105.62,151.356 106.5,150C 102.909,148.034 99.2424,146.534 95.5,145.5C 93.6508,144.407 91.9842,143.074 90.5,141.5C 93.0644,141.979 95.5644,142.645 98,143.5C 98.6355,142.034 99.4688,140.7 100.5,139.5C 100.167,139.167 99.8333,138.833 99.5,138.5C 98.2261,140.85 96.8927,140.683 95.5,138C 96.4158,137.722 97.0825,137.222 97.5,136.5C 98.2613,135.609 99.2613,134.942 100.5,134.5C 101.079,137.116 102.579,137.116 105,134.5C 105.249,135.624 105.749,136.624 106.5,137.5C 108.678,136.382 111.011,136.549 113.5,138C 111.099,138.805 111.266,139.638 114,140.5C 116.163,139.232 118.33,139.232 120.5,140.5 Z"/></g>
<g><path style="opacity:1" fill="#73d9ce" d="M 149.5,147.5 C 148.769,147.942 147.769,148.109 146.5,148C 149.352,149.591 152.352,150.924 155.5,152C 154.833,152.333 154.167,152.667 153.5,153C 154.667,154.167 155.833,155.333 157,156.5C 157.333,156.167 157.667,155.833 158,155.5C 159.852,157.23 159.686,158.396 157.5,159C 159.5,159.333 161.5,159.667 163.5,160C 165.1,163.597 167.433,166.597 170.5,169C 169.12,170.324 168.786,171.657 169.5,173C 168.906,173.464 168.239,173.631 167.5,173.5C 167.279,172.265 166.612,171.265 165.5,170.5C 159.939,167.456 159.272,168.289 163.5,173C 160.324,172.472 157.491,170.972 155,168.5C 154.667,168.833 154.333,169.167 154,169.5C 153,167.833 152,166.167 151,164.5C 150.667,164.833 150.333,165.167 150,165.5C 149.273,163.047 148.273,160.714 147,158.5C 146.586,158.957 146.086,159.291 145.5,159.5C 144.185,157.684 142.685,156.017 141,154.5C 140.667,154.833 140.333,155.167 140,155.5C 136.583,153.544 132.917,151.211 129,148.5C 128.667,148.833 128.333,149.167 128,149.5C 125.188,146.101 122.688,143.101 120.5,140.5C 121.878,139.766 123.378,139.099 125,138.5C 126.758,139.469 127.258,140.636 126.5,142C 129.474,143.436 132.474,144.436 135.5,145C 134.107,143.829 133.273,142.329 133,140.5C 131.913,142.932 131.413,142.598 131.5,139.5C 130.448,139.649 129.448,139.483 128.5,139C 125.855,135.836 126.855,134.669 131.5,135.5C 132.386,136.776 133.386,136.776 134.5,135.5C 133.494,134.604 133.494,133.938 134.5,133.5C 135.287,134.242 135.953,135.075 136.5,136C 136.306,137.903 136.306,139.737 136.5,141.5C 140.804,143.823 145.138,145.823 149.5,147.5 Z"/></g>
<g><path style="opacity:1" fill="#7fd6d6" d="M 201.5,157.5 C 201.389,158.117 201.056,158.617 200.5,159C 204.323,159.818 204.49,160.984 201,162.5C 198.538,160.433 197.371,161.433 197.5,165.5C 199.821,165.771 201.821,165.104 203.5,163.5C 204.719,164.263 205.719,165.263 206.5,166.5C 208.88,165.233 211.046,165.566 213,167.5C 216.341,171.519 219.174,175.852 221.5,180.5C 220.434,181.692 219.601,181.359 219,179.5C 218.282,180.451 217.449,180.617 216.5,180C 215.773,178.601 215.273,177.101 215,175.5C 213.853,176.458 212.853,176.125 212,174.5C 211,175.5 210,176.5 209,177.5C 207.632,176.007 207.465,174.507 208.5,173C 206.167,172 203.833,171 201.5,170C 200.809,168.933 200.309,167.766 200,166.5C 198.249,167.174 196.583,167.507 195,167.5C 191.675,163.902 187.842,162.236 183.5,162.5C 177.382,160.02 171.382,157.353 165.5,154.5C 163.326,154.25 161.659,153.25 160.5,151.5C 158.934,147.883 159.434,147.216 162,149.5C 163.019,148.313 164.186,147.313 165.5,146.5C 167.188,146.542 168.854,146.542 170.5,146.5C 171.397,145.402 172.23,145.402 173,146.5C 174.697,144.075 176.697,142.742 179,142.5C 179.692,143.025 180.192,143.692 180.5,144.5C 179.754,145.736 179.421,147.07 179.5,148.5C 182.413,149.558 185.246,150.891 188,152.5C 189,152.167 190,151.833 191,151.5C 191.295,153.931 192.462,155.764 194.5,157C 193.833,157.333 193.167,157.667 192.5,158C 193.641,158.741 193.641,159.575 192.5,160.5C 193.328,161.415 194.328,162.081 195.5,162.5C 197.488,161.711 197.821,160.545 196.5,159C 198,158.167 199.167,157 200,155.5C 200.717,156.044 201.217,156.711 201.5,157.5 Z"/></g>
<g><path style="opacity:1" fill="#6db6d4" d="M 276.5,140.5 C 276.579,141.93 276.246,143.264 275.5,144.5C 276.167,144.833 276.833,145.167 277.5,145.5C 276.975,146.192 276.308,146.692 275.5,147C 276.893,148.171 277.727,149.671 278,151.5C 278.333,150.833 278.667,150.167 279,149.5C 279.333,151.167 279.667,152.833 280,154.5C 280.333,153.833 280.667,153.167 281,152.5C 281.93,154.552 283.43,156.052 285.5,157C 285.167,157.333 284.833,157.667 284.5,158C 286.422,161.346 287.089,161.346 286.5,158C 286.833,157.833 287.167,157.667 287.5,157.5C 289.553,161.077 290.886,161.077 291.5,157.5C 292.623,160.935 294.456,163.935 297,166.5C 297.085,164.915 297.251,163.582 297.5,162.5C 298.795,165.012 299.461,167.679 299.5,170.5C 297.611,169.396 295.945,168.063 294.5,166.5C 292.04,165.366 290.707,166.366 290.5,169.5C 289.488,173.117 287.988,173.117 286,169.5C 285.667,170.5 285.333,171.5 285,172.5C 283.943,170.1 283.276,167.767 283,165.5C 282.333,168.167 281.667,168.167 281,165.5C 280.333,168.167 279.667,168.167 279,165.5C 278.667,165.833 278.333,166.167 278,166.5C 273.96,163.833 270.793,161.666 268.5,160C 269.517,158.951 269.684,157.784 269,156.5C 267.493,157.535 265.993,157.368 264.5,156C 265.252,155.329 265.586,154.496 265.5,153.5C 268.456,148.601 272.123,144.268 276.5,140.5 Z"/></g>
<g><path style="opacity:1" fill="#83ddc3" d="M 95.5,145.5 C 99.2424,146.534 102.909,148.034 106.5,150C 105.62,151.356 105.286,152.856 105.5,154.5C 109.149,153.26 112.649,151.593 116,149.5C 119.78,152.374 122.614,156.04 124.5,160.5C 122.833,161.833 121.167,163.167 119.5,164.5C 122.201,165.199 124.701,164.532 127,162.5C 128.067,163.191 129.234,163.691 130.5,164C 128.441,165.185 128.274,166.352 130,167.5C 131.813,166.309 132.646,164.976 132.5,163.5C 134.457,166.25 137.123,167.75 140.5,168C 139.366,169.016 139.699,169.683 141.5,170C 137.855,170.719 134.188,171.219 130.5,171.5C 116.587,169.377 103.921,164.21 92.5,156C 88.3114,152.592 84.6447,148.759 81.5,144.5C 82.1667,144.167 82.8333,143.833 83.5,143.5C 87.4729,144.384 91.4729,145.051 95.5,145.5 Z"/></g>
<g><path style="opacity:1" fill="#74bed4" d="M 265.5,153.5 C 265.586,154.496 265.252,155.329 264.5,156C 265.993,157.368 267.493,157.535 269,156.5C 269.684,157.784 269.517,158.951 268.5,160C 270.793,161.666 273.96,163.833 278,166.5C 278.333,166.167 278.667,165.833 279,165.5C 279.667,168.167 280.333,168.167 281,165.5C 281.667,168.167 282.333,168.167 283,165.5C 283.276,167.767 283.943,170.1 285,172.5C 285.333,171.5 285.667,170.5 286,169.5C 287.988,173.117 289.488,173.117 290.5,169.5C 291.302,170.952 291.802,172.618 292,174.5C 292.333,174.167 292.667,173.833 293,173.5C 294.187,175.044 294.52,176.711 294,178.5C 293.667,177.833 293.333,177.167 293,176.5C 292.535,177.931 291.701,179.097 290.5,180C 291.784,181.297 291.617,182.464 290,183.5C 289.51,182.207 289.343,180.873 289.5,179.5C 287.856,179.286 286.356,179.62 285,180.5C 283.221,177.724 282.221,178.057 282,181.5C 280.331,178.855 277.831,176.188 274.5,173.5C 273.719,172.271 273.219,170.938 273,169.5C 272.667,170.5 272.333,171.5 272,172.5C 269.911,172.255 267.911,172.255 266,172.5C 265.626,171.584 265.126,170.75 264.5,170C 268.301,168.551 268.467,166.717 265,164.5C 264.085,165.328 263.419,166.328 263,167.5C 261.232,167.635 259.399,167.635 257.5,167.5C 259.065,165.177 260.232,162.844 261,160.5C 258.894,163.118 256.394,165.118 253.5,166.5C 257.528,162.141 261.528,157.807 265.5,153.5 Z"/></g>
<g><path style="opacity:1" fill="#83cfd4" d="M 227.5,153.5 C 230.021,157.354 232.688,161.188 235.5,165C 241.246,168.97 247.246,169.47 253.5,166.5C 253.611,167.117 253.944,167.617 254.5,168C 250.159,170.395 245.826,172.728 241.5,175C 244.002,176.496 245.669,178.663 246.5,181.5C 248.061,180.653 249.561,180.986 251,182.5C 252.399,181.773 253.899,181.273 255.5,181C 254.5,180.667 253.5,180.333 252.5,180C 253.925,178.638 254.758,177.138 255,175.5C 255.75,176.126 256.584,176.626 257.5,177C 256.692,177.308 256.025,177.808 255.5,178.5C 257.89,178.358 260.223,178.858 262.5,180C 263.126,180.75 263.626,181.584 264,182.5C 265.364,181.742 266.531,182.242 267.5,184C 267.167,184.333 266.833,184.667 266.5,185C 268.167,185.667 269.833,185.667 271.5,185C 270.304,184.346 270.304,183.846 271.5,183.5C 272.541,185.991 273.374,185.991 274,183.5C 274.513,184.527 275.013,185.527 275.5,186.5C 273.891,186.344 272.558,187.344 271.5,189.5C 272.145,190.732 272.311,192.065 272,193.5C 273.281,193.381 274.448,193.881 275.5,195C 274.874,195.75 274.374,196.584 274,197.5C 273.577,196.044 272.744,195.544 271.5,196C 272.167,197 272.833,198 273.5,199C 271.546,199.162 269.879,199.329 268.5,199.5C 267.25,199.577 266.417,200.244 266,201.5C 265.51,200.207 265.343,198.873 265.5,197.5C 263.856,197.714 262.356,197.38 261,196.5C 260.833,196.833 260.667,197.167 260.5,197.5C 261.729,198.281 263.062,198.781 264.5,199C 260.001,200.169 257.001,198.836 255.5,195C 255.645,194.228 255.978,193.561 256.5,193C 255.069,192.535 253.903,191.701 253,190.5C 252.667,191.167 252.333,191.833 252,192.5C 250.629,192.757 249.129,192.423 247.5,191.5C 244.403,190.55 243.403,188.716 244.5,186C 243.552,185.517 242.552,185.351 241.5,185.5C 241.657,184.127 241.49,182.793 241,181.5C 239.388,181.952 238.388,183.285 238,185.5C 237.333,182.833 236.667,182.833 236,185.5C 235.374,183.009 234.541,183.009 233.5,185.5C 231.247,184.747 229.413,183.414 228,181.5C 226.883,181.665 225.716,181.998 224.5,182.5C 223.735,181.388 222.735,180.721 221.5,180.5C 219.174,175.852 216.341,171.519 213,167.5C 211.046,165.566 208.88,165.233 206.5,166.5C 205.719,165.263 204.719,164.263 203.5,163.5C 201.821,165.104 199.821,165.771 197.5,165.5C 197.371,161.433 198.538,160.433 201,162.5C 204.49,160.984 204.323,159.818 200.5,159C 201.056,158.617 201.389,158.117 201.5,157.5C 203.735,157.795 205.735,157.461 207.5,156.5C 208.117,156.389 208.617,156.056 209,155.5C 209.98,156.981 211.147,158.315 212.5,159.5C 213.716,158.998 214.883,158.665 216,158.5C 218.099,161.68 220.932,164.014 224.5,165.5C 225.086,165.291 225.586,164.957 226,164.5C 229.3,166.557 229.133,167.557 225.5,167.5C 225.2,170.244 226.367,171.911 229,172.5C 230.877,171.747 232.711,170.914 234.5,170C 232.392,167.105 230.059,164.439 227.5,162C 228.291,159.25 228.291,156.417 227.5,153.5 Z"/></g>
<g><path style="opacity:1" fill="#84ddc3" d="M 165.5,186.5 C 150.885,189.163 136.885,187.33 123.5,181C 120.466,179.809 118.799,177.642 118.5,174.5C 120.167,174.5 121.833,174.5 123.5,174.5C 129.469,174.654 135.302,173.987 141,172.5C 141.483,173.448 141.649,174.448 141.5,175.5C 143.199,175.66 144.866,175.494 146.5,175C 141.404,173.892 141.237,172.392 146,170.5C 147.392,173.278 147.892,176.278 147.5,179.5C 151.876,178.888 152.543,180.054 149.5,183C 152.491,183.761 155.324,183.594 158,182.5C 160.784,183.473 163.284,184.806 165.5,186.5 Z"/></g>
<g><path style="opacity:1" fill="#61d3c9" d="M 149.5,147.5 C 153.058,149.112 156.725,150.445 160.5,151.5C 161.659,153.25 163.326,154.25 165.5,154.5C 164.398,156.092 165.065,156.925 167.5,157C 166.833,157.333 166.167,157.667 165.5,158C 172.662,161.879 178.162,166.713 182,172.5C 182.333,172.167 182.667,171.833 183,171.5C 186.159,173.62 187.826,176.62 188,180.5C 191.064,185.268 194.23,189.934 197.5,194.5C 196.311,195.429 194.978,195.762 193.5,195.5C 192.833,195.5 192.167,195.5 191.5,195.5C 189.031,194.683 186.365,194.183 183.5,194C 186.226,193.818 188.893,193.318 191.5,192.5C 190.112,189.921 188.612,189.921 187,192.5C 186.027,190.608 185.36,188.608 185,186.5C 183.933,187.191 182.766,187.691 181.5,188C 182.5,188.333 183.5,188.667 184.5,189C 182.699,189.317 182.366,189.984 183.5,191C 182.056,191.781 180.723,191.614 179.5,190.5C 179.709,189.914 180.043,189.414 180.5,189C 178.891,187.199 177.224,186.033 175.5,185.5C 176.167,185.167 176.833,184.833 177.5,184.5C 174.109,182.811 171.109,180.644 168.5,178C 169.833,176.16 169.666,175.66 168,176.5C 167.517,175.552 167.351,174.552 167.5,173.5C 168.239,173.631 168.906,173.464 169.5,173C 168.786,171.657 169.12,170.324 170.5,169C 167.433,166.597 165.1,163.597 163.5,160C 161.5,159.667 159.5,159.333 157.5,159C 159.686,158.396 159.852,157.23 158,155.5C 157.667,155.833 157.333,156.167 157,156.5C 155.833,155.333 154.667,154.167 153.5,153C 154.167,152.667 154.833,152.333 155.5,152C 152.352,150.924 149.352,149.591 146.5,148C 147.769,148.109 148.769,147.942 149.5,147.5 Z"/></g>
<g><path style="opacity:1" fill="#34b5b3" d="M 183.5,163.5 C 196.348,169.179 206.181,178.179 213,190.5C 214.29,194.73 214.79,199.064 214.5,203.5C 214.443,204.609 214.11,205.609 213.5,206.5C 213.167,206.5 212.833,206.5 212.5,206.5C 212.095,192.52 206.095,181.687 194.5,174C 195.061,172.434 194.394,171.101 192.5,170C 188.577,168.143 185.577,165.977 183.5,163.5 Z"/></g>
<g><path style="opacity:1" fill="#449fb4" d="M 322.5,178.5 C 314.324,180.552 307.324,178.552 301.5,172.5C 303.827,172.247 305.827,172.914 307.5,174.5C 308.506,174.062 308.506,173.396 307.5,172.5C 308.328,171.585 309.328,170.919 310.5,170.5C 314.565,173.19 318.565,175.857 322.5,178.5 Z"/></g>
<g><path style="opacity:1" fill="#73c3d0" d="M 290.5,169.5 C 290.707,166.366 292.04,165.366 294.5,166.5C 293.503,166.47 292.836,166.97 292.5,168C 294.655,172.613 295.989,177.446 296.5,182.5C 295.504,182.414 294.671,182.748 294,183.5C 293.958,188.557 293.792,193.557 293.5,198.5C 292.708,195.896 291.875,192.896 291,189.5C 290.758,191.138 289.925,192.638 288.5,194C 288.833,194.333 289.167,194.667 289.5,195C 288.448,196.119 287.281,196.619 286,196.5C 283.608,193.772 281.608,190.772 280,187.5C 277.925,190.028 277.092,189.861 277.5,187C 276.906,186.536 276.239,186.369 275.5,186.5C 275.013,185.527 274.513,184.527 274,183.5C 273.374,185.991 272.541,185.991 271.5,183.5C 270.304,183.846 270.304,184.346 271.5,185C 269.833,185.667 268.167,185.667 266.5,185C 266.833,184.667 267.167,184.333 267.5,184C 266.531,182.242 265.364,181.742 264,182.5C 263.626,181.584 263.126,180.75 262.5,180C 260.223,178.858 257.89,178.358 255.5,178.5C 256.025,177.808 256.692,177.308 257.5,177C 256.584,176.626 255.75,176.126 255,175.5C 254.758,177.138 253.925,178.638 252.5,180C 253.5,180.333 254.5,180.667 255.5,181C 253.899,181.273 252.399,181.773 251,182.5C 249.561,180.986 248.061,180.653 246.5,181.5C 245.669,178.663 244.002,176.496 241.5,175C 245.826,172.728 250.159,170.395 254.5,168C 253.944,167.617 253.611,167.117 253.5,166.5C 256.394,165.118 258.894,163.118 261,160.5C 260.232,162.844 259.065,165.177 257.5,167.5C 259.399,167.635 261.232,167.635 263,167.5C 263.419,166.328 264.085,165.328 265,164.5C 268.467,166.717 268.301,168.551 264.5,170C 265.126,170.75 265.626,171.584 266,172.5C 267.911,172.255 269.911,172.255 272,172.5C 272.333,171.5 272.667,170.5 273,169.5C 273.219,170.938 273.719,172.271 274.5,173.5C 277.831,176.188 280.331,178.855 282,181.5C 282.221,178.057 283.221,177.724 285,180.5C 286.356,179.62 287.856,179.286 289.5,179.5C 289.343,180.873 289.51,182.207 290,183.5C 291.617,182.464 291.784,181.297 290.5,180C 291.701,179.097 292.535,177.931 293,176.5C 293.333,177.167 293.667,177.833 294,178.5C 294.52,176.711 294.187,175.044 293,173.5C 292.667,173.833 292.333,174.167 292,174.5C 291.802,172.618 291.302,170.952 290.5,169.5 Z"/></g>
<g><path style="opacity:1" fill="#88d8d3" d="M 221.5,180.5 C 222.735,180.721 223.735,181.388 224.5,182.5C 225.716,181.998 226.883,181.665 228,181.5C 229.413,183.414 231.247,184.747 233.5,185.5C 234.541,183.009 235.374,183.009 236,185.5C 236.667,182.833 237.333,182.833 238,185.5C 238.388,183.285 239.388,181.952 241,181.5C 241.49,182.793 241.657,184.127 241.5,185.5C 242.552,185.351 243.552,185.517 244.5,186C 243.403,188.716 244.403,190.55 247.5,191.5C 249.129,192.423 250.629,192.757 252,192.5C 252.333,191.833 252.667,191.167 253,190.5C 253.903,191.701 255.069,192.535 256.5,193C 255.978,193.561 255.645,194.228 255.5,195C 257.001,198.836 260.001,200.169 264.5,199C 263.062,198.781 261.729,198.281 260.5,197.5C 260.667,197.167 260.833,196.833 261,196.5C 262.356,197.38 263.856,197.714 265.5,197.5C 265.343,198.873 265.51,200.207 266,201.5C 266.417,200.244 267.25,199.577 268.5,199.5C 269.992,200.607 270.992,202.107 271.5,204C 271.245,205.326 270.578,206.326 269.5,207C 270.252,207.671 270.586,208.504 270.5,209.5C 270.262,211.404 269.262,212.738 267.5,213.5C 265.653,212.313 263.82,210.979 262,209.5C 261.055,209.905 260.388,210.572 260,211.5C 259,208.833 258,208.833 257,211.5C 256.803,209.484 255.803,207.484 254,205.5C 253.047,207.592 251.714,207.925 250,206.5C 249.798,208.256 249.298,209.922 248.5,211.5C 247.571,210.311 247.238,208.978 247.5,207.5C 245.833,207.5 244.167,207.5 242.5,207.5C 242.587,204.402 242.087,204.068 241,206.5C 239.046,204.355 237.879,202.188 237.5,200C 236.256,199.544 235.423,200.044 235,201.5C 233.383,200.464 233.216,199.297 234.5,198C 232.067,197.234 230.234,195.734 229,193.5C 228.667,194.167 228.333,194.833 228,195.5C 227.5,194.333 226.667,193.5 225.5,193C 227.901,192.195 227.734,191.362 225,190.5C 223.989,191.337 222.822,191.67 221.5,191.5C 221.762,192.978 221.429,194.311 220.5,195.5C 219.401,191.821 218.401,188.154 217.5,184.5C 216.5,184.5 215.5,184.5 214.5,184.5C 214.891,189.473 215.891,194.307 217.5,199C 217.257,199.902 216.923,200.735 216.5,201.5C 215.833,202.167 215.167,202.833 214.5,203.5C 214.79,199.064 214.29,194.73 213,190.5C 206.181,178.179 196.348,169.179 183.5,163.5C 183.5,163.167 183.5,162.833 183.5,162.5C 187.842,162.236 191.675,163.902 195,167.5C 196.583,167.507 198.249,167.174 200,166.5C 200.309,167.766 200.809,168.933 201.5,170C 203.833,171 206.167,172 208.5,173C 207.465,174.507 207.632,176.007 209,177.5C 210,176.5 211,175.5 212,174.5C 212.853,176.125 213.853,176.458 215,175.5C 215.273,177.101 215.773,178.601 216.5,180C 217.449,180.617 218.282,180.451 219,179.5C 219.601,181.359 220.434,181.692 221.5,180.5 Z"/></g>
<g><path style="opacity:1" fill="#73cac9" d="M 296.5,182.5 C 297.465,193.229 297.798,203.895 297.5,214.5C 302.06,212.988 306.726,211.988 311.5,211.5C 311.426,213.411 310.426,214.578 308.5,215C 310.807,215.354 311.141,216.354 309.5,218C 310.509,219.168 311.509,220.335 312.5,221.5C 312.154,222.696 311.654,222.696 311,221.5C 310.487,222.527 309.987,223.527 309.5,224.5C 307.785,224.598 305.951,224.598 304,224.5C 303.333,223.5 303.333,222.5 304,221.5C 304.333,221.833 304.667,222.167 305,222.5C 306.074,221.382 307.24,220.382 308.5,219.5C 307.34,219.563 306.006,219.23 304.5,218.5C 303.281,219.263 302.281,220.263 301.5,221.5C 300.325,220.145 299.325,220.312 298.5,222C 298.969,223.962 298.303,225.795 296.5,227.5C 295.575,226.359 294.741,226.359 294,227.5C 293.25,226.874 292.416,226.374 291.5,226C 293.725,225.124 295.725,223.957 297.5,222.5C 297.192,221.692 296.692,221.025 296,220.5C 293.222,221.685 291.722,220.685 291.5,217.5C 289.533,217.261 287.699,217.594 286,218.5C 284.667,217.167 283.333,215.833 282,214.5C 281.667,214.833 281.333,215.167 281,215.5C 279.95,211.481 277.616,210.148 274,211.5C 272.566,211.138 271.399,210.472 270.5,209.5C 270.586,208.504 270.252,207.671 269.5,207C 270.578,206.326 271.245,205.326 271.5,204C 270.992,202.107 269.992,200.607 268.5,199.5C 269.879,199.329 271.546,199.162 273.5,199C 272.833,198 272.167,197 271.5,196C 272.744,195.544 273.577,196.044 274,197.5C 274.374,196.584 274.874,195.75 275.5,195C 274.448,193.881 273.281,193.381 272,193.5C 272.311,192.065 272.145,190.732 271.5,189.5C 272.558,187.344 273.891,186.344 275.5,186.5C 276.239,186.369 276.906,186.536 277.5,187C 277.092,189.861 277.925,190.028 280,187.5C 281.608,190.772 283.608,193.772 286,196.5C 287.281,196.619 288.448,196.119 289.5,195C 289.167,194.667 288.833,194.333 288.5,194C 289.925,192.638 290.758,191.138 291,189.5C 291.875,192.896 292.708,195.896 293.5,198.5C 293.792,193.557 293.958,188.557 294,183.5C 294.671,182.748 295.504,182.414 296.5,182.5 Z"/></g>
<g><path style="opacity:1" fill="#4ecac6" d="M 165.5,154.5 C 171.382,157.353 177.382,160.02 183.5,162.5C 183.5,162.833 183.5,163.167 183.5,163.5C 185.577,165.977 188.577,168.143 192.5,170C 194.394,171.101 195.061,172.434 194.5,174C 206.095,181.687 212.095,192.52 212.5,206.5C 211.504,206.414 210.671,206.748 210,207.5C 210.186,204.609 209.686,201.609 208.5,198.5C 204.931,199.139 202.764,197.472 202,193.5C 199.423,194.165 198.59,195.499 199.5,197.5C 197.302,197.125 195.302,196.458 193.5,195.5C 194.978,195.762 196.311,195.429 197.5,194.5C 194.23,189.934 191.064,185.268 188,180.5C 187.826,176.62 186.159,173.62 183,171.5C 182.667,171.833 182.333,172.167 182,172.5C 178.162,166.713 172.662,161.879 165.5,158C 166.167,157.667 166.833,157.333 167.5,157C 165.065,156.925 164.398,156.092 165.5,154.5 Z"/></g>
<g><path style="opacity:1" fill="#65ccba" d="M 212.5,206.5 C 212.833,206.5 213.167,206.5 213.5,206.5C 212.833,209.167 212.167,211.833 211.5,214.5C 210.155,216.836 208.155,218.503 205.5,219.5C 204.893,219.376 204.56,219.043 204.5,218.5C 209.713,209.881 208.046,202.881 199.5,197.5C 198.59,195.499 199.423,194.165 202,193.5C 202.764,197.472 204.931,199.139 208.5,198.5C 209.686,201.609 210.186,204.609 210,207.5C 210.671,206.748 211.504,206.414 212.5,206.5 Z"/></g>
<g><path style="opacity:1" fill="#8be3ca" d="M 216.5,201.5 C 216.67,202.822 216.337,203.989 215.5,205C 219.082,205.595 219.416,206.929 216.5,209C 217.833,209.667 219.167,210.333 220.5,211C 219.655,212.558 220.321,213.558 222.5,214C 221.269,215.183 221.269,216.349 222.5,217.5C 223.814,218.313 224.981,219.313 226,220.5C 226.333,219.5 226.667,218.5 227,217.5C 227.29,219.044 227.956,220.377 229,221.5C 229.333,221.167 229.667,220.833 230,220.5C 231.996,220.996 233.663,221.996 235,223.5C 236.154,221.043 237.488,221.043 239,223.5C 239.333,223.167 239.667,222.833 240,222.5C 240.229,225.502 238.729,226.835 235.5,226.5C 235.629,228.216 235.962,229.883 236.5,231.5C 236.5,231.833 236.5,232.167 236.5,232.5C 224.521,237.495 212.521,242.495 200.5,247.5C 200.577,246.25 201.244,245.417 202.5,245C 208.069,243.814 213.069,241.481 217.5,238C 216.833,237.667 216.167,237.333 215.5,237C 222.483,236.092 222.817,235.092 216.5,234C 222.837,233.163 222.503,232.497 215.5,232C 214.289,230.887 214.289,229.72 215.5,228.5C 214.41,226.997 213.243,226.664 212,227.5C 211.727,225.899 211.227,224.399 210.5,223C 213.871,222.826 214.871,221.326 213.5,218.5C 214.441,218.511 215.108,218.011 215.5,217C 214.02,217.058 213.187,215.891 213,213.5C 212.617,214.056 212.117,214.389 211.5,214.5C 212.167,211.833 212.833,209.167 213.5,206.5C 214.11,205.609 214.443,204.609 214.5,203.5C 215.167,202.833 215.833,202.167 216.5,201.5 Z"/></g>
<g><path style="opacity:1" fill="#87dbcc" d="M 267.5,213.5 C 267.062,213.435 266.728,213.601 266.5,214C 267.167,214.333 267.833,214.667 268.5,215C 264.622,219.917 260.622,224.75 256.5,229.5C 251.518,234.439 245.518,236.939 238.5,237C 240.365,234.412 241.198,231.578 241,228.5C 239.729,229.883 238.229,230.883 236.5,231.5C 235.962,229.883 235.629,228.216 235.5,226.5C 238.729,226.835 240.229,225.502 240,222.5C 239.667,222.833 239.333,223.167 239,223.5C 237.488,221.043 236.154,221.043 235,223.5C 233.663,221.996 231.996,220.996 230,220.5C 229.667,220.833 229.333,221.167 229,221.5C 227.956,220.377 227.29,219.044 227,217.5C 226.667,218.5 226.333,219.5 226,220.5C 224.981,219.313 223.814,218.313 222.5,217.5C 221.269,216.349 221.269,215.183 222.5,214C 220.321,213.558 219.655,212.558 220.5,211C 219.167,210.333 217.833,209.667 216.5,209C 219.416,206.929 219.082,205.595 215.5,205C 216.337,203.989 216.67,202.822 216.5,201.5C 216.923,200.735 217.257,199.902 217.5,199C 215.891,194.307 214.891,189.473 214.5,184.5C 215.5,184.5 216.5,184.5 217.5,184.5C 218.401,188.154 219.401,191.821 220.5,195.5C 221.429,194.311 221.762,192.978 221.5,191.5C 222.822,191.67 223.989,191.337 225,190.5C 227.734,191.362 227.901,192.195 225.5,193C 226.667,193.5 227.5,194.333 228,195.5C 228.333,194.833 228.667,194.167 229,193.5C 230.234,195.734 232.067,197.234 234.5,198C 233.216,199.297 233.383,200.464 235,201.5C 235.423,200.044 236.256,199.544 237.5,200C 237.879,202.188 239.046,204.355 241,206.5C 242.087,204.068 242.587,204.402 242.5,207.5C 244.167,207.5 245.833,207.5 247.5,207.5C 247.238,208.978 247.571,210.311 248.5,211.5C 249.298,209.922 249.798,208.256 250,206.5C 251.714,207.925 253.047,207.592 254,205.5C 255.803,207.484 256.803,209.484 257,211.5C 258,208.833 259,208.833 260,211.5C 260.388,210.572 261.055,209.905 262,209.5C 263.82,210.979 265.653,212.313 267.5,213.5 Z"/></g>
<g><path style="opacity:1" fill="#2d97ac" d="M 327.5,216.5 C 324.418,214.762 320.751,213.262 316.5,212C 319.191,211.844 321.524,211.011 323.5,209.5C 324.583,209.461 325.583,209.127 326.5,208.5C 327.48,211.086 327.813,213.753 327.5,216.5 Z"/></g>
<g><path style="opacity:1" fill="#95e5ca" d="M 200.5,247.5 C 199.167,248.167 197.833,248.833 196.5,249.5C 196.44,248.957 196.107,248.624 195.5,248.5C 192.068,250.48 188.402,251.98 184.5,253C 185.696,253.654 185.696,254.154 184.5,254.5C 183.24,252.647 183.24,250.814 184.5,249C 183.672,248.085 182.672,247.419 181.5,247C 182.92,245.47 183.92,243.637 184.5,241.5C 184.581,243.633 185.081,245.633 186,247.5C 186.981,244.345 188.315,244.012 190,246.5C 191.558,245.655 192.558,246.321 193,248.5C 194.38,245.117 196.88,243.284 200.5,243C 199.257,240.966 197.757,240.133 196,240.5C 193.503,244.148 191.169,243.815 189,239.5C 188,239.833 187,240.167 186,240.5C 184.686,239.687 183.519,238.687 182.5,237.5C 178.824,239.899 178.657,239.233 182,235.5C 182.333,235.833 182.667,236.167 183,236.5C 184.945,235.137 187.112,234.303 189.5,234C 184.802,232.12 180.135,228.786 175.5,224C 171.471,222.087 167.471,222.087 163.5,224C 165.282,226.19 167.282,227.023 169.5,226.5C 168.139,228.028 166.972,229.695 166,231.5C 164.667,230.167 163.333,228.833 162,227.5C 160.956,228.623 160.29,229.956 160,231.5C 159.329,232.252 158.496,232.586 157.5,232.5C 158.146,230.844 158.813,229.177 159.5,227.5C 158.068,224.673 157.401,221.673 157.5,218.5C 167.319,221.119 177.319,222.786 187.5,223.5C 194.023,224.434 199.69,222.767 204.5,218.5C 204.56,219.043 204.893,219.376 205.5,219.5C 208.155,218.503 210.155,216.836 211.5,214.5C 212.117,214.389 212.617,214.056 213,213.5C 213.187,215.891 214.02,217.058 215.5,217C 215.108,218.011 214.441,218.511 213.5,218.5C 214.871,221.326 213.871,222.826 210.5,223C 211.227,224.399 211.727,225.899 212,227.5C 213.243,226.664 214.41,226.997 215.5,228.5C 214.289,229.72 214.289,230.887 215.5,232C 222.503,232.497 222.837,233.163 216.5,234C 222.817,235.092 222.483,236.092 215.5,237C 216.167,237.333 216.833,237.667 217.5,238C 213.069,241.481 208.069,243.814 202.5,245C 201.244,245.417 200.577,246.25 200.5,247.5 Z"/></g>
<g><path style="opacity:1" fill="#41b7b3" d="M 323.5,209.5 C 321.524,211.011 319.191,211.844 316.5,212C 320.751,213.262 324.418,214.762 327.5,216.5C 327.682,228.233 326.015,239.566 322.5,250.5C 322.675,246.459 322.842,242.459 323,238.5C 322.586,238.957 322.086,239.291 321.5,239.5C 320.813,237.726 319.98,236.059 319,234.5C 317.815,236.377 316.815,238.377 316,240.5C 315.506,238.866 315.34,237.199 315.5,235.5C 315.5,234.833 315.5,234.167 315.5,233.5C 315.5,230.833 315.5,228.167 315.5,225.5C 314.5,225.5 313.5,225.5 312.5,225.5C 311.791,224.596 310.791,224.263 309.5,224.5C 309.987,223.527 310.487,222.527 311,221.5C 311.654,222.696 312.154,222.696 312.5,221.5C 311.509,220.335 310.509,219.168 309.5,218C 311.141,216.354 310.807,215.354 308.5,215C 310.426,214.578 311.426,213.411 311.5,211.5C 315.394,210.407 319.394,209.74 323.5,209.5 Z"/></g>
<g><path style="opacity:1" fill="#31a3bb" d="M 324.5,216.5 C 325.695,216.866 326.361,217.699 326.5,219C 325.527,219.349 324.694,220.182 324,221.5C 319.181,219.185 319.348,217.518 324.5,216.5 Z"/></g>
<g><path style="opacity:1" fill="#6cd0c2" d="M 270.5,209.5 C 271.399,210.472 272.566,211.138 274,211.5C 277.616,210.148 279.95,211.481 281,215.5C 281.333,215.167 281.667,214.833 282,214.5C 283.333,215.833 284.667,217.167 286,218.5C 287.699,217.594 289.533,217.261 291.5,217.5C 291.722,220.685 293.222,221.685 296,220.5C 296.692,221.025 297.192,221.692 297.5,222.5C 295.725,223.957 293.725,225.124 291.5,226C 292.416,226.374 293.25,226.874 294,227.5C 294.741,226.359 295.575,226.359 296.5,227.5C 298.303,225.795 298.969,223.962 298.5,222C 299.325,220.312 300.325,220.145 301.5,221.5C 302.281,220.263 303.281,219.263 304.5,218.5C 306.006,219.23 307.34,219.563 308.5,219.5C 307.24,220.382 306.074,221.382 305,222.5C 304.667,222.167 304.333,221.833 304,221.5C 303.333,222.5 303.333,223.5 304,224.5C 305.951,224.598 307.785,224.598 309.5,224.5C 310.791,224.263 311.791,224.596 312.5,225.5C 312.5,225.833 312.5,226.167 312.5,226.5C 304.226,231.968 295.226,235.802 285.5,238C 283.804,239.176 282.138,240.343 280.5,241.5C 280.901,237.93 282.901,235.764 286.5,235C 285,233.885 283.333,233.052 281.5,232.5C 280.885,234.162 280.051,236.162 279,238.5C 277.984,237.366 277.317,237.699 277,239.5C 276.667,239.167 276.333,238.833 276,238.5C 274.064,241.887 271.564,242.387 268.5,240C 267.167,239.333 267.167,238.667 268.5,238C 267.376,237.751 266.376,237.251 265.5,236.5C 266.718,236.891 267.552,236.224 268,234.5C 269.889,235.089 271.889,235.423 274,235.5C 274.5,234.333 275.333,233.5 276.5,233C 274.673,231.346 272.84,230.512 271,230.5C 270.667,231.5 270.333,232.5 270,233.5C 269.97,230.385 268.803,227.885 266.5,226C 269.264,224.456 269.097,223.289 266,222.5C 264.782,224.019 263.282,225.186 261.5,226C 262.833,227.84 262.666,228.34 261,227.5C 259.89,229.037 258.39,229.703 256.5,229.5C 260.622,224.75 264.622,219.917 268.5,215C 267.833,214.667 267.167,214.333 266.5,214C 266.728,213.601 267.062,213.435 267.5,213.5C 269.262,212.738 270.262,211.404 270.5,209.5 Z"/></g>
<g><path style="opacity:0.165" fill="#c6eeed" d="M 312.5,226.5 C 312.5,226.167 312.5,225.833 312.5,225.5C 313.5,225.5 314.5,225.5 315.5,225.5C 315.5,228.167 315.5,230.833 315.5,233.5C 315.083,230.841 314.083,228.508 312.5,226.5 Z"/></g>
<g><path style="opacity:1" fill="#66d4bd" d="M 280.5,241.5 C 270.005,251.916 257.338,258.416 242.5,261C 236.536,262.161 230.536,262.994 224.5,263.5C 229.052,261.027 234.052,259.86 239.5,260C 236.101,258.61 232.767,258.11 229.5,258.5C 232.972,257.865 236.305,256.865 239.5,255.5C 238.04,254.807 236.374,254.474 234.5,254.5C 233.24,252.647 233.24,250.814 234.5,249C 236.391,248.691 237.725,249.525 238.5,251.5C 239.584,250.335 240.417,249.002 241,247.5C 243.113,251.413 245.28,251.413 247.5,247.5C 245.999,246.642 244.999,244.808 244.5,242C 244.833,241.667 245.167,241.333 245.5,241C 243.39,240.446 241.39,239.612 239.5,238.5C 236.88,240.069 234.547,239.736 232.5,237.5C 233.953,235.815 235.286,234.149 236.5,232.5C 236.5,232.167 236.5,231.833 236.5,231.5C 238.229,230.883 239.729,229.883 241,228.5C 241.198,231.578 240.365,234.412 238.5,237C 245.518,236.939 251.518,234.439 256.5,229.5C 258.39,229.703 259.89,229.037 261,227.5C 262.666,228.34 262.833,227.84 261.5,226C 263.282,225.186 264.782,224.019 266,222.5C 269.097,223.289 269.264,224.456 266.5,226C 268.803,227.885 269.97,230.385 270,233.5C 270.333,232.5 270.667,231.5 271,230.5C 272.84,230.512 274.673,231.346 276.5,233C 275.333,233.5 274.5,234.333 274,235.5C 271.889,235.423 269.889,235.089 268,234.5C 267.552,236.224 266.718,236.891 265.5,236.5C 266.376,237.251 267.376,237.751 268.5,238C 267.167,238.667 267.167,239.333 268.5,240C 271.564,242.387 274.064,241.887 276,238.5C 276.333,238.833 276.667,239.167 277,239.5C 277.317,237.699 277.984,237.366 279,238.5C 280.051,236.162 280.885,234.162 281.5,232.5C 283.333,233.052 285,233.885 286.5,235C 282.901,235.764 280.901,237.93 280.5,241.5 Z"/></g>
<g><path style="opacity:1" fill="#94e9c6" d="M 196.5,249.5 C 194.118,250.351 192.118,251.684 190.5,253.5C 181.748,257.249 174.081,262.582 167.5,269.5C 167.062,269.565 166.728,269.399 166.5,269C 169.567,266.316 171.9,263.65 173.5,261C 172.833,260.667 172.167,260.333 171.5,260C 172.11,258.053 172.943,256.219 174,254.5C 174.667,255.833 175.667,256.833 177,257.5C 178.154,256.257 179.488,255.257 181,254.5C 181.627,252.414 181.127,252.081 179.5,253.5C 177.941,252.926 176.441,252.26 175,251.5C 173.211,251.623 171.378,251.623 169.5,251.5C 168.297,254.633 166.463,257.299 164,259.5C 162.369,256.962 161.036,254.295 160,251.5C 158.488,252.257 157.154,253.257 156,254.5C 157.178,251.383 157.511,248.05 157,244.5C 156.751,245.624 156.251,246.624 155.5,247.5C 155.251,246.418 155.085,245.085 155,243.5C 153.621,245.715 151.787,247.381 149.5,248.5C 150.599,242.301 153.266,236.968 157.5,232.5C 158.496,232.586 159.329,232.252 160,231.5C 160.29,229.956 160.956,228.623 162,227.5C 163.333,228.833 164.667,230.167 166,231.5C 166.972,229.695 168.139,228.028 169.5,226.5C 167.282,227.023 165.282,226.19 163.5,224C 167.471,222.087 171.471,222.087 175.5,224C 180.135,228.786 184.802,232.12 189.5,234C 187.112,234.303 184.945,235.137 183,236.5C 182.667,236.167 182.333,235.833 182,235.5C 178.657,239.233 178.824,239.899 182.5,237.5C 183.519,238.687 184.686,239.687 186,240.5C 187,240.167 188,239.833 189,239.5C 191.169,243.815 193.503,244.148 196,240.5C 197.757,240.133 199.257,240.966 200.5,243C 196.88,243.284 194.38,245.117 193,248.5C 192.558,246.321 191.558,245.655 190,246.5C 188.315,244.012 186.981,244.345 186,247.5C 185.081,245.633 184.581,243.633 184.5,241.5C 183.92,243.637 182.92,245.47 181.5,247C 182.672,247.419 183.672,248.085 184.5,249C 183.24,250.814 183.24,252.647 184.5,254.5C 185.696,254.154 185.696,253.654 184.5,253C 188.402,251.98 192.068,250.48 195.5,248.5C 196.107,248.624 196.44,248.957 196.5,249.5 Z"/></g>
<g><path style="opacity:1" fill="#58d6b7" d="M 236.5,232.5 C 235.286,234.149 233.953,235.815 232.5,237.5C 234.547,239.736 236.88,240.069 239.5,238.5C 241.39,239.612 243.39,240.446 245.5,241C 245.167,241.333 244.833,241.667 244.5,242C 244.999,244.808 245.999,246.642 247.5,247.5C 245.28,251.413 243.113,251.413 241,247.5C 240.417,249.002 239.584,250.335 238.5,251.5C 237.725,249.525 236.391,248.691 234.5,249C 233.24,250.814 233.24,252.647 234.5,254.5C 236.374,254.474 238.04,254.807 239.5,255.5C 236.305,256.865 232.972,257.865 229.5,258.5C 232.767,258.11 236.101,258.61 239.5,260C 234.052,259.86 229.052,261.027 224.5,263.5C 216.224,263.133 208.391,264.466 201,267.5C 198.152,265.357 195.318,265.191 192.5,267C 194.167,267.333 195.833,267.667 197.5,268C 194.179,268.813 191.179,270.313 188.5,272.5C 185.844,270.319 183.177,270.152 180.5,272C 183.285,272.726 183.952,274.226 182.5,276.5C 178.836,279.335 174.836,281.668 170.5,283.5C 170.698,280.626 172.698,279.293 176.5,279.5C 176.703,277.61 176.037,276.11 174.5,275C 176.014,273.561 176.347,272.061 175.5,270.5C 176.729,269.719 178.062,269.219 179.5,269C 176.634,267.213 176.134,265.046 178,262.5C 179,261.167 180,261.167 181,262.5C 181.249,261.376 181.749,260.376 182.5,259.5C 185.952,258.452 188.619,256.452 190.5,253.5C 192.118,251.684 194.118,250.351 196.5,249.5C 197.833,248.833 199.167,248.167 200.5,247.5C 212.521,242.495 224.521,237.495 236.5,232.5 Z"/></g>
<g><path style="opacity:1" fill="#5cc6b0" d="M 322.5,250.5 C 320.081,261.012 316.247,271.012 311,280.5C 309.951,281.517 308.784,281.684 307.5,281C 305.959,279.421 304.792,277.587 304,275.5C 303.333,271.167 303.333,266.833 304,262.5C 307.385,258.783 310.385,254.783 313,250.5C 313.998,245.396 314.831,240.396 315.5,235.5C 315.34,237.199 315.506,238.866 316,240.5C 316.815,238.377 317.815,236.377 319,234.5C 319.98,236.059 320.813,237.726 321.5,239.5C 322.086,239.291 322.586,238.957 323,238.5C 322.842,242.459 322.675,246.459 322.5,250.5 Z"/></g>
<g><path style="opacity:1" fill="#76d2ba" d="M 224.5,263.5 C 210.019,265.959 196.019,270.292 182.5,276.5C 183.952,274.226 183.285,272.726 180.5,272C 183.177,270.152 185.844,270.319 188.5,272.5C 191.179,270.313 194.179,268.813 197.5,268C 195.833,267.667 194.167,267.333 192.5,267C 195.318,265.191 198.152,265.357 201,267.5C 208.391,264.466 216.224,263.133 224.5,263.5 Z"/></g>
<g><path style="opacity:1" fill="#94e4be" d="M 167.5,269.5 C 166.287,272.225 164.454,274.559 162,276.5C 161.502,273.518 161.335,270.518 161.5,267.5C 161.649,266.448 161.483,265.448 161,264.5C 155.897,275.055 150.064,285.055 143.5,294.5C 144.147,291.208 145.147,288.374 146.5,286C 145.333,284.833 144.167,283.667 143,282.5C 142.584,284.55 141.417,285.884 139.5,286.5C 143.226,273.842 146.559,261.175 149.5,248.5C 151.787,247.381 153.621,245.715 155,243.5C 155.085,245.085 155.251,246.418 155.5,247.5C 156.251,246.624 156.751,245.624 157,244.5C 157.511,248.05 157.178,251.383 156,254.5C 157.154,253.257 158.488,252.257 160,251.5C 161.036,254.295 162.369,256.962 164,259.5C 166.463,257.299 168.297,254.633 169.5,251.5C 171.378,251.623 173.211,251.623 175,251.5C 176.441,252.26 177.941,252.926 179.5,253.5C 181.127,252.081 181.627,252.414 181,254.5C 179.488,255.257 178.154,256.257 177,257.5C 175.667,256.833 174.667,255.833 174,254.5C 172.943,256.219 172.11,258.053 171.5,260C 172.167,260.333 172.833,260.667 173.5,261C 171.9,263.65 169.567,266.316 166.5,269C 166.728,269.399 167.062,269.565 167.5,269.5 Z"/></g>
<g><path style="opacity:1" fill="#4ccdac" d="M 190.5,253.5 C 188.619,256.452 185.952,258.452 182.5,259.5C 181.749,260.376 181.249,261.376 181,262.5C 180,261.167 179,261.167 178,262.5C 176.134,265.046 176.634,267.213 179.5,269C 178.062,269.219 176.729,269.719 175.5,270.5C 176.347,272.061 176.014,273.561 174.5,275C 176.037,276.11 176.703,277.61 176.5,279.5C 172.698,279.293 170.698,280.626 170.5,283.5C 167.603,283.125 164.937,283.625 162.5,285C 163.956,285.423 164.456,286.256 164,287.5C 162.075,285.027 160.242,285.027 158.5,287.5C 159.872,289.62 159.205,290.62 156.5,290.5C 156.5,291.5 156.5,292.5 156.5,293.5C 154.305,292.392 152.305,292.559 150.5,294C 149.782,295.987 148.782,297.821 147.5,299.5C 146.289,298.726 146.289,297.893 147.5,297C 146.906,296.536 146.239,296.369 145.5,296.5C 151.085,287 156.418,277.333 161.5,267.5C 161.335,270.518 161.502,273.518 162,276.5C 164.454,274.559 166.287,272.225 167.5,269.5C 174.081,262.582 181.748,257.249 190.5,253.5 Z"/></g>
<g><path style="opacity:0.239" fill="#ace1d9" d="M 156.5,294.5 C 155.167,296.5 153.5,298.167 151.5,299.5C 152.069,296.665 153.736,294.999 156.5,294.5 Z"/></g>
<g><path style="opacity:1" fill="#4bc39b" d="M 161.5,267.5 C 156.418,277.333 151.085,287 145.5,296.5C 142.715,298.271 140.715,300.771 139.5,304C 141.569,304.324 141.902,305.158 140.5,306.5C 138.713,307.316 137.046,308.316 135.5,309.5C 135.709,310.086 136.043,310.586 136.5,311C 135.5,312 134.5,313 133.5,314C 134.451,314.718 134.617,315.551 134,316.5C 132.899,318.394 131.566,319.061 130,318.5C 129.503,320.81 129.337,323.143 129.5,325.5C 126.191,328.662 123.357,332.328 121,336.5C 121.437,334.243 121.937,331.91 122.5,329.5C 122.557,328.391 122.89,327.391 123.5,326.5C 129.731,315.594 136.397,304.927 143.5,294.5C 150.064,285.055 155.897,275.055 161,264.5C 161.483,265.448 161.649,266.448 161.5,267.5 Z"/></g>
<g><path style="opacity:0.992" fill="#94d5b7" d="M 139.5,286.5 C 138.587,288.086 138.587,289.586 139.5,291C 136.345,291.981 136.012,293.315 138.5,295C 137.095,296.269 135.429,296.769 133.5,296.5C 133.5,297.5 133.5,298.5 133.5,299.5C 130.537,299.953 128.204,301.453 126.5,304C 123.363,303.892 121.03,305.059 119.5,307.5C 118.167,307.833 116.833,308.167 115.5,308.5C 115.33,307.178 115.663,306.011 116.5,305C 126.431,301.562 134.097,295.395 139.5,286.5 Z"/></g>
<g><path style="opacity:1" fill="#82d6ab" d="M 143.5,294.5 C 136.397,304.927 129.731,315.594 123.5,326.5C 121.391,325.948 120.558,324.614 121,322.5C 122.065,324.396 122.898,324.563 123.5,323C 122.491,321.832 121.491,320.665 120.5,319.5C 121.609,318.035 121.109,317.035 119,316.5C 118.667,318.833 118.333,321.167 118,323.5C 117.5,322.5 117,321.5 116.5,320.5C 117.15,318.442 117.15,316.276 116.5,314C 116.863,311.491 117.863,309.324 119.5,307.5C 121.03,305.059 123.363,303.892 126.5,304C 128.204,301.453 130.537,299.953 133.5,299.5C 133.5,298.5 133.5,297.5 133.5,296.5C 135.429,296.769 137.095,296.269 138.5,295C 136.012,293.315 136.345,291.981 139.5,291C 138.587,289.586 138.587,288.086 139.5,286.5C 141.417,285.884 142.584,284.55 143,282.5C 144.167,283.667 145.333,284.833 146.5,286C 145.147,288.374 144.147,291.208 143.5,294.5 Z"/></g>
<g><path style="opacity:1" fill="#5ec6a9" d="M 170.5,283.5 C 165.872,287.156 161.206,290.822 156.5,294.5C 153.736,294.999 152.069,296.665 151.5,299.5C 143.206,307.465 135.873,316.131 129.5,325.5C 129.337,323.143 129.503,320.81 130,318.5C 131.566,319.061 132.899,318.394 134,316.5C 134.617,315.551 134.451,314.718 133.5,314C 134.5,313 135.5,312 136.5,311C 136.043,310.586 135.709,310.086 135.5,309.5C 137.046,308.316 138.713,307.316 140.5,306.5C 141.902,305.158 141.569,304.324 139.5,304C 140.715,300.771 142.715,298.271 145.5,296.5C 146.239,296.369 146.906,296.536 147.5,297C 146.289,297.893 146.289,298.726 147.5,299.5C 148.782,297.821 149.782,295.987 150.5,294C 152.305,292.559 154.305,292.392 156.5,293.5C 156.5,292.5 156.5,291.5 156.5,290.5C 159.205,290.62 159.872,289.62 158.5,287.5C 160.242,285.027 162.075,285.027 164,287.5C 164.456,286.256 163.956,285.423 162.5,285C 164.937,283.625 167.603,283.125 170.5,283.5 Z"/></g>
<g><path style="opacity:1" fill="#7acba1" d="M 119.5,307.5 C 117.863,309.324 116.863,311.491 116.5,314C 117.15,316.276 117.15,318.442 116.5,320.5C 117,321.5 117.5,322.5 118,323.5C 118.333,321.167 118.667,318.833 119,316.5C 121.109,317.035 121.609,318.035 120.5,319.5C 121.491,320.665 122.491,321.832 123.5,323C 122.898,324.563 122.065,324.396 121,322.5C 120.558,324.614 121.391,325.948 123.5,326.5C 122.89,327.391 122.557,328.391 122.5,329.5C 121.236,331.27 119.736,332.937 118,334.5C 115.476,340.243 113.642,346.243 112.5,352.5C 110.856,352.286 109.356,352.62 108,353.5C 108.152,351.924 108.985,350.591 110.5,349.5C 109.369,348.396 108.535,348.729 108,350.5C 106.513,349.747 106.346,348.914 107.5,348C 105.576,347.821 103.909,347.654 102.5,347.5C 105.281,344.066 107.614,340.399 109.5,336.5C 112.674,327.289 114.674,317.956 115.5,308.5C 116.833,308.167 118.167,307.833 119.5,307.5 Z"/></g>
<g><path style="opacity:1" fill="#6cbe98" d="M 129.5,325.5 C 121.915,338.838 115.248,352.672 109.5,367C 107.299,367.825 105.466,367.325 104,365.5C 99.5043,359.698 98.5043,353.365 101,346.5C 103.698,342.975 106.531,339.642 109.5,336.5C 107.614,340.399 105.281,344.066 102.5,347.5C 103.909,347.654 105.576,347.821 107.5,348C 106.346,348.914 106.513,349.747 108,350.5C 108.535,348.729 109.369,348.396 110.5,349.5C 108.985,350.591 108.152,351.924 108,353.5C 109.356,352.62 110.856,352.286 112.5,352.5C 113.642,346.243 115.476,340.243 118,334.5C 119.736,332.937 121.236,331.27 122.5,329.5C 121.937,331.91 121.437,334.243 121,336.5C 123.357,332.328 126.191,328.662 129.5,325.5 Z"/></g>
</svg>
